<?xml version="1.0" encoding="UTF-8" standalone="no"?>
<!-- Created with Inkscape (http://www.inkscape.org/) -->

<svg
   xmlns:ns0="http://www.iki.fi/pav/software/textext/"
   xmlns:dc="http://purl.org/dc/elements/1.1/"
   xmlns:cc="http://creativecommons.org/ns#"
   xmlns:rdf="http://www.w3.org/1999/02/22-rdf-syntax-ns#"
   xmlns:svg="http://www.w3.org/2000/svg"
   xmlns="http://www.w3.org/2000/svg"
   xmlns:xlink="http://www.w3.org/1999/xlink"
   xmlns:sodipodi="http://sodipodi.sourceforge.net/DTD/sodipodi-0.dtd"
   xmlns:inkscape="http://www.inkscape.org/namespaces/inkscape"
   id="svg2"
   sodipodi:version="0.32"
   inkscape:version="0.48.0 r9654"
   width="990"
   height="765"
   version="1.0"
   sodipodi:docname="fpsymTri.svg"
   inkscape:output_extension="org.inkscape.output.svg.inkscape">
  <sodipodi:namedview
     inkscape:window-height="712"
     inkscape:window-width="1162"
     inkscape:pageshadow="2"
     inkscape:pageopacity="0.0"
     guidetolerance="10.0"
     gridtolerance="10.0"
     objecttolerance="10.0"
     borderopacity="1.0"
     bordercolor="#666666"
     pagecolor="#ffffff"
     id="base"
     showgrid="true"
     inkscape:zoom="2.73628"
     inkscape:cx="205.49637"
     inkscape:cy="591.29233"
     inkscape:window-x="100"
     inkscape:window-y="0"
     inkscape:current-layer="svg2"
     inkscape:document-units="in"
     inkscape:snap-intersection-line-segments="true"
     inkscape:snap-bbox="true"
     inkscape:object-paths="true"
     inkscape:object-nodes="true"
     inkscape:snap-intersection-grid-guide="true"
     inkscape:snap-center="true"
     showguides="true"
     inkscape:guide-bbox="true"
     inkscape:window-maximized="0">
    <inkscape:grid
       type="xygrid"
       id="grid2395"
       units="in"
       visible="true"
       enabled="true"
       spacingx="0.125in"
       spacingy="0.125in"
       empspacing="4" />
  </sodipodi:namedview>
  <metadata
     id="metadata7">
    <rdf:RDF>
      <cc:Work
         rdf:about="">
        <dc:format>image/svg+xml</dc:format>
        <dc:type
           rdf:resource="http://purl.org/dc/dcmitype/StillImage" />
        <dc:title />
      </cc:Work>
    </rdf:RDF>
  </metadata>
  <defs
     id="defs5">
    <marker
       inkscape:stockid="Arrow1Send"
       orient="auto"
       refY="0.0"
       refX="0.0"
       id="Arrow1Send"
       style="overflow:visible;">
      <path
         id="path3189"
         d="M 0.0,0.0 L 5.0,-5.0 L -12.5,0.0 L 5.0,5.0 L 0.0,0.0 z "
         style="fill-rule:evenodd;stroke:#000000;stroke-width:1.0pt;marker-start:none;"
         transform="scale(0.2) rotate(180) translate(6,0)" />
    </marker>
    <marker
       inkscape:stockid="Arrow2Lend"
       orient="auto"
       refY="0.0"
       refX="0.0"
       id="Arrow2Lend"
       style="overflow:visible;">
      <path
         id="path3195"
         style="font-size:12.0;fill-rule:evenodd;stroke-width:0.62500000;stroke-linejoin:round;"
         d="M 8.7185878,4.0337352 L -2.2072895,0.016013256 L 8.7185884,-4.0017078 C 6.9730900,-1.6296469 6.9831476,1.6157441 8.7185878,4.0337352 z "
         transform="scale(1.1) rotate(180) translate(1,0)" />
    </marker>
    <marker
       inkscape:stockid="Arrow2Mend"
       orient="auto"
       refY="0.0"
       refX="0.0"
       id="Arrow2Mend"
       style="overflow:visible;">
      <path
         id="path3201"
         style="font-size:12.0;fill-rule:evenodd;stroke-width:0.62500000;stroke-linejoin:round;"
         d="M 8.7185878,4.0337352 L -2.2072895,0.016013256 L 8.7185884,-4.0017078 C 6.9730900,-1.6296469 6.9831476,1.6157441 8.7185878,4.0337352 z "
         transform="scale(0.6) rotate(180) translate(0,0)" />
    </marker>
    <marker
       inkscape:stockid="Arrow1Mstart"
       orient="auto"
       refY="0.0"
       refX="0.0"
       id="Arrow1Mstart"
       style="overflow:visible">
      <path
         id="path3180"
         d="M 0.0,0.0 L 5.0,-5.0 L -12.5,0.0 L 5.0,5.0 L 0.0,0.0 z "
         style="fill-rule:evenodd;stroke:#000000;stroke-width:1.0pt;marker-start:none"
         transform="scale(0.4) translate(10,0)" />
    </marker>
    <inkscape:perspective
       sodipodi:type="inkscape:persp3d"
       inkscape:vp_x="0 : 526.18109 : 1"
       inkscape:vp_y="0 : 1000 : 0"
       inkscape:vp_z="744.09448 : 526.18109 : 1"
       inkscape:persp3d-origin="372.04724 : 350.78739 : 1"
       id="perspective9" />
    <marker
       inkscape:stockid="Arrow2LendH"
       orient="auto"
       refY="0.0"
       refX="0.0"
       id="Arrow2LendH"
       style="overflow:visible;">
      <path
         id="path11517"
         style="stroke-linejoin:round;font-size:12.0;fill-rule:evenodd;stroke:#000000;stroke-width:0.62500000;fill:#000000"
         d="M 8.7185878,4.0337352 L -2.2072895,0.016013256 L 8.7185884,-4.0017078 C 6.9730900,-1.6296469 6.9831476,1.6157441 8.7185878,4.0337352 z "
         transform="scale(1.1) rotate(180) translate(1,0)" />
    </marker>
    <marker
       inkscape:stockid="Arrow1SendJ"
       orient="auto"
       refY="0.0"
       refX="0.0"
       id="Arrow1SendJ"
       style="overflow:visible;">
      <path
         id="path11606"
         d="M 0.0,0.0 L 5.0,-5.0 L -12.5,0.0 L 5.0,5.0 L 0.0,0.0 z "
         style="marker-start:none;stroke:#7f7f7f;stroke-width:1.0pt;fill:#7f7f7f;fill-rule:evenodd"
         transform="scale(0.2) rotate(180) translate(6,0)" />
    </marker>
    <marker
       inkscape:stockid="Arrow1SendJm"
       orient="auto"
       refY="0.0"
       refX="0.0"
       id="Arrow1SendJm"
       style="overflow:visible;">
      <path
         id="path11817"
         d="M 0.0,0.0 L 5.0,-5.0 L -12.5,0.0 L 5.0,5.0 L 0.0,0.0 z "
         style="fill-rule:evenodd;marker-start:none;stroke:#a6a6a6;stroke-width:1.0pt;fill:#a6a6a6"
         transform="scale(0.2) rotate(180) translate(6,0)" />
    </marker>
    <defs
       id="defs3444">
      <g
         id="g3446">
        <symbol
           overflow="visible"
           id="textext-767a047d-0">
          <path
             style="stroke:none;"
             d=""
             id="path3449" />
        </symbol>
        <symbol
           overflow="visible"
           id="textext-767a047d-1">
          <path
             style="stroke:none;"
             d="M 3.296875 2.390625 C 3.296875 2.359375 3.296875 2.34375 3.125 2.171875 C 1.890625 0.921875 1.5625 -0.96875 1.5625 -2.5 C 1.5625 -4.234375 1.9375 -5.96875 3.171875 -7.203125 C 3.296875 -7.328125 3.296875 -7.34375 3.296875 -7.375 C 3.296875 -7.453125 3.265625 -7.484375 3.203125 -7.484375 C 3.09375 -7.484375 2.203125 -6.796875 1.609375 -5.53125 C 1.109375 -4.4375 0.984375 -3.328125 0.984375 -2.5 C 0.984375 -1.71875 1.09375 -0.515625 1.640625 0.625 C 2.25 1.84375 3.09375 2.5 3.203125 2.5 C 3.265625 2.5 3.296875 2.46875 3.296875 2.390625 Z M 3.296875 2.390625 "
             id="path3452" />
        </symbol>
        <symbol
           overflow="visible"
           id="textext-767a047d-2">
          <path
             style="stroke:none;"
             d="M 0.28125 -1.640625 L 2.9375 -1.640625 L 2.9375 -0.78125 C 2.9375 -0.421875 2.90625 -0.3125 2.171875 -0.3125 L 1.96875 -0.3125 L 1.96875 0 C 2.375 -0.03125 2.890625 -0.03125 3.3125 -0.03125 C 3.734375 -0.03125 4.25 -0.03125 4.671875 0 L 4.671875 -0.3125 L 4.453125 -0.3125 C 3.71875 -0.3125 3.703125 -0.421875 3.703125 -0.78125 L 3.703125 -1.640625 L 4.6875 -1.640625 L 4.6875 -1.953125 L 3.703125 -1.953125 L 3.703125 -6.484375 C 3.703125 -6.6875 3.703125 -6.75 3.53125 -6.75 C 3.453125 -6.75 3.421875 -6.75 3.34375 -6.625 L 0.28125 -1.953125 L 0.28125 -1.640625 Z M 2.984375 -1.953125 L 0.5625 -1.953125 L 2.984375 -5.671875 L 2.984375 -1.953125 Z M 2.984375 -1.953125 "
             id="path3455" />
        </symbol>
        <symbol
           overflow="visible"
           id="textext-767a047d-3">
          <path
             style="stroke:none;"
             d="M 4.46875 -1.734375 L 4.234375 -1.734375 C 4.171875 -1.4375 4.109375 -1 4 -0.84375 C 3.9375 -0.765625 3.28125 -0.765625 3.0625 -0.765625 L 1.265625 -0.765625 L 2.328125 -1.796875 C 3.875 -3.171875 4.46875 -3.703125 4.46875 -4.703125 C 4.46875 -5.84375 3.578125 -6.640625 2.359375 -6.640625 C 1.234375 -6.640625 0.5 -5.71875 0.5 -4.828125 C 0.5 -4.28125 1 -4.28125 1.03125 -4.28125 C 1.203125 -4.28125 1.546875 -4.390625 1.546875 -4.8125 C 1.546875 -5.0625 1.359375 -5.328125 1.015625 -5.328125 C 0.9375 -5.328125 0.921875 -5.328125 0.890625 -5.3125 C 1.109375 -5.96875 1.65625 -6.328125 2.234375 -6.328125 C 3.140625 -6.328125 3.5625 -5.515625 3.5625 -4.703125 C 3.5625 -3.90625 3.078125 -3.125 2.515625 -2.5 L 0.609375 -0.375 C 0.5 -0.265625 0.5 -0.234375 0.5 0 L 4.203125 0 L 4.46875 -1.734375 Z M 4.46875 -1.734375 "
             id="path3458" />
        </symbol>
        <symbol
           overflow="visible"
           id="textext-767a047d-4">
          <path
             style="stroke:none;"
             d="M 2.875 -2.5 C 2.875 -3.265625 2.765625 -4.46875 2.21875 -5.609375 C 1.625 -6.828125 0.765625 -7.484375 0.671875 -7.484375 C 0.609375 -7.484375 0.5625 -7.4375 0.5625 -7.375 C 0.5625 -7.34375 0.5625 -7.328125 0.75 -7.140625 C 1.734375 -6.15625 2.296875 -4.578125 2.296875 -2.5 C 2.296875 -0.78125 1.9375 0.96875 0.703125 2.21875 C 0.5625 2.34375 0.5625 2.359375 0.5625 2.390625 C 0.5625 2.453125 0.609375 2.5 0.671875 2.5 C 0.765625 2.5 1.671875 1.8125 2.25 0.546875 C 2.765625 -0.546875 2.875 -1.65625 2.875 -2.5 Z M 2.875 -2.5 "
             id="path3461" />
        </symbol>
        <symbol
           overflow="visible"
           id="textext-767a047d-5">
          <path
             style="stroke:none;"
             d=""
             id="path3464" />
        </symbol>
        <symbol
           overflow="visible"
           id="textext-767a047d-6">
          <path
             style="stroke:none;"
             d="M 2.03125 -0.015625 C 2.03125 -0.671875 1.78125 -1.0625 1.390625 -1.0625 C 1.0625 -1.0625 0.859375 -0.8125 0.859375 -0.53125 C 0.859375 -0.265625 1.0625 0 1.390625 0 C 1.5 0 1.640625 -0.046875 1.734375 -0.125 C 1.765625 -0.15625 1.78125 -0.15625 1.78125 -0.15625 C 1.796875 -0.15625 1.796875 -0.15625 1.796875 -0.015625 C 1.796875 0.734375 1.453125 1.328125 1.125 1.65625 C 1.015625 1.765625 1.015625 1.78125 1.015625 1.8125 C 1.015625 1.890625 1.0625 1.921875 1.109375 1.921875 C 1.21875 1.921875 2.03125 1.15625 2.03125 -0.015625 Z M 2.03125 -0.015625 "
             id="path3467" />
        </symbol>
        <symbol
           overflow="visible"
           id="textext-767a047d-7">
          <path
             style="stroke:none;"
             d=""
             id="path3470" />
        </symbol>
        <symbol
           overflow="visible"
           id="textext-767a047d-8">
          <path
             style="stroke:none;"
             d="M 6.59375 -2.296875 C 6.734375 -2.296875 6.921875 -2.296875 6.921875 -2.5 C 6.921875 -2.6875 6.734375 -2.6875 6.59375 -2.6875 L 1.15625 -2.6875 C 1.015625 -2.6875 0.828125 -2.6875 0.828125 -2.5 C 0.828125 -2.296875 1.015625 -2.296875 1.15625 -2.296875 L 6.59375 -2.296875 Z M 6.59375 -2.296875 "
             id="path3473" />
        </symbol>
      </g>
    </defs>
  </defs>
  <path
     d="M 202.5,112.5 A 0,0 0 1 1 202.5,112.5 A 0,0 0 1 1 202.5,112.5 z"
     sodipodi:ry="0"
     sodipodi:rx="0"
     sodipodi:cy="112.5"
     sodipodi:cx="202.5"
     id="path11772"
     style="opacity:1;fill:none;fill-opacity:1;stroke:#000000;stroke-width:0.5;stroke-linecap:square;stroke-linejoin:bevel;stroke-miterlimit:4;stroke-dasharray:none;stroke-opacity:0.39215686"
     sodipodi:type="arc" />
  <path
     transform="matrix(0.64,0,0,0.6417315,-14.4,29.475987)"
     d="M 450,129.375 A 5.625,5.625 0 1 1 438.75,129.375 A 5.625,5.625 0 1 1 450,129.375 z"
     sodipodi:ry="5.625"
     sodipodi:rx="5.625"
     sodipodi:cy="129.375"
     sodipodi:cx="444.375"
     id="path11794"
     style="fill:#000000;fill-opacity:1;stroke:none;stroke-width:0.5;stroke-linecap:square;stroke-linejoin:bevel;stroke-miterlimit:4;stroke-dasharray:none;stroke-opacity:0.43171806"
     sodipodi:type="arc" />
  <path
     transform="matrix(0.32,-0.5542563,0.5557558,0.3208657,94.860943,384.76952)"
     d="M 450,129.375 A 5.625,5.625 0 1 1 438.75,129.375 A 5.625,5.625 0 1 1 450,129.375 z"
     sodipodi:ry="5.625"
     sodipodi:rx="5.625"
     sodipodi:cy="129.375"
     sodipodi:cx="444.375"
     id="path2532"
     style="fill:#000000;fill-opacity:1;stroke:none;stroke-width:0.5;stroke-linecap:square;stroke-linejoin:bevel;stroke-miterlimit:4;stroke-dasharray:none;stroke-opacity:0.43171806"
     sodipodi:type="arc" />
  <path
     transform="matrix(-0.32,-0.5542563,0.5557558,-0.3208657,301.30003,467.77494)"
     d="M 450,129.375 A 5.625,5.625 0 1 1 438.75,129.375 A 5.625,5.625 0 1 1 450,129.375 z"
     sodipodi:ry="5.625"
     sodipodi:rx="5.625"
     sodipodi:cy="129.375"
     sodipodi:cx="444.375"
     id="path2540"
     style="fill:#000000;fill-opacity:1;stroke:none;stroke-width:0.5;stroke-linecap:square;stroke-linejoin:bevel;stroke-miterlimit:4;stroke-dasharray:none;stroke-opacity:0.43171806"
     sodipodi:type="arc" />
  <path
     style="fill:none;fill-rule:evenodd;stroke:#000000;stroke-width:0.99;stroke-linecap:butt;stroke-linejoin:miter;stroke-opacity:1;stroke-miterlimit:4;stroke-dasharray:none"
     d="M 269.9628,112.46281 L 230.94722,179.83932 L 308.76363,179.96281 L 269.9628,112.46281 z"
     id="path2550" />
  <g
     transform="translate(34.974243,-26.374374)"
     ns0:text="$A$"
     ns0:preamble=""
     id="g2740">
    <defs
       id="defs2742">
      <g
         id="g2744">
        <symbol
           style="overflow:visible"
           overflow="visible"
           id="textext-245121e3-0">
          <path
             style="stroke:none"
             d=""
             id="path2747" />
        </symbol>
        <symbol
           style="overflow:visible"
           overflow="visible"
           id="textext-245121e3-1">
          <path
             style="stroke:none"
             d="M 1.78125,-1.140625 C 1.390625,-0.484375 1,-0.34375 0.5625,-0.3125 C 0.4375,-0.296875 0.34375,-0.296875 0.34375,-0.109375 C 0.34375,-0.046875 0.40625,0 0.484375,0 C 0.75,0 1.0625,-0.03125 1.328125,-0.03125 C 1.671875,-0.03125 2.015625,0 2.328125,0 C 2.390625,0 2.515625,0 2.515625,-0.1875 C 2.515625,-0.296875 2.4375,-0.3125 2.359375,-0.3125 C 2.140625,-0.328125 1.890625,-0.40625 1.890625,-0.65625 C 1.890625,-0.78125 1.953125,-0.890625 2.03125,-1.03125 C 2.109375,-1.140625 2.109375,-1.140625 2.796875,-2.296875 L 5.296875,-2.296875 C 5.3125,-2.09375 5.453125,-0.734375 5.453125,-0.640625 C 5.453125,-0.34375 4.9375,-0.3125 4.734375,-0.3125 C 4.59375,-0.3125 4.5,-0.3125 4.5,-0.109375 C 4.5,0 4.609375,0 4.640625,0 C 5.046875,0 5.46875,-0.03125 5.875,-0.03125 C 6.125,-0.03125 6.765625,0 7.015625,0 C 7.0625,0 7.1875,0 7.1875,-0.203125 C 7.1875,-0.3125 7.09375,-0.3125 6.953125,-0.3125 C 6.34375,-0.3125 6.34375,-0.375 6.3125,-0.671875 L 5.703125,-6.890625 C 5.6875,-7.09375 5.6875,-7.140625 5.515625,-7.140625 C 5.359375,-7.140625 5.3125,-7.0625 5.25,-6.96875 L 1.78125,-1.140625 z M 2.984375,-2.609375 L 4.9375,-5.90625 L 5.265625,-2.609375 L 2.984375,-2.609375 z"
             id="path2750" />
        </symbol>
      </g>
    </defs>
    <g
       id="textext-245121e3-2">
      <g
         style="fill:#000000;fill-opacity:1"
         id="g2753">
        <use
           height="765"
           width="990"
           xlink:href="#textext-245121e3-1"
           x="223.43201"
           y="134.765"
           id="use2755" />
      </g>
    </g>
  </g>
  <g
     id="g2865"
     ns0:preamble=""
     ns0:text="$B$"
     transform="translate(-5.9632568,45.235001)">
    <defs
       id="defs2867">
      <g
         id="g2869">
        <symbol
           id="textext-ebb944c4-0"
           overflow="visible"
           style="overflow:visible">
          <path
             inkscape:connector-curvature="0"
             id="path2872"
             d=""
             style="stroke:none" />
        </symbol>
        <symbol
           id="textext-ebb944c4-1"
           overflow="visible"
           style="overflow:visible">
          <path
             inkscape:connector-curvature="0"
             id="path2875"
             d="M 1.59375,-0.78125 C 1.5,-0.390625 1.46875,-0.3125 0.6875,-0.3125 c -0.171875,0 -0.265625,0 -0.265625,0.203125 C 0.421875,0 0.515625,0 0.6875,0 L 4.25,0 C 5.828125,0 7,-1.171875 7,-2.15625 7,-2.875 6.421875,-3.453125 5.453125,-3.5625 6.484375,-3.75 7.53125,-4.484375 7.53125,-5.4375 c 0,-0.734375 -0.65625,-1.375 -1.84375,-1.375 l -3.359375,0 c -0.1875,0 -0.28125,0 -0.28125,0.203125 0,0.109375 0.09375,0.109375 0.28125,0.109375 0.015625,0 0.203125,0 0.375,0.015625 0.171875,0.03125 0.265625,0.03125 0.265625,0.171875 0,0.03125 -0.015625,0.0625 -0.03125,0.1875 l -1.34375,5.34375 z m 1.5,-2.875 0.625,-2.46875 C 3.8125,-6.46875 3.828125,-6.5 4.25,-6.5 l 1.296875,0 c 0.875,0 1.078125,0.59375 1.078125,1.03125 0,0.875 -0.859375,1.8125 -2.0625,1.8125 l -1.46875,0 z m -0.4375,3.34375 c -0.140625,0 -0.15625,0 -0.21875,0 -0.109375,-0.015625 -0.140625,-0.03125 -0.140625,-0.109375 0,-0.03125 0,-0.046875 0.0625,-0.21875 l 0.6875,-2.78125 1.875,0 c 0.953125,0 1.15625,0.734375 1.15625,1.15625 C 6.078125,-1.28125 5.1875,-0.3125 4,-0.3125 l -1.34375,0 z"
             style="stroke:none" />
        </symbol>
      </g>
    </defs>
    <g
       id="textext-ebb944c4-2">
      <g
         id="g2878"
         style="fill:#000000;fill-opacity:1">
        <use
           id="use2880"
           y="134.765"
           x="223.43201"
           xlink:href="#textext-ebb944c4-1"
           width="990"
           height="765" />
      </g>
    </g>
  </g>
  <g
     transform="translate(91.067993,45.016251)"
     ns0:text="$C$"
     ns0:preamble=""
     id="g3010">
    <defs
       id="defs3012">
      <g
         id="g3014">
        <symbol
           style="overflow:visible"
           overflow="visible"
           id="textext-985e667b-0">
          <path
             inkscape:connector-curvature="0"
             style="stroke:none"
             d=""
             id="path3017" />
        </symbol>
        <symbol
           style="overflow:visible"
           overflow="visible"
           id="textext-985e667b-1">
          <path
             inkscape:connector-curvature="0"
             style="stroke:none"
             d="m 7.578125,-6.921875 c 0,-0.03125 -0.015625,-0.109375 -0.109375,-0.109375 -0.03125,0 -0.046875,0.015625 -0.15625,0.125 L 6.625,-6.140625 C 6.53125,-6.28125 6.078125,-7.03125 4.96875,-7.03125 2.734375,-7.03125 0.5,-4.828125 0.5,-2.515625 0.5,-0.875 1.671875,0.21875 3.203125,0.21875 c 0.859375,0 1.625,-0.390625 2.15625,-0.859375 0.921875,-0.8125 1.09375,-1.71875 1.09375,-1.75 C 6.453125,-2.5 6.34375,-2.5 6.328125,-2.5 c -0.0625,0 -0.109375,0.03125 -0.125,0.109375 -0.09375,0.28125 -0.328125,1 -1.015625,1.578125 -0.6875,0.546875 -1.3125,0.71875 -1.828125,0.71875 -0.890625,0 -1.953125,-0.515625 -1.953125,-2.0625 0,-0.578125 0.203125,-2.1875 1.203125,-3.359375 0.609375,-0.703125 1.546875,-1.203125 2.4375,-1.203125 1.015625,0 1.609375,0.765625 1.609375,1.921875 0,0.40625 -0.03125,0.40625 -0.03125,0.515625 0,0.09375 0.109375,0.09375 0.140625,0.09375 0.125,0 0.125,-0.015625 0.1875,-0.203125 l 0.625,-2.53125 z"
             id="path3020" />
        </symbol>
      </g>
    </defs>
    <g
       id="textext-985e667b-2">
      <g
         style="fill:#000000;fill-opacity:1"
         id="g3023">
        <use
           height="765"
           width="990"
           xlink:href="#textext-985e667b-1"
           x="223.43201"
           y="134.765"
           id="use3025" />
      </g>
    </g>
  </g>
  <path
     inkscape:connector-curvature="0"
     id="path3173"
     d="m 270,78.75 0,135"
     style="fill:none;stroke:#000000;stroke-width:0.45;stroke-linecap:butt;stroke-linejoin:miter;stroke-opacity:1;stroke-miterlimit:4;stroke-dasharray:none;stroke-dashoffset:0" />
  <path
     style="fill:none;stroke:#000000;stroke-width:0.44999999;stroke-linecap:butt;stroke-linejoin:miter;stroke-miterlimit:4;stroke-opacity:1;stroke-dasharray:none;stroke-dashoffset:0"
     d="m 200.29328,198.34007 116.91344,-67.5"
     id="path3985"
     inkscape:connector-curvature="0" />
  <path
     inkscape:connector-curvature="0"
     id="path3987"
     d="m 339.70671,198.19006 -116.91343,-67.5"
     style="fill:none;stroke:#000000;stroke-width:0.45;stroke-linecap:butt;stroke-linejoin:miter;stroke-miterlimit:4;stroke-opacity:1;stroke-dasharray:none;stroke-dashoffset:0" />
  <g
     id="g3978"
     transform="matrix(0.19525896,0,0,0.19525896,216.13187,46.903417)">
    <g
       word-spacing="normal"
       letter-spacing="normal"
       font-size-adjust="none"
       font-stretch="normal"
       font-weight="normal"
       font-variant="normal"
       font-style="normal"
       stroke-miterlimit="10.433"
       xml:space="preserve"
       transform="matrix(1.0928571,0,0,-1.0928571,-191.25,742.5)"
       id="g3980"
       style="font-style:normal;font-variant:normal;font-weight:normal;font-stretch:normal;letter-spacing:normal;word-spacing:normal;text-anchor:start;fill:none;stroke:#000000;stroke-width:5.12140417;stroke-linecap:butt;stroke-linejoin:miter;stroke-miterlimit:10.43299961;stroke-opacity:1;stroke-dasharray:none;stroke-dashoffset:0"><path
         id="path3982"
         d="m 480.16,421.69 v 3.04 h -15.04 v 12.5 h 6.52 c 0.6,0 1.2,-0.05 1.79,-0.05 h 8.77 v 3.24 H 460.68 V 406 h 4.44 v 15.69 z"
         inkscape:connector-curvature="0"
         style="fill:#000000;stroke-width:0" /></g>  </g>
  <g
     id="g4204"
     transform="matrix(0.19525896,0,0,0.19525896,253.09125,91.254711)">
    <g
       id="g4206"
       transform="matrix(1.0928571,0,0,-1.0928571,-191.25,742.5)"
       xml:space="preserve"
       stroke-miterlimit="10.433"
       font-style="normal"
       font-variant="normal"
       font-weight="normal"
       font-stretch="normal"
       font-size-adjust="none"
       letter-spacing="normal"
       word-spacing="normal"
       style="font-style:normal;font-variant:normal;font-weight:normal;font-stretch:normal;letter-spacing:normal;word-spacing:normal;text-anchor:start;fill:none;stroke:#000000;stroke-width:5.12140417;stroke-linecap:butt;stroke-linejoin:miter;stroke-miterlimit:10.43299961;stroke-opacity:1;stroke-dasharray:none;stroke-dashoffset:0"><path
         d="m 480.16,421.69 v 3.04 h -15.04 v 12.5 h 6.52 c 0.6,0 1.2,-0.05 1.79,-0.05 h 8.77 v 3.24 H 460.68 V 406 h 4.44 v 15.69 z"
         id="path4208"
         inkscape:connector-curvature="0"
         style="fill:#000000;stroke-width:0" /><path
         d="m 494.11,440.46 0.03,0.05 0.02,0.05 0.02,0.06 0.03,0.05 0.02,0.04 0.02,0.05 0.01,0.04 0.02,0.05 0.01,0.04 0.02,0.04 0.01,0.04 0.01,0.04 0.02,0.03 0.01,0.04 0.01,0.03 0,0.04 0.01,0.03 0.01,0.03 0,0.03 0.01,0.03 0.01,0.03 0,0.03 0,0.02 0.01,0.03 0,0.05 0,0.05 0.01,0.05 0,0.04 c 0,1.09 -0.98,1.92 -2.06,1.92 -1.33,0 -1.75,-1.08 -1.92,-1.64 l -4.6,-15.1 c -0.04,-0.07 -0.18,-0.52 -0.18,-0.55 0,-0.42 1.08,-0.77 1.37,-0.77 0.24,0 0.27,0.07 0.52,0.59 z"
         id="path4210"
         inkscape:connector-curvature="0"
         style="fill:#000000;stroke-width:0" /></g>  </g>
  <g
     id="g4440"
     transform="matrix(0.19525896,0,0,0.19525896,159.88187,91.254711)">
    <g
       word-spacing="normal"
       letter-spacing="normal"
       font-size-adjust="none"
       font-stretch="normal"
       font-weight="normal"
       font-variant="normal"
       font-style="normal"
       stroke-miterlimit="10.433"
       xml:space="preserve"
       transform="matrix(1.0928571,0,0,-1.0928571,-191.25,742.5)"
       id="g4442"
       style="font-style:normal;font-variant:normal;font-weight:normal;font-stretch:normal;letter-spacing:normal;word-spacing:normal;text-anchor:start;fill:none;stroke:#000000;stroke-width:5.12140417;stroke-linecap:butt;stroke-linejoin:miter;stroke-miterlimit:10.43299961;stroke-opacity:1;stroke-dasharray:none;stroke-dashoffset:0"><path
         id="path4444"
         d="m 480.16,421.69 v 3.04 h -15.04 v 12.5 h 6.52 c 0.6,0 1.2,-0.05 1.79,-0.05 h 8.77 v 3.24 H 460.68 V 406 h 4.44 v 15.69 z"
         inkscape:connector-curvature="0"
         style="fill:#000000;stroke-width:0" /><path
         id="path4446"
         d="m 494.11,440.46 0.03,0.05 0.02,0.05 0.02,0.06 0.03,0.05 0.02,0.04 0.02,0.05 0.01,0.04 0.02,0.05 0.01,0.04 0.02,0.04 0.01,0.04 0.01,0.04 0.02,0.03 0.01,0.04 0.01,0.03 0,0.04 0.01,0.03 0.01,0.03 0,0.03 0.01,0.03 0.01,0.03 0,0.03 0,0.02 0.01,0.03 0,0.05 0,0.05 0.01,0.05 0,0.04 c 0,1.09 -0.98,1.92 -2.06,1.92 -1.33,0 -1.75,-1.08 -1.92,-1.64 l -4.6,-15.1 c -0.04,-0.07 -0.18,-0.52 -0.18,-0.55 0,-0.42 1.08,-0.77 1.37,-0.77 0.24,0 0.27,0.07 0.52,0.59 z"
         inkscape:connector-curvature="0"
         style="fill:#000000;stroke-width:0" /><path
         id="path4448"
         d="m 505.11,440.46 0.03,0.05 0.02,0.05 0.02,0.06 0.03,0.05 0.02,0.04 0.02,0.05 0.01,0.04 0.02,0.05 0.01,0.04 0.02,0.04 0.01,0.04 0.01,0.04 0.02,0.03 0.01,0.04 0.01,0.03 0,0.04 0.01,0.03 0.01,0.03 0,0.03 0.01,0.03 0.01,0.03 0,0.03 0,0.02 0.01,0.03 0,0.05 0,0.05 0.01,0.05 0,0.04 c 0,1.09 -0.98,1.92 -2.06,1.92 -1.33,0 -1.75,-1.08 -1.92,-1.64 l -4.6,-15.1 c -0.04,-0.07 -0.18,-0.52 -0.18,-0.55 0,-0.42 1.08,-0.77 1.37,-0.77 0.24,0 0.27,0.07 0.52,0.59 z"
         inkscape:connector-curvature="0"
         style="fill:#000000;stroke-width:0" /></g>  </g>
</svg>
