<?xml version="1.0" encoding="UTF-8" standalone="no"?>
<!-- Created with Inkscape (http://www.inkscape.org/) -->

<svg
   xmlns:dc="http://purl.org/dc/elements/1.1/"
   xmlns:cc="http://creativecommons.org/ns#"
   xmlns:rdf="http://www.w3.org/1999/02/22-rdf-syntax-ns#"
   xmlns:svg="http://www.w3.org/2000/svg"
   xmlns="http://www.w3.org/2000/svg"
   xmlns:sodipodi="http://sodipodi.sourceforge.net/DTD/sodipodi-0.dtd"
   xmlns:inkscape="http://www.inkscape.org/namespaces/inkscape"
   id="svg3055"
   version="1.1"
   inkscape:version="0.48.1 r9760"
   width="2292"
   height="1251"
   sodipodi:docname="pinwheel1.jpg">
  <metadata
     id="metadata3061">
    <rdf:RDF>
      <cc:Work
         rdf:about="">
        <dc:format>image/svg+xml</dc:format>
        <dc:type
           rdf:resource="http://purl.org/dc/dcmitype/StillImage" />
        <dc:title></dc:title>
      </cc:Work>
    </rdf:RDF>
  </metadata>
  <defs
     id="defs3059" />
  <sodipodi:namedview
     pagecolor="#ffffff"
     bordercolor="#666666"
     borderopacity="1"
     objecttolerance="10"
     gridtolerance="10"
     guidetolerance="10"
     inkscape:pageopacity="0"
     inkscape:pageshadow="2"
     inkscape:window-width="640"
     inkscape:window-height="480"
     id="namedview3057"
     showgrid="false"
     inkscape:zoom="0.20898778"
     inkscape:cx="1146"
     inkscape:cy="625.5"
     inkscape:window-x="7"
     inkscape:window-y="24"
     inkscape:window-maximized="0"
     inkscape:current-layer="svg3055" />
  <path
     style="fill:#000000"
     d="M 265,1175.2478 44.5,1174.9956 44.748503,844.24778 C 44.88518,662.3365 44.99768,414.5 44.998503,293.5 L 45,73.5 925.25,73.74887 c 484.1375,0.136879 979.3638,0.249379 1100.5029,0.25 l 220.253,0.0011 0.074,329.25 c 0.041,181.0875 0.077,329.925 0.079,330.75 0,0.825 -0.033,100.3875 -0.08,221.25 l -0.085,219.75003 -330.2476,0 c -181.6362,10e-4 -577.7476,0.1135 -880.2476,0.25 -302.5,0.1365 -649.225,0.1347 -770.5,0 z m -1.28958,-2.6249 C 264.37077,1171.9626 221.95859,1088 220.96468,1088 c -0.96001,0 -170.964561,84.7723 -170.964809,85.2512 -2.07e-4,0.4012 213.308089,-0.2258 213.710549,-0.6283 z m 219.5388,-0.6461 c -0.31225,-1.2221 -41.2836,-83.3008 -41.90337,-83.9459 -0.24788,-0.258 -38.65524,18.629 -85.34969,41.971 -46.69445,23.3421 -84.51395,42.6782 -84.04334,42.9691 1.64504,1.017 211.55793,0.029 211.2964,-0.9942 z m 216.95082,0.858 C 699.07571,1171.7665 531.42265,1088 530.40876,1088 c -0.68502,0 -43.40885,83.908 -43.40874,85.2531 10e-6,0.1358 48.12753,0.2469 106.95004,0.2469 58.82251,0 106.635,-0.2993 106.24998,-0.6652 z m 220.79998,0.4164 C 920.99998,1172.8411 751.06815,1088 750.24685,1088 c -0.5783,0 -43.24694,84.1133 -43.24682,85.2531 10e-6,0.1358 48.15002,0.2469 107.00002,0.2469 58.85,0 106.99999,-0.112 106.99997,-0.2488 z m 222.99998,0 c 10e-5,-1.4887 -42.7551,-85.2385 -43.4945,-85.1981 -0.553,0.03 -39.367,19.2678 -86.2533,42.75 l -85.24771,42.695 107.49771,0 c 59.1238,0 107.4978,-0.1111 107.4978,-0.2469 z m 218.8644,-0.8096 c 0.2004,-0.3067 -9.1439,-19.6262 -20.7651,-42.9323 l -21.1296,-42.3747 -85.9848,42.9927 c -47.2917,23.646 -85.9849,43.0778 -85.985,43.1817 -3e-4,0.4873 213.5452,-0.3788 213.8645,-0.8674 z m 219.8771,0.1483 c 0.2465,-0.2465 -9.0994,-19.5777 -20.7685,-42.9583 l -21.2168,-42.5101 -85.3781,42.6856 c -46.9579,23.477 -85.3781,42.9118 -85.3781,43.1883 -10e-5,0.6211 212.1192,0.2168 212.7415,-0.4055 z m 218.2586,0.6593 c -10e-5,-0.1368 -38.6119,-19.5557 -85.804,-43.1531 l -85.8039,-42.9042 -21.2216,42.4573 c -11.6719,23.3515 -21.0281,42.7704 -20.7915,43.1531 0.3821,0.6179 213.6212,1.0641 213.621,0.4469 z M 2019,1172.9679 c 0.825,-0.043 -36.975,-19.3582 -84,-42.923 l -85.5,-42.845 -21.3247,42.5449 c -11.8939,23.7293 -20.8916,42.8125 -20.3452,43.15 0.7279,0.4498 202.5747,0.5196 211.1699,0.073 z m 223.9999,-0.2148 c 0,-0.4108 -9.5378,-19.829 -21.1952,-43.1516 l -21.1953,-42.4046 -85.3047,42.6488 c -46.9176,23.4569 -85.3047,42.8751 -85.3048,43.1516 -10e-5,0.2765 47.9249,0.5027 106.4999,0.5027 58.5749,0 106.5,-0.3361 106.5001,-0.7469 z M 132,1129.7042 c 0,-0.4437 -19.0125,-38.846 -42.25,-85.3385 L 47.5,959.83401 47,1065.667 c -0.275,58.2082 -0.367538,106.1598 -0.205641,106.5593 C 47.164606,1173.1398 132,1130.8025 132,1129.7042 z M 924.94496,1065.25 924.88993,957.5 882,1043 c -23.58946,47.025 -42.9147,85.8365 -42.94496,86.2477 -0.0395,0.5368 83.78659,43.2816 85.69496,43.6978 0.1375,0.03 0.22523,-48.433 0.19496,-107.6955 z m 66.80504,74.8909 c 11.1375,-5.5827 20.2252,-10.4858 20.195,-10.8957 C 1011.915,1128.8354 992.58946,1090.025 969,1043 l -42.88993,-85.5 -0.055,107.7344 -0.055,107.7344 22.75,-11.3387 c 12.5125,-6.2363 31.8625,-15.9065 43,-21.4892 z M 1208.1211,1089.5 c 33.7708,-45.1 62.457,-83.4871 63.7472,-85.3047 2.0762,-2.9249 -7.4634,1.5983 -83.0113,39.3597 -46.9463,23.4654 -85.5667,42.8622 -85.823,43.1041 -0.2564,0.2418 9.1834,19.7552 20.9771,43.3631 11.7938,23.6079 21.7279,42.5982 22.0759,42.2007 0.3479,-0.3976 28.2633,-37.6229 62.0341,-82.7229 z m 284.1383,-85.889 c 1.1411,-1.589 1.5855,-2.714 0.9875,-2.5 -0.598,0.2139 -39.3162,19.514 -86.0405,42.889 l -84.9531,42.5 21.568,43.1499 21.568,43.15 62.3976,-83.15 c 34.3187,-45.7324 63.3313,-84.45 64.4725,-86.0389 z m 531.4993,8.883 -0.2587,-53.50605 -42.7485,85.50445 -42.7484,85.5045 42.7484,21.379 42.7485,21.379 0.2587,-53.3774 c 0.1423,-29.3576 0.1423,-77.4552 0,-106.8835 z m 45.6316,32.2537 c -23.4353,-46.88623 -42.7853,-85.4352 -43,-85.66437 -0.2147,-0.22916 -0.3903,47.80937 -0.3903,106.75227 l 0,107.1689 43,-21.5045 43,-21.5046 -42.6097,-85.2477 z M 330.44485,1086.7539 C 365.40018,1040.1436 394,1001.7806 394,1001.5028 c 0,-0.4133 -169.81077,84.087 -170.80451,84.9947 -0.56905,0.5198 42.29109,85.5071 42.99467,85.2541 0.38475,-0.1384 29.29936,-38.3873 64.25469,-84.9977 z m 396.40784,42.6657 c 11.72586,-23.4193 21.16845,-42.7199 20.98353,-42.8904 -1.78226,-1.6425 -170.76827,-85.2404 -170.15612,-84.1768 1.5718,2.7312 126.82387,169.5573 127.33637,169.6023 0.28406,0.025 10.11036,-19.1159 21.83622,-42.5351 z M 1320,1085.6331 c 0,-0.2006 -9.6241,-19.6081 -21.3869,-43.1279 l -21.387,-42.76326 -64.5941,86.12076 -64.5942,86.1207 85.9811,-42.9929 c 47.2896,-23.646 85.9811,-43.1569 85.9811,-43.3574 z m 218.2158,-3.4309 c -4.433,-9.8947 -40.7084,-81.2022 -41.309,-81.2022 -0.578,0 -35.2833,45.997 -112.6102,149.249 l -16.2881,21.749 85.9615,-42.983 85.9615,-42.9831 -1.7157,-3.8297 z m 263.3263,88.866 c -0.5046,-0.8165 -127.3138,-169.9997 -128.1168,-170.9278 -0.1711,-0.19776 -10.0074,19.0288 -21.8583,42.7256 l -21.5472,43.0852 85.7401,42.9587 c 47.1571,23.6272 85.8792,42.9882 86.0491,43.0243 0.17,0.036 0.05,-0.3535 -0.2669,-0.866 z m 25.3214,-42.5315 c 11.5738,-23.0798 20.9517,-42.043 20.8399,-42.1403 -0.8937,-0.7778 -170.983,-85.4382 -171.1789,-85.2027 -0.6325,0.7603 127.8661,170.8112 128.5384,170.1035 0.4165,-0.4384 10.2268,-19.6807 21.8006,-42.7605 z m -1471.86117,-0.038 C 401.75105,1105.1232 440,1085.7813 440,1085.5168 c 0,-0.7639 -41.64301,-83.9615 -42.30333,-84.5168 -0.32701,-0.275 -29.37718,37.8625 -64.55593,84.75 -35.17875,46.8875 -63.77568,85.25 -63.54873,85.25 0.22695,0 38.66159,-19.1255 85.41032,-42.5012 z m 282.80133,-43.0972 -64.20054,-85.59849 -21.24705,42.34849 c -11.68588,23.2916 -21.27158,42.6854 -21.30156,43.0972 -0.0505,0.6939 168.52605,85.5739 170.19759,85.6962 0.41366,0.03 -28.13814,-38.4643 -63.44844,-85.5434 z M 484.6141,956.28076 c -0.31439,-0.31439 -84.29244,41.19139 -85.41914,42.21803 -0.16777,0.15287 18.95723,38.80571 42.5,85.89521 l 42.80504,85.6172 0.25454,-106.6677 c 0.14,-58.6673 0.0768,-106.84549 -0.14044,-107.06274 z m 44.82462,128.65434 C 552.84742,1038.1494 572,999.55939 572,999.17959 572,998.5637 487.71647,956 486.49691,956 486.22361,956 486,1004.15 486,1063 c 0,58.85 0.19742,107 0.43872,107 0.24129,0 19.59129,-38.2792 43,-85.0649 z M 1671.8063,998.50008 C 1671.2083,997.95491 1587.0008,956 1586.5047,956 c -0.2776,0 -0.4799,48.2625 -0.4497,107.25 l 0.055,107.25 43.0013,-85.8603 c 23.6507,-47.2232 42.8634,-85.98603 42.6949,-86.13962 z m 571.8078,-42.21932 c -0.3144,-0.31439 -84.2924,41.19139 -85.4191,42.21803 -0.1678,0.15287 18.9572,38.80571 42.5,85.89521 l 42.805,85.6172 0.2545,-106.6677 c 0.14,-58.6673 0.077,-106.84549 -0.1404,-107.06274 z m -659.9716,0.0285 c -0.2016,-0.20162 -19.4973,9.20824 -42.8794,20.91079 l -42.5129,21.27738 42.6249,85.25697 42.6249,85.2569 0.2546,-106.1677 c 0.14,-58.3922 0.09,-106.33272 -0.1121,-106.53434 z m -703.6928,86.33354 c -1.74494,-1.6426 -170.91482,-85.41769 -170.2696,-84.31963 0.45094,0.76744 29.38557,39.47733 64.29917,86.02203 l 63.47927,84.6266 21.47043,-42.9528 c 11.80874,-23.6241 21.26807,-43.1433 21.02073,-43.3762 z m 176.5768,65.1096 c 23.3613,-11.6863 42.3622,-21.5615 42.2243,-21.9451 C 1098.4731,1085.0348 929.24044,958 928.48916,958 c -0.2589,0 18.76262,38.47493 42.27006,85.4998 23.50743,47.0249 42.86488,85.4999 43.01648,85.5 0.1516,10e-5 19.3895,-9.5612 42.7508,-21.2475 z m 1100.3451,-0.12 42.3716,-21.2586 -6.3716,-4.9615 c -3.5044,-2.7288 -38.7716,-29.2227 -78.3716,-58.8754 -39.6,-29.65267 -75.5047,-56.56237 -79.7881,-59.79936 l -7.7882,-5.88543 43.0393,86.07399 c 23.6716,47.3407 43.3763,86.0495 43.7881,86.0195 0.4119,-0.03 19.8161,-9.6209 43.1205,-21.3132 z M 198.43322,1042.7404 C 233.39495,996.12264 262,957.75961 262,957.48925 c 0,-0.40436 -169.831901,84.11985 -170.804514,85.00825 -0.563852,0.5151 42.287714,85.5083 42.983044,85.2541 0.37836,-0.1384 29.29297,-38.3934 64.25469,-85.0112 z m 109.53542,-0.4021 c 0.25776,-0.2432 -9.20934,-19.8044 -21.038,-43.46926 L 265.42399,955.84203 201.462,1041.0899 c -35.1791,46.8863 -64.11971,85.645 -64.31247,86.1304 -0.29699,0.7479 169.47569,-83.6141 170.81911,-84.882 z m 462.34681,-0.4915 -64.65755,-86.15324 -21.27444,42.40322 c -11.70095,23.32182 -21.29897,42.74022 -21.32895,43.15202 -0.0387,0.5313 169.65883,86.2253 171.68199,86.6962 0.13008,0.03 -28.85939,-38.7139 -64.42105,-86.0982 z M 1933.2999,1126.75 c -0.5197,-0.6875 -29.2163,-39.05 -63.7702,-85.25 -34.5539,-46.2 -63.1781,-84.39681 -63.6093,-84.88181 -0.4312,-0.48499 -10.4903,18.52668 -22.3536,42.24817 l -21.5695,43.12994 85.7513,42.9468 c 47.1633,23.6208 85.919,42.9716 86.1238,43.0019 0.2049,0.03 -0.053,-0.5075 -0.5725,-1.195 z m 25.3967,-41.1972 c 15.4852,-30.9726 20.8742,-42.6416 20,-43.3061 -0.9986,-0.7591 -167.2688,-84.01641 -169.9598,-85.10479 -0.4869,-0.19694 28.0133,38.16556 63.3338,85.24999 35.3205,47.0845 64.4914,85.5967 64.8243,85.5827 0.3328,-0.014 10.1436,-19.1037 21.8017,-42.4218 z M 1158,1057.0539 c 15.675,-7.8247 28.819,-14.5294 29.2089,-14.8992 0.3899,-0.3699 -18.6226,-39.2969 -42.25,-86.50439 L 1102,869.81845 l 0,107.59745 0,107.5975 13.75,-6.8663 c 7.5625,-3.7765 26.575,-13.2684 42.25,-21.0932 z M 1408,1042 l 85.5,-42.88993 -107.25,-0.055 c -58.9875,-0.0303 -107.25,0.16857 -107.25,0.44187 0,1.01786 42.509,85.50086 42.9945,85.44806 0.278,-0.03 38.9805,-19.3555 86.0055,-42.945 z m 748,-44 c -23.6513,-47.3 -43.4129,-86 -43.9148,-86 -0.5019,0 -19.886,9.51174 -43.0759,21.1372 -34.8733,17.48256 -41.934,21.36394 -40.8364,22.44853 1.1925,1.17834 169.9746,128.16917 170.5782,128.34227 0.1382,0.04 -19.0998,-38.628 -42.7511,-85.928 z m -1099.6085,-0.25 c -23.436,-46.8875 -42.8099,-85.46089 -43.0532,-85.71864 -0.2432,-0.25776 -19.79538,9.20483 -43.4492,21.02797 l -43.00694,21.49662 85.30894,64.13615 c 46.9199,35.2749 85.6469,64.1749 86.0601,64.2221 0.4131,0.047 -18.4238,-38.2767 -41.8597,-85.1642 z m 44.2252,-129.46664 c -0.5864,-0.5864 -85.6167,42.08282 -85.6167,42.96349 0,0.41679 19.2375,39.11925 42.75,86.00548 l 42.75,85.24767 0.2545,-106.91212 c 0.14,-58.80167 0.078,-107.0887 -0.1378,-107.30452 z M 177,998 262.5,955.11007 154.74773,955.05504 46.995454,955 68.5,998 c 11.8275,23.65 21.841023,42.9752 22.252273,42.945 C 91.163523,1040.9147 129.975,1021.5895 177,998 z m 220,0 85.5,-42.88993 -107.75227,-0.055 L 266.99545,955 288.5,998 c 11.8275,23.65 21.84102,42.9752 22.25227,42.945 C 311.16352,1040.9147 349.975,1021.5895 397,998 z m 285.75548,0.49691 c 11.68449,-23.3767 21.24452,-42.7267 21.24452,-43 0,-0.2733 -48.2625,-0.47214 -107.25,-0.44187 L 489.5,955.11007 575,998 c 47.025,23.5895 85.72747,42.9147 86.00548,42.945 0.27801,0.03 10.06551,-19.0714 21.75,-42.44809 z M 902.5,998.95692 c 11.55,-23.11038 21.15,-42.45493 21.33333,-42.9879 0.21385,-0.62165 -38.32178,-0.94929 -107.5,-0.91398 L 708.5,955.11007 794,998 c 47.025,23.5895 85.95,42.9093 86.5,42.9329 0.55,0.024 10.45,-18.8656 22,-41.97598 z m 330.0257,20.79578 c 23.3609,-11.686 42.4532,-21.47346 42.4274,-21.74996 -0.048,-0.51449 -168.7537,-127.21929 -170.2338,-127.85243 -0.4496,-0.19233 18.4409,38.17017 41.9789,85.25 23.538,47.07979 42.9216,85.59969 43.0748,85.59969 0.1531,0 19.3918,-9.5613 42.7527,-21.2473 z M 1782.5,998 1804.0045,955 1696.2523,955.055 1588.5,955.11 1674,998 c 47.025,23.5895 85.8365,42.9147 86.2477,42.945 0.4113,0.03 10.4248,-19.295 22.2523,-42.945 z m 219.9308,0 21.4612,-43 -107.696,0.055 L 1808.5,955.11 1894,998 c 47.025,23.5895 85.8307,42.9147 86.2348,42.945 0.4041,0.03 10.3923,-19.295 22.196,-42.945 z m -508.7656,-4.75 c -1.3027,-2.6125 -10.8289,-21.75331 -21.1692,-42.53514 -10.3404,-20.78183 -19.1589,-38.0065 -19.5966,-38.27704 -0.4377,-0.27054 -39.4067,18.84551 -86.5977,42.48011 l -85.8017,42.97199 107.7668,0.055 107.7669,0.055 -2.3685,-4.75 z M 1285.5451,948 c 4.5566,-25.025 8.2038,-45.58168 8.105,-45.68151 -0.099,-0.0998 -41.1231,-7.6248 -91.1649,-16.72217 -50.0419,-9.09737 -92.5602,-16.83664 -94.4852,-17.19838 -2.6506,-0.49809 17.3704,15.01449 82.5,63.92207 64.5484,48.47118 86.0948,64.15577 86.3803,62.87989 0.2091,-0.93495 4.1083,-22.1749 8.6648,-47.1999 z m 254.9534,27.7547 c 23.3775,-11.68492 42.3914,-21.53098 42.2531,-21.88014 C 1582.4702,953.16454 1413.0881,826 1412.4237,826 c -0.2322,0 18.8138,38.475 42.3243,85.5 23.5106,47.025 42.8589,85.5 42.9962,85.5 0.1373,0 19.3767,-9.56039 42.7543,-21.2453 z M 2200.9831,975.5 c 23.098,-11.55 41.9789,-21.225 41.9575,-21.5 -0.029,-0.36991 -121.5828,-91.72568 -167.5217,-125.90352 l -4.5747,-3.40353 43.1146,86.22463 c 23.713,47.42354 43.5451,86.08012 44.0712,85.90352 0.5262,-0.17661 19.8551,-9.7711 42.9531,-21.3211 z M 1450.1774,906.26904 C 1444.2057,893.34758 1409.5687,825 1408.992,825 c -0.3862,0 -29.5632,38.47337 -64.8376,85.49638 l -64.1353,85.49638 85.9501,-42.97734 85.9501,-42.97735 -1.7419,-3.76903 z m -105.673,1.42593 c 34.532,-46.09277 62.3828,-84.15589 61.8906,-84.5847 -1.2161,-1.05943 -92.3567,-17.48189 -93.0687,-16.76988 -0.5108,0.51081 -34.3227,184.83639 -34.3252,187.1239 -6e-4,0.53035 0.6106,0.30535 1.3583,-0.5 0.7477,-0.80536 29.6129,-39.17656 64.145,-85.26932 z M 177,911 C 129.975,887.41054 91.163523,868.0853 90.752273,868.05504 90.341023,868.02477 80.3275,887.35 68.5,911 L 46.995454,954 154.74773,953.94496 262.5,953.88993 177,911 z m 307,42.50309 c 0,-1.65482 -42.67502,-85.49291 -43.49452,-85.44805 C 439.95247,868.0853 401.025,887.41054 354,911 l -85.5,42.88993 107.75,0.055 c 59.2625,0.0303 107.75,-0.16857 107.75,-0.44187 z m 220,0 c 0,-1.65482 -42.67502,-85.49291 -43.49452,-85.44805 C 659.95247,868.0853 621.025,887.41054 574,911 l -85.5,42.88993 107.75,0.055 c 59.2625,0.0303 107.75,-0.16857 107.75,-0.44187 z m 220,0 c 0,-1.65482 -42.67502,-85.49291 -43.49452,-85.44805 C 879.95247,868.0853 841.025,887.41054 794,911 l -85.5,42.88993 107.75,0.055 c 59.2625,0.0303 107.75,-0.16857 107.75,-0.44187 z m 858.3226,-42.86549 -21.6743,-43.36241 -85.8242,42.92862 C 1627.6209,933.81456 1589,953.32764 1589,953.56622 1589,953.8048 1637.3743,954 1696.4985,954 l 107.4985,0 -21.6744,-43.3624 z m 219.9841,-0.0318 -21.6903,-43.39423 -86.0582,43.00064 c -47.332,23.65036 -86.2457,43.17776 -86.4749,43.39423 -0.2291,0.21648 48.2577,0.39359 107.7485,0.39359 l 108.1652,0 -21.6903,-43.39423 z M 264.96521,845.25 264.93042,737.5 221.96521,823.38907 C 198.33435,870.62806 179,909.43952 179,909.63676 c 0,0.28171 84.76834,43.09462 85.75,43.30872 0.1375,0.03 0.23435,-48.43298 0.21521,-107.69548 z m 44.86969,86.33257 42.82582,-21.41744 -42.93842,-85.83256 C 286.10618,777.12465 266.60751,738.3125 266.39194,738.08333 266.17637,737.85417 266,786.11667 266,845.33333 266,904.55 266.22705,953 266.50455,953 c 0.2775,0 19.77616,-9.63785 43.33035,-21.41743 z M 770.40976,866.72105 C 805.38439,820.09263 834,781.72961 834,781.46989 c 0,-0.40804 -169.90063,84.19468 -170.85464,85.07778 -0.19505,0.18055 9.25495,19.65177 21,43.26938 11.74505,23.6176 21.65153,42.65802 22.0144,42.31203 0.36287,-0.346 29.27537,-38.77961 64.25,-85.40803 z m 199.28707,64.77771 C 992.90508,919.94944 1011.8928,910.05 1011.8918,909.5 1011.8908,908.95 992.58946,870.025 969,823 l -42.88993,-85.5 -0.055,107.83333 c -0.0303,59.30834 0.28246,107.68278 0.69496,107.49876 0.4125,-0.18401 19.73857,-9.78401 42.94683,-21.33333 z m 623.71377,-26.48203 c 4.6509,-25.56579 8.3737,-46.5646 8.2728,-46.66402 -0.1009,-0.0994 -41.3584,-7.6476 -91.6834,-16.77374 -50.325,-9.12615 -92.85,-16.86497 -94.5,-17.1974 -1.9254,-0.3879 27.8055,22.51579 83,63.94054 47.3,35.49971 86.1023,64.23735 86.2272,63.86141 0.125,-0.37593 4.0325,-21.60099 8.6834,-47.16679 z m 340.123,-123.80162 c -0.1872,-0.19753 -169.0927,83.84785 -171.2097,85.19193 -0.097,0.0615 9.5293,19.53972 21.3914,43.28495 l 21.5674,43.17314 64.2605,-85.68256 c 35.3433,-47.12542 64.139,-85.81077 63.9904,-85.96746 z m 135.8567,43.53261 c -23.4353,-46.88625 -42.7853,-85.43522 -43,-85.66439 -0.2147,-0.22916 -0.3903,47.80936 -0.3903,106.75228 l 0,107.16894 43,-21.50456 43,-21.50456 -42.6097,-85.24771 z M 549.69532,867.5 c 34.61325,-46.2 63.28067,-84.58248 63.70538,-85.29439 0.61233,-1.0264 -168.70765,82.89292 -170.33634,84.42306 -0.72331,0.67954 41.9752,85.52792 42.86903,85.18722 C 486.3892,951.64215 515.08207,913.7 549.69532,867.5 z m 110.27332,-1.16167 c 0.25776,-0.24326 -9.21235,-19.81046 -21.04469,-43.48267 l -21.51333,-43.04039 -63.95531,85.24193 c -35.17542,46.88305 -64.11302,85.64775 -64.30578,86.14376 -0.29521,0.75967 169.44759,-83.56825 170.81911,-84.86263 z m 1078.48186,-43.43725 -21.5522,-43.09526 -58.7609,78.34709 c -32.3185,43.0909 -61.3494,81.84946 -64.513,86.13015 l -5.752,7.78305 86.0652,-43.03488 86.0651,-43.03489 -21.5522,-43.09526 z m 220.0107,0.0212 -21.5416,-43.07403 -63.5736,84.82586 c -34.9655,46.65422 -64.0673,85.43633 -64.6708,86.18247 -0.6034,0.74614 37.6985,-18.04218 85.1152,-41.75183 l 86.2123,-43.10845 -21.5415,-43.07402 z M 795.00233,908.49884 c 46.74872,-23.37564 84.97314,-42.83814 84.94316,-43.25 -0.03,-0.41186 -9.61101,-19.7963 -21.29117,-43.07653 L 837.41764,779.84463 773.2158,865.42231 C 737.90479,912.49004 709.23686,951 709.5093,951 c 0.27245,0 38.7443,-19.12552 85.49303,-42.50116 z m 129.61175,-172.2181 c -0.35019,-0.35018 -84.41194,41.27851 -85.58321,42.38214 -0.25801,0.24312 18.86699,39.12269 42.5,86.39904 l 42.96913,85.95699 0.25452,-107.1716 c 0.13999,-58.94438 0.0768,-107.34933 -0.14044,-107.56657 z M 2199.4127,865.5548 c -23.3449,-46.70635 -42.6851,-85.16053 -42.9783,-85.45375 -0.2932,-0.29322 -19.8142,9.09906 -43.3799,20.87172 l -42.8467,21.40484 85.6394,64.23454 c 47.1017,35.329 85.723,64.15101 85.8251,64.04892 0.1021,-0.1021 -18.9147,-38.39992 -42.2596,-85.10627 z m -547.9553,-0.98107 c 44.8607,-59.84305 63.2769,-85.13791 62.3533,-85.64287 -2.0321,-1.11103 -91.8744,-17.20051 -92.508,-16.56688 -0.5023,0.50228 -34.3027,184.81156 -34.3027,187.04818 0,1.25376 -6.0534,9.22125 64.4574,-84.83843 z m 372.1955,-128.25418 c -0.2699,-0.26993 -83.9767,41.08828 -85.4579,42.22343 -0.1678,0.12857 18.9572,38.76152 42.5,85.851 l 42.805,85.61723 0.2545,-106.66773 c 0.14,-58.66725 0.094,-106.82802 -0.1016,-107.02393 z m 219.9612,-0.0388 c -0.3144,-0.31439 -84.2924,41.19139 -85.4191,42.21803 -0.1678,0.15287 18.9572,38.80571 42.5,85.89519 l 42.805,85.61723 0.2545,-106.66773 c 0.14,-58.66725 0.077,-106.84547 -0.1404,-107.06272 z M 67.939598,908.25 C 79.141794,885.8375 98.270431,847.475 110.44768,823 L 132.58813,778.5 89.80305,757.26359 47.017966,736.02717 46.758983,842.51364 c -0.142441,58.56757 -0.01779,106.48645 0.277002,106.48642 0.294791,-3e-5 9.701417,-18.33756 20.903613,-40.75006 z M 220.28615,823.43161 c 23.52938,-47.06262 42.14623,-85.20012 41.37079,-84.75 -2.76093,1.60261 -169.585935,126.82764 -169.621109,127.32389 -0.03229,0.45557 83.767569,42.80406 84.966899,42.93825 0.2765,0.0309 19.75403,-38.44953 43.28342,-85.51214 z m 177.57141,64.20776 42.35756,-21.25161 -85.35756,-64.06328 c -46.94666,-35.2348 -85.49541,-63.9467 -85.66389,-63.80421 -0.55656,0.47068 84.7926,170.4809 85.55749,170.42522 0.41186,-0.03 19.80974,-9.61773 43.1064,-21.30612 z m 659.21364,-0.0342 42.5713,-21.39432 -84.4481,-63.35542 c -46.44646,-34.84547 -85.08105,-63.72369 -85.85467,-64.1738 -0.77361,-0.45012 17.84474,37.68738 41.37412,84.75 23.52939,47.06261 43.00695,85.56827 43.28345,85.56813 0.2765,-1.5e-4 19.6598,-9.62771 43.0739,-21.39459 z m 235.5171,9.02192 c -0.7239,-2.40512 -14.3148,-48.98887 -30.2022,-103.51944 -15.8874,-54.53058 -29.004,-98.57526 -29.1481,-97.87707 -1.5547,7.5345 -34.1524,188.16311 -33.9762,188.26752 0.131,0.0777 21.3882,4.00295 47.2382,8.72288 25.85,4.71993 47.091,8.62609 47.2022,8.68037 0.1112,0.0543 -0.3901,-1.86915 -1.1139,-4.27426 z m 19.3593,-93.58 c 9.3389,-51.39911 16.7363,-93.69911 16.4385,-94 -0.2977,-0.30089 -21.5749,-4.37513 -47.2825,-9.05387 l -46.7411,-8.50681 8.1388,28.00681 c 33.2347,114.36536 52.0332,178.32645 52.2326,177.7192 0.1286,-0.39182 7.8748,-42.76622 17.2137,-94.16533 z M 1214.6888,788.75 c 9.4216,-51.8375 17.0585,-94.31805 16.9707,-94.40121 -0.3529,-0.3345 -128.5778,171.06625 -128.2328,171.41129 0.39,0.38993 89.9506,16.96703 92.6025,17.14011 1.2504,0.0816 4.6529,-17.08621 18.6596,-94.15019 z m -729.19189,55.00548 c 23.3767,-11.68449 42.47832,-21.69699 42.44805,-22.25 C 527.9147,820.95247 508.58946,782.025 485,735 l -42.88993,-85.5 -0.055,107.75 c -0.0303,59.2625 0.16857,107.75 0.44187,107.75 0.2733,0 19.6233,-9.56003 43,-21.24452 z m 263.27649,-21.7155 85.7266,-42.96002 -107.83333,-0.04 c -59.30834,-0.022 -107.68334,0.31509 -107.5,0.74906 2.72781,6.45708 42.5493,85.13104 43.10673,85.16451 0.42536,0.0256 39.35036,-19.28556 86.5,-42.91357 z M 1165.671,779.5 c 34.6119,-46.2 63.2842,-84.58248 63.7163,-85.29439 0.6324,-1.04197 -168.7262,82.91832 -170.3533,84.45345 -0.2564,0.24182 9.1834,19.75525 20.9771,43.36317 11.7938,23.60792 21.7326,42.5982 22.0862,42.20063 C 1102.451,863.82529 1131.0592,825.7 1165.671,779.5 z M 1848,822 l 85.5,-42.88993 -107.25,-0.055 c -58.9875,-0.0303 -107.25,0.2278 -107.25,0.57349 0,1.15468 42.4018,85.3723 42.955,85.31643 0.2997,-0.0303 39.02,-19.3555 86.045,-42.94496 z M 182.3754,796.06394 264.2464,734.62788 221.8732,713.36845 C 198.56794,701.67576 179.16302,692.08449 178.75116,692.05451 178.09993,692.0071 93,861.16207 93,862.50395 c 0,0.66187 -4.916072,4.31639 89.3754,-66.44001 z M 396.39147,777.75 c -23.43597,-46.8875 -42.77603,-85.42703 -42.9779,-85.6434 -0.20187,-0.21638 -19.71172,9.24716 -43.3552,21.03006 l -42.98816,21.42347 85.63432,64.21994 C 399.80341,834.10103 438.48814,863 438.67059,863 c 0.18246,0 -18.84315,-38.3625 -42.27912,-85.25 z M 440.6626,648.32927 c -0.19054,-0.19054 -19.20507,9.10133 -42.25452,20.64861 -23.04944,11.54728 -42.35808,21.15697 -42.90808,21.35487 -0.55,0.19789 18.35,39.11439 42,86.48111 l 43,86.1213 0.25452,-107.12972 c 0.13999,-58.92135 0.0986,-107.28562 -0.0919,-107.47617 z m 615.1964,128.98906 c -23.2857,-46.65008 -42.4784,-85.02922 -42.6503,-85.28697 -0.172,-0.25776 -19.68494,9.21441 -43.36218,21.04925 l -43.04952,21.5179 85.3515,64.06013 c 46.9433,35.23307 85.5082,63.92915 85.6998,63.76908 0.1916,-0.16008 -18.7036,-38.4593 -41.9893,-85.10939 z m 544.8005,76.48753 c -2.2423,-8.57439 -59.106,-202.69266 -59.3145,-202.48424 -0.4321,0.43217 -34.4445,187.91914 -34.132,188.14636 0.6846,0.4977 88.5677,16.33846 91.1536,16.43026 2.4773,0.0879 2.7887,-0.19625 2.2929,-2.09238 z m 19.2946,-94.7763 c 9.3528,-51.40874 16.6767,-93.74673 16.2755,-94.08441 -0.9607,-0.80848 -91.9469,-17.2242 -93.029,-16.78429 -0.4588,0.18653 1.8058,9.33914 5.0324,20.33914 11.4178,38.92397 22.7255,77.64308 38.3645,131.36451 8.7044,29.90047 15.9444,53.97547 16.0889,53.5 0.1445,-0.47548 7.9149,-42.92621 17.2677,-94.33495 z M 1520.1733,758 c 17.7177,-97.20224 19.6734,-108.18007 19.1855,-107.69215 -1.9882,1.98825 -128.2388,171.14551 -127.95,171.4343 0.6652,0.66521 89.9857,17.06313 92.0912,16.90657 1.8496,-0.13754 3.1033,-6.20179 16.6733,-80.64872 z m -946.32485,41.64393 42.34844,-21.24705 -85.59564,-64.19844 C 483.52365,678.8893 444.77969,650 444.50358,650 c -0.27612,0 18.73389,38.475 42.24447,85.5 23.51057,47.025 43.19772,85.47547 43.74922,85.44549 0.5515,-0.03 20.05953,-9.61568 43.35118,-21.30156 z M 1407.7491,819.75 c -0.2557,-0.6875 -13.6323,-46.475 -29.7258,-101.75 -16.0935,-55.275 -29.554,-100.82415 -29.9124,-101.22033 -0.6491,-0.71762 -35.1096,186.35477 -34.4702,187.12537 0.4219,0.5085 89.0074,16.81754 92.2163,16.97748 1.499,0.0747 2.1878,-0.33752 1.8921,-1.13252 z M 2156,778 l 85.5,-42.88993 -107.7523,-0.055 L 2025.9955,735 2047.5,778 c 11.8275,23.65 21.841,42.97523 22.2523,42.94496 C 2070.1635,820.9147 2108.975,801.58946 2156,778 z m -679.221,-46.69703 63.0483,-84.19703 -5.1637,-1.01287 c -4.641,-0.91036 -35.2238,-6.50719 -74.5077,-13.63534 -7.8893,-1.43153 -14.5916,-2.35537 -14.894,-2.05299 -0.3024,0.30238 -2.0321,8.77252 -3.8439,18.82252 -1.8117,10.05001 -9.397,51.77634 -16.856,92.72519 -7.4591,40.94885 -13.562,74.90778 -13.562,75.46429 0,0.55651 0.6144,0.3529 1.3653,-0.45245 0.751,-0.80536 29.7371,-39.35295 64.4137,-85.66132 z M 1426.3771,723.5 c 9.164,-50.6 16.653,-92.49655 16.6423,-93.10345 -0.011,-0.6069 -3.0569,-1.62061 -6.7694,-2.2527 -3.7125,-0.63209 -24.75,-4.46407 -46.75,-8.51551 -22,-4.05144 -40.1352,-7.25255 -40.3004,-7.11358 -0.1652,0.13897 1.9851,8.0675 4.7785,17.61896 2.7933,9.55145 11.641,39.86628 19.6614,67.36628 8.0205,27.5 17.4716,59.9 21.0025,72 3.5309,12.1 8.0674,27.74101 10.0811,34.75779 2.0137,7.01678 3.9608,12.41678 4.3268,12 0.3659,-0.41678 8.1632,-42.15779 17.3272,-92.75779 z M 836,777.50309 c 0,-1.65482 -42.67502,-85.49291 -43.49452,-85.44805 C 791.95247,692.0853 753.025,711.41054 706,735 l -85.5,42.88993 107.75,0.055 C 787.5125,777.97523 836,777.77639 836,777.50309 z M 1914.5,735 c -11.8275,-23.65 -21.841,-42.97523 -22.2523,-42.94496 C 1891.8365,692.0853 1853.025,711.41054 1806,735 l -85.5,42.88993 107.7523,0.055 L 1936.0045,778 1914.5,735 z m -1738,-43.92972 43,-85.92773 -5.71833,4.17873 C 195.21789,622.88692 48.05701,733.58731 48.031199,734.0055 48.003063,734.46138 131.80933,776.81117 133,776.94276 c 0.275,0.0304 19.85,-38.61222 43.5,-85.87248 z m 449.49307,36.56013 c 4.4556,-24.67827 7.9674,-44.99086 7.80401,-45.13909 C 633.63369,682.34309 610.775,678.0848 583,673.02845 555.225,667.9721 512.93207,660.27219 489.0157,655.91754 465.09934,651.56289 445.35007,648 445.12844,648 c -0.22163,0 38.2463,28.97758 85.4843,64.39462 77.30494,57.95996 85.95681,64.18031 86.58325,62.25 0.3828,-1.17954 4.34149,-22.33593 8.79708,-47.01421 z m 255.54821,28.07558 42.67575,-21.29401 -85.60571,-64.20599 C 791.52818,634.8927 752.77969,606 752.50358,606 c -0.27612,0 18.73389,38.475 42.24447,85.5 23.51057,47.025 43.05497,85.5 43.43199,85.5 0.37702,0 19.88958,-9.5823 43.36124,-21.29401 z M 1143.551,734.25 l 85.5914,-42.75 -106.7333,-0.25454 c -58.7033,-0.14 -106.9099,-0.078 -107.1257,0.13784 -0.3595,0.35943 41.9033,85.6167 42.4409,85.6167 0.1293,0 38.7513,-19.2375 85.8267,-42.75 z m 571.9577,41.5 c -0.2357,-0.6875 -4.9914,-17 -10.5684,-36.25 -5.5769,-19.25 -12.9753,-44.675 -16.4408,-56.5 -9.4682,-32.3078 -24.1866,-82.88451 -28.2281,-97 -1.9684,-6.875 -3.8623,-12.83007 -4.2086,-13.23349 -0.6171,-0.71874 -35.0593,186.36666 -34.4474,187.11357 0.3977,0.48536 89.1366,16.88175 92.1032,17.01801 1.3661,0.0627 2.054,-0.37844 1.7901,-1.14809 z m 264.9882,-19.99452 c 23.3767,-11.68449 42.4771,-21.47199 42.4453,-21.75 -0.045,-0.3907 -146.5825,-110.41664 -167.5093,-125.77204 -4.4506,-3.26571 -4.4406,-3.24416 38.5588,82.75 23.6558,47.30911 43.2337,86.01656 43.5064,86.01656 0.2726,0 19.6221,-9.56003 42.9988,-21.24452 z M 791.96864,690.33833 c 0.25776,-0.24326 -9.21086,-19.80748 -21.04137,-43.47604 l -21.51003,-43.03376 -63.95862,85.22664 c -35.17724,46.87466 -64.11633,85.63637 -64.30909,86.13714 -0.29445,0.76497 169.43501,-83.54773 170.81911,-84.85398 z M 1854.5,708.78983 c 11.55,-5.76185 24.7113,-12.35111 29.2474,-14.64279 l 8.2473,-4.1667 -21.5476,-43.08612 -21.5476,-43.08612 -62.1128,82.84595 c -34.162,45.56527 -63.2517,84.35288 -64.6437,86.19468 -2.2436,2.96849 3.935,0.11647 54.413,-25.11704 31.3192,-15.65617 66.394,-33.18001 77.944,-38.94186 z M 684.38837,687.93156 c 56.88999,-75.81999 63.13528,-84.50429 61.23156,-85.14461 -3.12942,-1.0526 -91.68658,-17.05588 -92.08612,-16.641 -0.18753,0.19473 -7.81153,41.52905 -16.94223,91.85405 -9.1307,50.325 -16.85593,92.625 -17.16719,94 -0.4064,1.79531 -0.2589,2.19883 0.52328,1.43156 0.59906,-0.58764 29.59738,-39.06264 64.4407,-85.5 z m 1050.15723,-9.73733 c 9.1719,-50.76818 16.5138,-92.45197 16.3153,-92.63065 -0.8357,-0.75226 -93.3848,-17.11688 -93.6314,-16.55598 -0.1488,0.33844 1.9154,8.01269 4.587,17.05388 2.6716,9.04118 16.0683,54.99784 29.7705,102.12591 15.1433,52.08472 25.1815,85.02567 25.5977,84 0.3767,-0.92807 8.1891,-43.22499 17.3609,-93.99316 z m 48.9086,10.44933 c 35.0164,-46.67103 63.41,-85.11264 63.0969,-85.4258 -0.7473,-0.74727 -91.7716,-17.29315 -92.9781,-16.90103 -0.7754,0.252 -34.4895,182.32604 -34.5522,186.59994 -0.011,0.77916 0.1565,1.22916 0.3732,1 0.2167,-0.22917 29.0438,-38.60207 64.0602,-85.27311 z M 2156,691 c -47.025,-23.58946 -85.8365,-42.9147 -86.2477,-42.94496 C 2069.341,648.02477 2059.3275,667.35 2047.5,691 l -21.5045,43 107.7522,-0.055 L 2241.5,733.89 2156,691 z m -1891.05504,-65.25 -0.055,-107.25 -43.00129,85.86034 c -23.65071,47.22318 -42.86344,85.98598 -42.69496,86.13955 0.7075,0.64488 84.37189,42.39588 85.05633,42.44561 0.4125,0.03 0.72523,-48.208 0.69496,-107.1955 z m 44.55195,86.00548 c 23.3767,-11.68449 42.47832,-21.69699 42.44805,-22.25 C 351.9147,688.95247 332.58946,650.025 309,603 l -42.88993,-85.5 -0.055,107.75 c -0.0303,59.2625 0.16857,107.75 0.44187,107.75 0.2733,0 19.6233,-9.56003 43,-21.24452 z m 624.49484,-28.12853 c 4.45252,-24.68017 7.96336,-44.99262 7.80187,-45.13877 -0.50808,-0.4598 -187.27733,-34.28051 -187.6136,-33.9736 -0.17598,0.16062 38.07402,29.0845 85,64.27529 76.70249,57.52081 85.39049,63.76745 86.01811,61.84669 0.38397,-1.17511 4.34109,-22.32943 8.79362,-47.00961 z M 2243.945,625.75 2243.8899,518.5 2201.0404,604 c -23.5672,47.025 -42.555,85.81136 -42.195,86.19192 0.5816,0.61478 84.2599,42.80808 84.8975,42.80808 0.1414,0 0.2323,-48.2625 0.2021,-107.25 z m -1229.7142,63.64336 c 46.898,-23.43366 85.4653,-42.79229 85.7051,-43.0192 0.2397,-0.2269 -9.2793,-19.78198 -21.1534,-43.45573 l -21.5892,-43.04319 -64.55958,86.06238 C 957.12596,693.27193 928.27382,732 928.51785,732 c 0.24403,0 38.81485,-19.17299 85.71295,-42.60664 z M 1980,646 c -23.6513,-47.3 -43.3015,-86 -43.6671,-86 -0.3656,0 -19.7079,9.54718 -42.9829,21.21595 -28.9784,14.52817 -41.9977,21.54191 -41.3015,22.25 0.9471,0.96349 170.1518,128.29551 170.7026,128.45935 C 2022.8893,731.96639 2003.6513,693.3 1980,646 z M 89.522229,645.10804 C 112.885,598.25858 132,559.60361 132,559.20812 c 0,-0.39549 -19.12099,-10.27641 -42.491095,-21.9576 L 47.01781,516.01199 46.758905,623.42278 c -0.142398,59.07593 -0.136402,107.28823 0.01332,107.13844 0.149726,-0.14979 19.387226,-38.60372 42.75,-85.45318 z M 177.84845,581.35607 C 154.5568,569.67019 135.16302,560.08449 134.75116,560.05451 134.10124,560.0072 49,729.16064 49,730.49978 c 0,0.27743 38.5193,-28.38582 85.59845,-63.69612 l 85.59844,-64.20054 -42.34844,-21.24705 z m 814.96348,61.98614 c 56.04427,-74.79595 62.81587,-84.21842 60.87357,-84.70292 -1.202,-0.29983 -12.5355,-2.38335 -25.1855,-4.63005 -12.65,-2.24671 -32.82574,-5.90465 -44.83498,-8.12877 -12.00924,-2.22411 -21.99,-3.88882 -22.17948,-3.69934 -0.18948,0.18948 -7.81148,41.51374 -16.93779,91.83169 -9.1263,50.31795 -16.83765,92.61218 -17.13632,93.98718 -0.47771,2.19924 -0.36953,2.31954 0.89922,1 0.79324,-0.825 29.81882,-39.371 64.50128,-85.65779 z M 2023.7545,516.42968 c -0.2089,-0.20199 -49.8322,24.40183 -78.4989,38.92071 l -7.2443,3.66907 42.7443,85.49588 42.7444,85.49587 0.2545,-106.66773 c 0.14,-58.66725 0.14,-106.77846 0,-106.9138 z M 2069.0909,644 c 23.2452,-46.475 42.1922,-84.725 42.1045,-85 -0.1435,-0.44992 -30.6749,-15.89382 -70.4454,-35.63382 l -14.75,-7.32114 0,106.64415 c 0,58.65428 0.1861,106.45664 0.4135,106.22748 0.2274,-0.22917 19.4322,-38.44167 42.6774,-84.91667 z m -724.676,-19.25672 c 19.3779,-106.85322 19.382,-106.87577 19.0566,-106.53471 -2.0786,2.17862 -128.2468,171.34948 -127.9868,171.60942 0.4396,0.43968 89.1897,16.88607 92.0153,17.05148 1.8723,0.10961 2.9525,-5.13538 16.9149,-82.12619 z M 1210.5,647 c -11.8275,-23.65 -21.841,-42.97523 -22.2523,-42.94496 C 1187.8365,604.0853 1149.025,623.41054 1102,647 l -85.5,42.88993 107.7523,0.055 L 1232.0045,690 1210.5,647 z m -812.65155,20.64393 42.34844,-21.24705 -85.59564,-64.19844 C 307.52365,546.8893 268.79019,518 268.5269,518 c -0.26329,0 18.74795,38.47103 42.24719,85.49117 23.49925,47.02014 43.17591,85.47061 43.72591,85.44549 0.55,-0.0251 20.0568,-9.60685 43.34845,-21.29273 z M 1297.671,603.5 c 34.6119,-46.2 63.2842,-84.58248 63.7163,-85.29439 0.6324,-1.04197 -168.7262,82.91832 -170.3533,84.45345 -0.2564,0.24182 9.1834,19.75525 20.9771,43.36317 11.7938,23.60792 21.7326,42.5982 22.0862,42.20063 0.3537,-0.39757 28.9619,-38.52286 63.5737,-84.72286 z m 900.2971,2.74906 c 45.7528,-91.29916 44.6009,-88.94319 42.7868,-87.51218 -0.6902,0.54448 -38.3799,28.77232 -83.7549,62.72853 -45.375,33.95622 -83.315,62.52019 -84.3111,63.47549 -1.7303,1.6594 0.055,2.67534 40,22.76292 22.9961,11.56431 42.2611,21.08638 42.8111,21.16016 0.55,0.0738 19.6606,-37.10293 42.4681,-82.61492 z m -1545.4115,-24.603 c 9.14953,-50.51967 16.25479,-92.18266 15.78946,-92.58441 -1.02945,-0.88881 -92.29852,-17.44253 -92.89281,-16.84823 -0.43812,0.43812 0.28755,2.99765 19.21868,67.78658 16.66184,57.02263 26.4107,90.50197 33.5524,115.22506 4.06848,14.08423 6.52557,21.11835 6.98621,20 0.3908,-0.94878 8.19652,-43.05933 17.34606,-93.579 z M 538.00719,662.25 c 0.004,-0.4125 7.61613,-42.6 16.91593,-93.75 9.2998,-51.15 16.79043,-93.11863 16.64585,-93.26363 -0.14459,-0.14499 -29.12777,38.21751 -64.40707,85.25 -35.2793,47.0325 -64.03567,85.52481 -63.90304,85.53848 0.13263,0.0137 20.71614,3.79842 45.74114,8.41057 47.9145,8.83071 48.99579,9.00313 49.00719,7.81458 z M 1652.5811,579.5 c 18.697,-102.73843 19.2134,-105.62785 18.8065,-105.22093 -0.182,0.182 -29.1678,38.77508 -64.4129,85.7624 -53.5603,71.40457 -63.7858,85.54622 -62.2783,86.13027 0.992,0.38434 18.2286,3.65756 38.3036,7.27383 20.075,3.61627 39.65,7.21109 43.5,7.9885 3.85,0.77741 7.8947,1.33527 8.9882,1.2397 1.8325,-0.16017 3.1707,-6.67189 17.0929,-83.17377 z M 506.87708,558.27839 C 541.59469,511.9565 570,473.81848 570,473.52722 c 0,-0.48207 -169.88391,84.11093 -170.96604,85.13184 -0.25632,0.24182 9.18554,19.75954 20.9819,43.3727 16.43673,32.90192 21.7155,42.64507 22.59312,41.70063 0.62985,-0.67782 29.55049,-39.13212 64.2681,-85.454 z m 681.83542,43.76223 85.7875,-42.95938 -107.75,-0.0406 c -59.2625,-0.0223 -107.75,0.18299 -107.75,0.45629 0,1.25461 42.573,85.50309 43.207,85.50309 0.3949,0 39.3224,-19.33172 86.5055,-42.95938 z m 347.245,41.67758 C 1525.1656,635.19544 1366.8884,517 1366.2673,517 c -0.8986,0 -17.97,92.63366 -17.21,93.38645 0.3911,0.38747 184.9219,34.34274 187.4427,34.49109 0.55,0.0324 0.3059,-0.48934 -0.5425,-1.15934 z M 1605.6433,559.5 c 34.6145,-46.2 63.2941,-84.58247 63.7325,-85.29437 0.4384,-0.71191 -37.9116,18.06098 -85.2221,41.71753 l -86.0192,43.01189 21.59,43.07518 c 11.8746,23.69135 21.9036,42.71846 22.2868,42.28247 0.3831,-0.43598 29.0175,-38.5927 63.632,-84.7927 z M 1496,558 c -23.6513,-47.3 -43.3393,-85.97547 -43.7511,-85.94549 -0.4119,0.03 -19.8447,9.63519 -43.1841,21.34492 l -42.4351,21.29041 85.9351,64.57689 c 47.2644,35.51729 86.0482,64.61208 86.1863,64.65508 C 1538.8893,643.96482 1519.6513,605.3 1496,558 z m 652.5,27.90602 c 27.5,-20.62158 60.0953,-45.08156 72.4341,-54.35552 l 22.434,-16.86173 -42.434,-21.28988 c -23.3388,-11.70943 -42.7711,-21.3144 -43.183,-21.34438 -0.4118,-0.03 -20.1098,38.66534 -43.7732,85.98961 l -43.0243,86.04412 13.7732,-10.34422 C 2092.3021,628.0547 2121,606.5276 2148.5,585.90602 z M 396.39147,557.75 C 372.9555,510.8625 353.65769,472.36522 353.50746,472.20049 353.00039,471.64448 268.5,514.20056 268.5,515.01194 c 0,0.83159 168.41657,127.71631 169.75116,127.89019 0.41314,0.0538 -18.42372,-38.26463 -41.85969,-85.15213 z m 545.22535,77.69384 C 941.06508,634.00602 934.87231,612.92416 922.98026,572 891.26841,462.86982 882.15099,431.81765 881.68304,431.34971 c -0.14135,-0.14135 -7.81173,41.45964 -17.04528,92.44664 -9.23356,50.98701 -16.97967,93.3964 -17.21359,94.2431 -0.35541,1.28651 7.25604,2.94959 46.32527,10.12195 25.71281,4.72038 47.1362,8.64013 47.60755,8.71055 0.47134,0.0704 0.58827,-0.57222 0.25983,-1.42811 z m 18.93932,-97.79098 c 9.15726,-50.51593 16.26579,-92.17877 15.79672,-92.58409 -1.12785,-0.97456 -92.36694,-17.38803 -93.02095,-16.73402 -0.27842,0.27842 12.90768,46.48123 29.30243,102.6729 19.66647,67.40517 30.05764,101.54159 30.54044,100.32951 0.40248,-1.01044 8.22409,-43.16837 17.38136,-93.6843 z M 846,618.12789 c 0,-0.78557 32.17565,-178.43807 33.62012,-185.62789 0.38718,-1.92719 -22.47416,27.75269 -63.92907,82.9963 -35.49248,47.29797 -64.35912,86.16897 -64.14808,86.38 0.48826,0.48826 89.18761,16.84683 92.20703,17.00548 1.2375,0.065 2.25,-0.27423 2.25,-0.75389 z M 242.83504,558.41663 c 11.73428,-23.41893 21.14473,-42.77019 20.91213,-43.0028 -0.23261,-0.2326 -48.51296,-0.30837 -107.28968,-0.16837 L 49.59074,515.5 l 85.45463,42.72022 c 47.00005,23.49612 85.67963,42.73284 85.95463,42.74825 0.275,0.0154 10.10077,-19.13291 21.83504,-42.55184 z M 747.77237,599.25 c -0.25349,-0.9625 -13.68948,-47.10691 -29.85777,-102.54313 -19.22894,-65.9303 -29.65094,-100.17292 -30.13139,-99 -1.11205,2.71485 -33.90511,184.42744 -33.50151,185.63824 0.31318,0.93952 85.7428,17.31697 91.58493,17.55747 1.7851,0.0735 2.25338,-0.33259 1.90574,-1.65258 z M 1844.45,600.0966 c -0.5225,-0.49687 -39.1022,-29.52029 -85.7327,-64.49649 -50.1615,-37.62468 -84.9558,-63.08408 -85.2065,-62.3466 -0.2331,0.68557 -4.1748,21.98622 -8.7594,47.33477 l -8.3356,46.08829 93.5421,17.08058 c 51.4481,9.39431 93.9696,17.11709 94.4921,17.16171 0.6,0.0512 0.6,-0.25169 0,-0.82226 z m 48.9403,-127.34888 c -23.4353,-46.88625 -42.7853,-85.43522 -43,-85.66439 -0.2147,-0.22916 -0.3903,47.80936 -0.3903,106.75228 l 0,107.16894 43,-21.50456 43,-21.50456 -42.6097,-85.24771 z M 1804,514 c -23.6513,-47.3 -43.3393,-85.97547 -43.7511,-85.94549 -0.4119,0.03 -19.8498,9.63774 -43.1954,21.35059 l -42.4465,21.29608 85.9465,64.57477 c 47.2706,35.51612 86.0595,64.60835 86.1976,64.64941 C 1846.8893,599.96641 1827.6513,561.3 1804,514 z M 766.47495,504.5 c 9.06724,-50.05 16.69929,-91.9 16.96011,-93 0.44829,-1.89058 -2.10823,-2.47015 -46.73041,-10.59378 -25.96256,-4.72658 -47.29159,-8.53964 -47.39785,-8.47346 -0.18081,0.11259 57.92024,199.72259 59.39844,204.06724 0.49328,1.44984 0.76345,1.58738 0.98215,0.5 0.16592,-0.825 7.72032,-42.45 16.78756,-92.5 z m 49.89926,7.43006 c 56.54593,-75.38053 63.1088,-84.50422 61.23006,-85.12196 -3.13024,-1.02925 -91.75556,-16.99014 -92.15003,-16.59567 -0.18627,0.18626 -7.80004,41.50217 -16.91949,91.81312 C 759.4153,552.3365 751.70746,594.625 751.40621,596 c -0.39376,1.79722 -0.24112,2.19923 0.54296,1.43006 0.59989,-0.58846 29.59116,-39.06346 64.42504,-85.5 z M 1848,490.99773 l 0,-107.00228 -42.9985,21.50379 -42.9984,21.50378 42.7457,85.49849 C 1828.259,559.52568 1847.6083,598 1847.7473,598 1847.8863,598 1848,549.84898 1848,490.99773 z m -573.791,63.22487 c -3.4188,-7.55668 -40.3342,-80.7453 -41.1277,-81.54004 -0.4489,-0.44959 -39.4633,18.53814 -86.6987,42.19496 l -85.8826,43.0124 107.709,0.055 107.709,0.055 -1.709,-3.7774 z M 485,514 l 85.5,-42.88993 -107.75,-0.055 c -59.2625,-0.0303 -107.75,0.16857 -107.75,0.44187 0,1.65482 42.67502,85.49291 43.49452,85.44805 C 399.04753,556.9147 437.975,537.58946 485,514 z m 570.6151,41.25 c -0.2859,-0.9625 -2.3378,-8.05 -4.5598,-15.75 -29.6605,-102.78362 -54.90451,-187.53396 -55.38569,-185.94347 -1.34556,4.44756 -33.74628,184.71346 -33.39145,185.77796 0.34169,1.02506 85.22514,17.32014 91.53924,17.57278 1.7578,0.0703 2.1919,-0.32981 1.7977,-1.65727 z m 265.7998,-19.51551 42.5067,-21.26551 -84.6013,-63.48449 c -46.5306,-34.91647 -85.228,-63.85277 -85.9942,-64.30288 -0.7661,-0.45012 17.8584,37.68738 41.3878,84.75 23.5293,47.06261 43.0987,85.56839 43.4874,85.56839 0.3888,0 19.8349,-9.56948 43.2136,-21.26551 z M 1583.551,514.25 l 85.6021,-42.75 -106.7387,-0.25454 c -58.7063,-0.14 -106.9557,-0.0374 -107.2211,0.2279 -0.4952,0.49524 41.604,85.52664 42.3444,85.52664 0.2262,0 38.9321,-19.2375 86.0133,-42.75 z m 397.3465,21.36941 42.3975,-21.27158 -5.3975,-4.1663 c -18.2663,-14.09969 -165.4256,-123.98676 -165.6889,-123.72349 -0.548,0.54801 84.7486,170.54525 85.5426,170.48745 0.4118,-0.03 19.8277,-9.62671 43.1463,-21.32608 z m 174.306,-63.85849 c 23.4584,-46.88149 42.5451,-85.34565 42.4148,-85.47591 -0.3299,-0.32993 -170.5075,127.0977 -170.5686,127.72049 -0.045,0.46119 83.761,42.80828 84.9762,42.93825 0.2893,0.0309 19.7192,-38.30134 43.1776,-85.18283 z m -1008.9512,41.62939 c 46.8862,-23.43534 85.3891,-42.73921 85.5619,-42.8975 0.1728,-0.15829 -9.3455,-19.70815 -21.1518,-43.44413 l -21.4659,-43.15633 -64.5692,86.05383 C 1089.1143,517.27578 1060.2711,556 1060.5314,556 c 0.2603,0 38.8347,-19.17436 85.7209,-42.60969 z m -21.423,-46.07122 c 60.7968,-81.13868 62.9787,-84.20055 60.3735,-84.72446 -1.4865,-0.29895 -12.6028,-2.33792 -24.7028,-4.53104 -12.1,-2.19312 -32.0711,-5.82097 -44.3803,-8.06188 -12.3092,-2.24091 -22.5604,-3.89432 -22.7805,-3.67425 -0.4004,0.40043 -1.6859,7.38216 -22.3096,121.17254 -6.0807,33.55 -11.3201,62.35 -11.6432,64 -0.5195,2.65365 -0.4168,2.82682 0.8896,1.5 0.8123,-0.825 29.8613,-39.38141 64.5533,-85.68091 z M 1074.3001,460.75 c 9.2086,-50.7375 16.7333,-92.94889 16.7214,-93.80308 -0.017,-1.24696 -5.8854,-2.60687 -29.7715,-6.89944 -16.3625,-2.9405 -37.4,-6.79049 -46.75,-8.55553 -9.35,-1.76504 -17.11382,-3.12147 -17.25294,-3.01429 -0.44598,0.34362 59.23224,204.50309 59.78154,204.5129 0.2907,0.005 8.0629,-41.50306 17.2715,-92.24056 z M 264,513.49535 c 0,-0.49615 -41.95491,-84.70362 -42.50008,-85.30168 -0.15359,-0.16848 -38.9164,19.04425 -86.13958,42.69496 L 49.5,513.88992 l 107.25,0.055 C 215.7375,513.97523 264,513.77291 264,513.49535 z M 89.49691,491.75548 C 112.87361,480.07099 132,470.17619 132,469.76703 c 0,-0.74961 -83.826046,-168.9156 -84.578084,-169.67467 -0.222125,-0.2242 -0.520425,47.58832 -0.662889,106.25006 -0.142465,58.66173 -0.147918,106.65767 -0.01212,106.65764 0.1358,-3e-5 19.3733,-9.56009 42.75,-21.24458 z m 220,0 c 23.3767,-11.68449 42.47832,-21.69699 42.44805,-22.25 C 351.9147,468.95247 332.58946,430.025 309,383 l -42.88993,-85.5 -0.055,107.75 c -0.0303,59.2625 0.16857,107.75 0.44187,107.75 0.2733,0 19.6233,-9.56003 43,-21.24452 z m 1099.75779,0.1341 c 23.2349,-11.61073 42.3831,-21.23608 42.5516,-21.38966 0.1685,-0.15359 -19.0442,-38.9164 -42.6949,-86.13958 L 1366.1101,298.5 l -0.055,107.25 c -0.03,58.9875 0.1721,107.25 0.4497,107.25 0.2775,0 19.515,-9.49969 42.75,-21.11042 z M 2243.945,405.75 2243.89,298.5 l -43.0531,85.96395 c -23.6792,47.28018 -42.6669,86.109 -42.1949,86.28629 0.4719,0.17728 19.5331,9.73338 42.3581,21.23577 22.825,11.5024 41.8375,20.93607 42.25,20.96372 0.4125,0.0276 0.7252,-48.21223 0.695,-107.19973 z m -49.3152,-25.4354 c -2.5853,-1.31389 -5.2042,-2.07765 -5.8197,-1.69724 -0.6155,0.38041 -0.8561,0.26609 -0.5346,-0.25406 0.461,-0.74589 -72.863,-38.3633 -74.7778,-38.3633 -0.2725,0 -19.8451,38.69727 -43.4947,85.99394 l -42.9992,85.99394 86.1633,-64.6422 86.1633,-64.64219 -4.7006,-2.38889 z M 264.75865,350.08414 264.5,296.01491 222,317.25308 c -23.375,11.681 -42.69944,21.36459 -42.94321,21.51909 -0.24377,0.15451 18.88123,38.94561 42.5,86.20245 l 42.94321,85.92154 0.25865,-53.3714 c 0.14226,-29.35426 0.14226,-77.70255 0,-107.44062 z m 1054.79655,75.02619 c -23.4067,-46.81068 -42.8945,-85.0858 -43.3064,-85.05582 -0.4118,0.03 -19.809,9.61736 -43.1047,21.30529 l -42.3559,21.25079 85.3559,64.06526 c 46.9457,35.23589 85.4937,63.94816 85.6622,63.80504 0.1685,-0.14312 -18.8445,-38.55987 -42.2511,-85.37056 z m 659.9154,0.45444 c -23.3394,-46.67449 -42.6189,-85.04637 -42.8433,-85.27084 -0.2245,-0.22447 -19.6573,9.21849 -43.1839,20.98437 l -42.7758,21.39251 13.4162,10.1362 c 40.3185,30.46137 157.427,118.0155 157.609,117.83355 0.1172,-0.11719 -18.8828,-38.4013 -42.2222,-85.07579 z M 2024,402.99773 l 0,-107.00228 -42.9985,21.50379 -42.9984,21.50378 42.7457,85.49849 C 2004.259,471.52568 2023.6083,510 2023.7473,510 2023.8863,510 2024,461.84898 2024,402.99773 z m 45.3903,21.25455 42.6097,-85.24771 -43,-21.50456 -43,-21.50456 0,107.16894 c 0,58.94292 0.1756,106.98144 0.3903,106.75228 0.2147,-0.22917 19.5647,-38.77814 43,-85.66439 z M 1364,402.49773 l 0,-106.50228 -42.9695,21.48929 -42.9695,21.48929 42.5145,85.01298 C 1343.9585,470.74416 1363.2948,509 1363.545,509 1363.7953,509 1364,461.07398 1364,402.49773 z M 671.50975,477.25 c 0.96026,-5.3625 8.61973,-47.55 17.02106,-93.75 8.40132,-46.2 15.16056,-84.12073 15.02054,-84.26829 -0.14003,-0.14756 -29.11372,38.21494 -64.38598,85.25 -35.27226,47.03506 -64.02653,85.53069 -63.89837,85.54585 0.12815,0.0152 20.708,3.80838 45.733,8.42936 25.025,4.62099 46.23436,8.43359 47.13192,8.47244 1.28995,0.0558 1.99776,-1.97243 3.37783,-9.67936 z M 572,469.49535 c 0,-0.49615 -41.95491,-84.70362 -42.50008,-85.30168 -0.15359,-0.16848 -38.9164,19.04425 -86.13958,42.69496 L 357.5,469.88992 l 107.25,0.055 C 523.7375,469.97523 572,469.77291 572,469.49535 z M 1650.5,427 c -11.8275,-23.65 -21.841,-42.97523 -22.2523,-42.94496 C 1627.8365,384.0853 1589.025,403.41054 1542,427 l -85.5,42.88993 107.7523,0.055 L 1672.0045,470 1650.5,427 z M 177.84297,447.64667 220.18594,426.40236 134.59297,362.20972 C 87.516836,326.90377 49,298.23929 49,298.51087 c 0,1.33213 85.1046,170.48169 85.75116,170.43462 0.41186,-0.03 19.80318,-9.61444 43.09181,-21.29882 z M 418.35565,382.96089 C 453.21324,336.5074 481.6178,298.36215 481.47688,298.19367 481.11825,297.76488 311,382.88984 311,383.49807 c 0,1.79582 42.61198,85.28995 43.21879,84.68314 0.41768,-0.41768 29.27927,-38.76682 64.13686,-85.22032 z m 220.91871,-1.15397 63.51637,-84.69307 -84.14536,42.02478 c -46.27995,23.11364 -84.982,42.56333 -86.00455,43.22155 -1.73024,1.11377 -0.37894,4.15824 19.48444,43.89813 16.34356,32.69791 21.61176,42.41326 22.48818,41.47153 0.6295,-0.67641 29.72692,-39.34172 64.66092,-85.92292 z M 1517.016,384 c 34.7988,-46.475 63.7498,-85.10899 64.3355,-85.85331 0.5857,-0.74432 -37.5038,17.92945 -84.6433,41.49727 -47.1395,23.56783 -85.7082,43.3458 -85.7082,43.95105 0,1.2544 42.0928,85.66894 42.4878,85.20662 0.1417,-0.1659 28.7294,-38.32663 63.5282,-84.80163 z m 220.5906,-0.42926 c 34.5914,-46.1611 63.2624,-84.53984 63.7133,-85.2861 0.4509,-0.74626 -37.9122,18.01023 -85.2514,41.68109 l -86.0712,43.03793 21.5695,43.12998 c 11.8633,23.72149 21.9244,42.73316 22.358,42.24817 0.4336,-0.485 29.0904,-38.64998 63.6818,-84.81107 z M 527.96864,382.33833 c 0.25776,-0.24326 -9.19797,-19.78168 -21.01272,-43.41872 l -21.48137,-42.97643 -28.98727,38.72474 c -15.94301,21.29861 -30.36322,40.5489 -32.04493,42.77841 -1.68171,2.22952 -5.77662,7.65367 -9.09981,12.05367 -3.32318,4.4 -8.7203,11.6 -11.99358,16 -3.27329,4.4 -8.67329,11.6 -12,16 -3.32672,4.4 -8.90143,11.825 -12.38825,16.5 -3.48683,4.675 -9.54369,12.775 -13.45971,18 -3.91601,5.225 -7.46965,10.08248 -7.89697,10.79439 -0.62561,1.04228 168.73042,-82.91379 170.36461,-84.45606 z m 1014.28366,43.05198 c 46.8862,-23.43534 85.3847,-42.73487 85.5522,-42.88785 C 1628.2864,382.0623 1585.5829,297 1584.8801,297 c -0.347,0 -29.4879,38.475 -64.7576,85.5 -35.2697,47.025 -63.8997,85.5 -63.6223,85.5 0.2775,0 38.8659,-19.17436 85.7521,-42.60969 z M 1713.5,449.36917 c 17.6,-8.83766 55.0616,-27.61154 83.248,-41.71974 l 51.248,-25.65127 -21.2425,-42.49908 C 1815.0701,316.12459 1805.2289,297 1804.8841,297 c -0.3448,0 -29.4535,38.44012 -64.686,85.4225 -44.4692,59.29947 -63.2394,85.0544 -61.3786,84.21882 1.4743,-0.66203 17.0805,-8.4345 34.6805,-17.27215 z M 978,442.12111 c 0,-0.78195 32.1347,-178.17763 33.6247,-185.62111 0.3863,-1.92985 -22.41888,27.6769 -63.93084,82.9979 -35.49227,47.29884 -64.3429,86.1864 -64.11251,86.41678 0.52517,0.52518 89.1009,16.84796 92.16865,16.98489 1.2375,0.0552 2.25,-0.29507 2.25,-0.77846 z M 875.96429,423.62355 c -0.80536,-0.75705 -39.33529,-29.75302 -85.62208,-64.43548 -74.61422,-55.90808 -84.21766,-62.81119 -84.68578,-60.87355 -1.30708,5.41023 -16.75677,91.91847 -16.46756,92.20768 0.28751,0.28751 184.8638,34.18635 187.27542,34.39455 0.53035,0.0458 0.30535,-0.53615 -0.5,-1.2932 z M 945.70341,339.5 c 34.59996,-46.2 63.26009,-84.58248 63.68929,-85.29439 0.6277,-1.04141 -168.7277,82.91468 -170.35874,84.45345 -0.25632,0.24182 9.1834,19.75525 20.97714,43.36317 11.79375,23.60792 21.7447,42.5982 22.11323,42.20063 C 882.49286,423.82529 911.10344,385.7 945.70341,339.5 z m -67.48563,82.75 c -1.52589,-3.72025 -84.38222,-168.78578 -85.03104,-169.39796 -0.85146,-0.80337 -84.68674,40.99115 -84.68674,42.219 0,0.63039 168.36941,128.06976 170.21778,128.8384 0.11977,0.0498 -0.10523,-0.69694 -0.5,-1.65944 z M 176.39147,337.75 C 152.9555,290.8625 133.65544,252.36297 133.50246,252.19549 132.99877,251.64406 47.990998,294.4752 48.248435,295.15071 48.58139,296.02437 217.28087,422.81229 218.25116,422.91809 218.6643,422.96314 199.82744,384.6375 176.39147,337.75 z M 1801.9167,295.38341 C 1802.1458,295.17254 1753.659,295 1694.1682,295 l -108.1652,0 21.6968,43.40732 21.6968,43.40733 86.0517,-43.02391 c 47.3284,-23.66316 86.2392,-43.19645 86.4684,-43.40733 z M 397,338 l 85.5,-42.88993 -107.75,-0.055 c -59.2625,-0.0303 -107.75,0.1721 -107.75,0.44972 0,0.83375 41.13615,82.8933 42.23183,84.24524 0.55718,0.6875 1.29546,1.22523 1.64061,1.19496 C 311.2176,380.9147 349.975,361.58946 397,338 z m 220,0 85.5,-42.88993 -107.75,-0.055 c -59.2625,-0.0303 -107.75,0.17808 -107.75,0.46302 0,1.65718 42.67679,85.4619 43.5,85.42125 0.55,-0.0272 39.475,-19.34985 86.5,-42.93931 z m 566.9643,41.63085 c -0.8054,-0.75303 -39.3707,-29.76808 -85.7008,-64.47788 -74.9539,-56.15432 -84.291,-62.86322 -84.7309,-60.88085 -1.8991,8.55845 -16.65676,91.93706 -16.33022,92.2636 0.39225,0.39225 183.73822,34.11396 186.76192,34.34998 1.2857,0.10036 1.2857,-0.0527 0,-1.25485 z m 49.2904,-19.74127 c 23.2349,-11.61073 42.3831,-21.23608 42.5516,-21.38966 0.1685,-0.15359 -19.0442,-38.9164 -42.6949,-86.13958 L 1190.1101,166.5 l -0.055,107.25 c -0.03,58.9875 0.1721,107.25 0.4497,107.25 0.2775,0 19.515,-9.49969 42.75,-21.11042 z M 1497,338 l 85.5,-42.88993 -108.132,-0.055 -108.1321,-0.055 21.4486,43 c 11.7967,23.65 21.9811,42.97523 22.632,42.94496 C 1410.9674,380.9147 1449.975,361.58946 1497,338 z m 439,0 85.5,-42.88993 -107.7523,-0.055 L 1805.9955,295 1827.5,338 c 11.8275,23.65 21.841,42.97523 22.2523,42.94496 C 1850.1635,380.9147 1888.975,361.58946 1936,338 z m 285.9312,0.30172 C 2233.519,315.09267 2243,295.85517 2243,295.55172 2243,295.24828 2194.5291,295 2135.287,295 l -107.713,0 85.463,42.89775 c 47.0046,23.59377 85.9945,42.83127 86.6442,42.75 0.6496,-0.0813 10.6621,-19.13697 22.25,-42.34603 z M 1143.9321,293.49408 c -23.2663,-46.53268 -42.6462,-84.81739 -43.0665,-85.07715 -0.4203,-0.25975 -19.968,9.13174 -43.4394,20.86998 l -42.6753,21.34225 85.3745,64.04622 c 46.9561,35.22543 85.5398,63.90613 85.7418,63.73489 0.202,-0.17123 -18.6688,-38.38352 -41.9351,-84.91619 z m 44.3232,-22.74403 c -0.1346,-58.43753 -0.2471,-106.3636 -0.25,-106.50238 -0.01,-0.29942 -84.2916,41.7718 -84.9744,42.41517 -0.5312,0.5005 84.1835,170.33713 84.9644,170.33721 0.2776,2e-5 0.3946,-47.81248 0.26,-106.25 z m -966.40685,44.89388 42.34844,-21.24705 -85.59844,-64.20054 C 131.5193,194.88604 93,166.42386 93,166.94706 c 0,1.10714 82.76771,166.93952 84.25033,168.80294 0.54701,0.6875 1.27696,1.22547 1.62211,1.19549 0.34516,-0.03 19.68436,-9.61568 42.97601,-21.30156 z M 925,294.00518 l 85.5,-42.88474 -107.75,-0.0514 C 843.4875,251.04074 795,251.2373 795,251.50573 c 0,1.64894 42.67785,85.48391 43.49452,85.4392 C 839.04753,336.9147 877.975,317.59179 925,294.00518 z m 396.0047,21.99249 c 23.0974,-11.55128 41.974,-21.33878 41.9481,-21.75 -0.057,-0.90323 -170.1619,-128.37192 -170.6538,-127.88005 -0.6535,0.65352 84.7454,170.63238 85.7273,170.63238 0.5406,0 19.8809,-9.45105 42.9784,-21.00233 z M 396.59989,250.9118 c -47.24506,-23.65637 -86.24605,-42.65163 -86.66886,-42.21169 -0.42281,0.43994 -8.96856,17.22489 -18.99056,37.29989 -10.022,20.075 -19.51499,39.0875 -21.09554,42.25 L 266.97121,294 374.7356,293.96168 482.5,293.92337 396.59989,250.9118 z m 304.30357,42.65833 C 700.04729,292.71396 529.79276,207.87566 529.5488,208.18363 529.0182,208.85347 487,293.18732 487,293.58243 487,293.81209 535.225,294 594.16667,294 c 58.94166,0 106.97322,-0.19344 106.73679,-0.42987 z m 880.01324,0.0253 c -0.8973,-0.87121 -171.1464,-85.69745 -171.4125,-85.40591 -0.5473,0.59965 -42.5042,84.80696 -42.5042,85.3058 0,0.27756 48.225,0.50465 107.1667,0.50465 58.9416,0 106.9791,-0.18205 106.75,-0.40454 z M 1716,251 c -47.025,-23.58946 -85.8274,-42.9147 -86.2275,-42.94496 -0.7617,-0.0576 -42.7725,83.4697 -42.7725,85.04172 0,0.53238 44.0358,0.88064 107.25,0.8482 l 107.25,-0.055 L 1716,251 z m 286.5,0 c -11.8275,-23.65 -21.841,-42.97523 -22.2523,-42.94496 C 1979.8365,208.0853 1941.025,227.41054 1894,251 l -85.5,42.88993 107.7523,0.055 L 2024.0045,294 2002.5,251 z m 219.7116,0.25 c -11.8099,-23.5125 -21.5892,-42.88785 -21.7318,-43.05633 -0.1425,-0.16848 -38.8963,19.04425 -86.1195,42.69496 l -85.8603,43.00129 107.5921,0.055 107.592,0.055 -21.4725,-42.75 z M 91.894614,270.7421 c 21.699986,-10.86685 39.699556,-20.00294 39.999046,-20.30242 0.29948,-0.29949 -18.56657,-38.77531 -41.924571,-85.50183 L 47.5,79.980545 47,184.24027 c -0.275,57.34285 -0.34094,105.24137 -0.146533,106.44115 0.434436,2.68111 -4.428026,4.83368 45.041147,-19.93932 z M 527.31822,206.94494 C 526.37506,206.03258 358.45539,122 357.57541,122 c -0.42434,0 84.47528,113.78809 118.2601,158.5 1.24676,1.65 3.90185,5.19434 5.90021,7.8763 l 3.63337,4.87631 21.38367,-42.75809 c 11.76102,-23.51695 21.01547,-43.11426 20.56546,-43.54958 z M 705,185.83333 c 0,-58.94166 -0.17489,-106.979163 -0.38864,-106.749997 -0.90001,0.964922 -85.71522,171.143737 -85.4273,171.406957 0.71059,0.64961 84.37421,42.40495 85.06594,42.45521 0.4125,0.03 0.75,-48.1705 0.75,-107.11217 z m 44.25465,86.05625 c 23.23494,-11.61073 42.40105,-21.25393 42.59135,-21.42933 0.1903,-0.1754 -19.0472,-39.09516 -42.75,-86.48834 L 706,77.802476 706,185.40124 C 706,244.58056 706.22709,293 706.50465,293 c 0.27756,0 19.51506,-9.49969 42.75,-21.11042 z m 857.24445,-21.88775 21.5036,-42.99817 -86.1395,-43.07206 c -81.8011,-40.90272 -85.9941,-42.87498 -83.2514,-39.15884 10.6821,14.47338 125.9373,168.14968 126.1359,168.18419 0.1363,0.0237 9.9244,-19.30613 21.7514,-42.95512 z M 1803.945,186.25 1803.89,79.5 l -42.8352,85.5 -42.8352,85.5 42.4063,21.25 c 23.3235,11.6875 42.6241,21.25 42.8903,21.25 0.2661,0 0.4591,-48.0375 0.4289,-106.75 z m 45.3097,85.63958 c 23.2349,-11.61073 42.3267,-21.17965 42.4262,-21.26426 0.1,-0.0846 -19.138,-38.82469 -42.75,-86.08906 L 1806,78.60104 l 0,107.19948 c 0,58.95971 0.2271,107.19948 0.5047,107.19948 0.2775,0 19.515,-9.49969 42.75,-21.11042 z M 2151.8586,124.1522 c 2.2125,-2.93008 -8.2266,2.0298 -83.6667,39.75183 l -86.1946,43.09963 21.5522,43.09531 21.5522,43.09532 62.1145,-82.84715 c 34.1629,-45.56593 63.252,-84.35365 64.6424,-86.19494 z M 482,291.60938 c 0,-0.66034 -127.19481,-170.0922 -127.89842,-170.36911 -0.68411,-0.26924 -43.47912,84.73584 -42.9183,85.24998 0.31752,0.29108 170.09673,85.35126 170.56672,85.45472 0.1375,0.0303 0.25,-0.12075 0.25,-0.33559 z M 1320,206 c -23.6513,-47.3 -43.3393,-85.97547 -43.7511,-85.94549 -0.4119,0.03 -19.8391,9.63237 -43.1715,21.33864 l -42.4226,21.28414 85.9226,64.57795 c 47.2574,35.51786 86.0356,64.61547 86.1737,64.66135 C 1362.8893,291.96247 1343.6513,253.3 1320,206 z m 261.2229,84.75 c -0.5621,-0.6875 -29.5657,-39.32382 -64.4524,-85.85849 l -63.4305,-84.60849 -21.386,42.80912 c -11.7624,23.54502 -21.1764,43.00697 -20.92,43.24879 0.4992,0.47095 170.2135,85.51169 170.8384,85.60404 0.2049,0.0303 -0.087,-0.50747 -0.6495,-1.19497 z M 2199,205.74719 c 0,-1.31177 -41.4666,-84.59904 -42.1575,-84.67495 -0.5332,-0.0586 -48.285,63.25363 -118.5439,157.17297 l -10.2825,13.74521 85.4919,-42.74248 C 2160.5286,225.73957 2199,206.16423 2199,205.74719 z M 220.39147,205.75 C 196.9555,158.8625 177.65544,120.36297 177.50246,120.19549 177.10606,119.76152 91.992476,162.38394 92.036183,162.99452 92.073799,163.52001 261.96354,291 262.62623,291 c 0.20685,0 -18.79879,-38.3625 -42.23476,-85.25 z M 265,183.49773 265,75.995454 222,97.5 c -23.65,11.8275 -43,21.72783 -43,22.00073 C 179,120.15559 264.41985,291 264.74727,291 264.88627,291 265,242.62398 265,183.49773 z m 86.31744,-64.55458 C 350.71496,118.35961 271.48808,78.286302 266.75,76.168555 c -0.4125,-0.184372 -0.72523,48.189775 -0.69496,107.498115 l 0.055,107.83333 43.0124,-85.88256 c 23.65682,-47.23541 42.64455,-86.23884 42.19496,-86.67429 z M 1409.3903,204.25228 1452,119.00457 l -43,-21.50456 -43,-21.504556 0,107.168936 c 0,58.94292 0.1756,106.98144 0.3903,106.75228 0.2147,-0.22917 19.5647,-38.77814 43,-85.66439 z M 2244,182.99773 l 0,-107.002276 -42.9985,21.503782 -42.9984,21.503784 42.7457,85.49849 C 2224.259,251.52568 2243.6083,290 2243.7473,290 2243.8863,290 2244,241.84898 2244,182.99773 z m -880,-0.5 0,-106.502276 -42.9478,21.478436 -42.9478,21.47844 42.5536,85.02383 C 1344.0625,250.73927 1363.389,289 1363.6058,289 1363.8226,289 1364,241.07398 1364,182.49773 z m -373.49769,24.50688 -21.50225,-42.99539 -84.25003,42.098 C 838.41251,229.26112 799.825,248.59536 799,249.0722 c -0.85362,0.49338 44.71727,0.88009 105.75227,0.89739 L 1012.0045,250 990.50231,207.00461 z M 659.94549,163.75116 C 659.99177,163.11545 490.85476,78 489.54524,78 c -0.25268,0 28.41506,38.51032 63.70609,85.57849 l 64.16551,85.5785 21.23707,-42.3285 c 11.68039,-23.28067 21.2616,-42.66547 21.29158,-43.07733 z M 858.85089,162.25 C 893.56234,115.9125 921.74498,78 921.47898,78 920.5164,78 751,163.01532 751,163.49807 c 0,0.27266 9.5555,19.61307 21.23445,42.97868 16.19701,32.40474 21.50373,42.19118 22.36958,41.25309 0.62433,-0.67641 29.53542,-39.14234 64.24686,-85.47984 z m 219.45151,0.5 c 34.9528,-46.6125 63.3442,-84.75 63.0922,-84.75 -0.3884,0 -169.0237,83.94056 -170.36064,84.79937 -0.25632,0.16465 9.1834,19.61494 20.97714,43.22286 11.7938,23.60792 21.7352,42.5982 22.092,42.20063 0.3569,-0.39757 29.2466,-38.86036 64.1993,-85.47286 z m 660.1967,43.25183 21.5036,-42.99817 -86.0179,-43.01126 -86.0179,-43.011259 3.2665,4.464389 c 7.7338,10.569736 125.29,167.44842 125.5143,167.49882 0.1363,0.0306 9.9244,-19.29353 21.7514,-42.94252 z M 2019.8586,80.152205 c 2.2125,-2.930087 -8.2266,2.029792 -83.6667,39.751825 l -86.1946,43.09963 21.5522,43.09531 21.5522,43.09532 62.1145,-82.84715 c 34.1629,-45.56593 63.252,-84.353648 64.6424,-86.194935 z M 550.49221,162.35295 C 515.49284,115.68383 486.54955,77.386796 486.1738,77.248435 c -0.69196,-0.254795 -43.54006,84.740915 -42.97831,85.254015 0.90024,0.8223 170.35471,85.23483 170.61823,84.99225 0.17254,-0.15884 -28.32214,-38.47263 -63.32151,-85.14175 z m 417.3123,0.14951 C 968.35697,161.99782 925.52414,76.991269 924.84698,77.248435 924.11417,77.526739 797,246.86772 797,247.56567 c 0,0.36833 169.91786,-84.25331 170.80451,-85.06321 z m 219.99999,0 c 0.5634,-0.51459 -42.2874,-85.50842 -42.9819,-85.254025 C 1144.045,77.533259 1017,246.76588 1017,247.5169 c 0,0.40032 169.8415,-84.13481 170.8045,-85.01444 z M 1713.2469,246.75 c -0.5489,-0.6875 -29.5459,-39.33338 -64.4379,-85.87973 l -63.44,-84.629736 -21.5838,43.129736 -21.5838,43.12973 85.1493,42.68606 c 46.8321,23.47734 85.5419,42.71484 86.0217,42.75 0.4799,0.0352 0.4234,-0.49856 -0.1255,-1.18606 z m 269.4,-41.55259 85.1468,-42.69741 -21.6523,-43.25638 c -19.5762,-39.108759 -21.7749,-43.060107 -22.9307,-41.209327 -0.7032,1.125883 -0.9687,2.548285 -0.5901,3.160893 0.4032,0.652347 0.2365,0.834527 -0.4023,0.439706 -0.6549,-0.404698 -25.596,31.983268 -62.4045,81.036888 -71.1556,94.82693 -64.1348,85.34175 -63.1205,85.27563 0.4437,-0.0289 39.1228,-19.26642 85.9536,-42.75 z M 1361.9251,75.381883 c 0.2338,-0.21931 -48.0287,-0.387151 -107.25,-0.372979 -59.2213,0.01417 -107.6887,0.355466 -107.7053,0.758431 -0.017,0.402966 9.5281,19.923341 21.2104,43.378615 l 21.2406,42.64594 86.0396,-43.00563 c 47.3218,-23.653097 86.2309,-43.185067 86.4647,-43.404377 z m 168.529,-0.140533 c -29.3154,-0.142257 -77.7477,-0.142257 -107.6274,0 L 1368.5,75.5 l 86,43.14108 86,43.14107 21.6274,-43.14107 21.6275,-43.14108 -53.3008,-0.25865 z m 220,0 c -29.3154,-0.142257 -77.7477,-0.142257 -107.6274,0 L 1588.5,75.5 l 86,43.1542 86,43.1542 21.6274,-43.1542 21.6275,-43.1542 -53.3008,-0.25865 z M 2021,75.505892 c 0,-0.259089 -48.15,-0.482696 -107,-0.496906 -71.0623,-0.01716 -107,0.311823 -107,0.979499 0,0.552934 9.5391,20.089756 21.1979,43.415155 l 21.1979,42.40983 85.8021,-42.91825 C 1982.3891,95.290176 2021,75.764981 2021,75.505892 z m 113.5879,-0.260436 c -58.8017,-0.14 -107.1614,-0.0053 -107.4661,0.299369 -0.3046,0.304652 9.0746,19.827553 20.8428,43.384225 l 21.3966,42.83031 86.0694,-43.12968 L 2241.5,75.5 2134.5879,75.245456 z M 177,118 262.5,75.11007 154.75,75.055035 C 95.4875,75.024766 47,75.187254 47,75.416121 47,76.181243 88.222621,158.48185 89.241042,159.75 c 0.552116,0.6875 1.286247,1.22523 1.631403,1.19496 C 91.2176,160.9147 129.975,141.58946 177,118 z m 285.75548,0.49691 C 474.43997,95.12021 484,75.77021 484,75.49691 484,75.223609 435.5125,75.024766 376.25,75.055035 L 268.5,75.11007 354,118 c 47.025,23.58946 85.95247,42.9147 86.50548,42.94496 0.55301,0.0303 10.56551,-19.07135 22.25,-42.44805 z m 220,0 C 694.43997,95.12021 704,75.766543 704,75.48876 704,75.210977 655.5125,75.016424 596.25,75.05642 l -107.75,0.07272 85.5,42.8804 c 47.025,23.58421 85.95247,42.90516 86.50548,42.93542 0.55301,0.0303 10.56551,-19.07135 22.25,-42.44805 z M 837,117.99531 922.5,75.100682 814.75,75.067676 C 755.4875,75.049523 707,75.250479 707,75.514245 c 0,1.643303 42.68057,85.475275 43.49452,85.430715 C 751.04753,160.9147 789.975,141.58735 837,117.99531 z m 220,0.005 85.5,-42.88993 -107.75,-0.05503 C 975.4875,75.024766 927,75.223609 927,75.49691 c 0,1.654816 42.67502,85.49291 43.49452,85.44805 C 971.04753,160.9147 1009.975,141.58946 1057,118 z"
     id="path3195"
     inkscape:connector-curvature="0" />
</svg>
