<?xml version="1.0" encoding="UTF-8" standalone="no"?>
<!-- Created with Inkscape (http://www.inkscape.org/) -->

<svg
   xmlns:osb="http://www.openswatchbook.org/uri/2009/osb"
   xmlns:dc="http://purl.org/dc/elements/1.1/"
   xmlns:cc="http://creativecommons.org/ns#"
   xmlns:rdf="http://www.w3.org/1999/02/22-rdf-syntax-ns#"
   xmlns:svg="http://www.w3.org/2000/svg"
   xmlns="http://www.w3.org/2000/svg"
   xmlns:xlink="http://www.w3.org/1999/xlink"
   xmlns:sodipodi="http://sodipodi.sourceforge.net/DTD/sodipodi-0.dtd"
   xmlns:inkscape="http://www.inkscape.org/namespaces/inkscape"
   width="390.76379"
   height="144.73228"
   id="svg2"
   version="1.1"
   inkscape:version="0.48.0 r9654"
   sodipodi:docname="staircase.svg">
  <sodipodi:namedview
     id="base"
     pagecolor="#ffffff"
     bordercolor="#666666"
     borderopacity="1.0"
     inkscape:pageopacity="0.0"
     inkscape:pageshadow="2"
     inkscape:zoom="4.9004303"
     inkscape:cx="104.90861"
     inkscape:cy="100.72976"
     inkscape:document-units="cm"
     inkscape:current-layer="layer1"
     showgrid="true"
     inkscape:window-width="1280"
     inkscape:window-height="943"
     inkscape:window-x="0"
     inkscape:window-y="0"
     inkscape:window-maximized="1"
     showguides="true"
     inkscape:guide-bbox="true"
     fit-margin-top="1"
     fit-margin-left="0"
     fit-margin-right="0"
     fit-margin-bottom="1"
     inkscape:snap-bbox="true"
     inkscape:snap-global="true"
     inkscape:snap-nodes="true">
    <inkscape:grid
       type="xygrid"
       id="grid2985"
       empspacing="5"
       visible="true"
       enabled="true"
       snapvisiblegridlinesonly="true"
       units="cm"
       spacingx="0.01cm"
       spacingy="0.01cm" />
  </sodipodi:namedview>
  <defs
     id="defs4">
    <marker
       inkscape:stockid="Arrow2Mend"
       orient="auto"
       refY="0"
       refX="0"
       id="Arrow2Mend"
       style="overflow:visible">
      <path
         id="path3846"
         style="font-size:12px;fill-rule:evenodd;stroke-width:0.625;stroke-linejoin:round"
         d="M 8.7185878,4.0337352 -2.2072895,0.01601326 8.7185884,-4.0017078 c -1.7454984,2.3720609 -1.7354408,5.6174519 -6e-7,8.035443 z"
         transform="scale(-0.6,-0.6)"
         inkscape:connector-curvature="0" />
    </marker>
    <marker
       inkscape:stockid="Arrow2Mstart"
       orient="auto"
       refY="0"
       refX="0"
       id="Arrow2Mstart"
       style="overflow:visible">
      <path
         id="path4262"
         style="font-size:12px;fill-rule:evenodd;stroke-width:0.625;stroke-linejoin:round"
         d="M 8.7185878,4.0337352 -2.2072895,0.01601326 8.7185884,-4.0017078 c -1.7454984,2.3720609 -1.7354408,5.6174519 -6e-7,8.035443 z"
         transform="scale(0.6,0.6)"
         inkscape:connector-curvature="0" />
    </marker>
    <marker
       inkscape:stockid="Arrow2Sstart"
       orient="auto"
       refY="0"
       refX="0"
       id="Arrow2Sstart"
       style="overflow:visible">
      <path
         id="path4077"
         style="font-size:12px;fill-rule:evenodd;stroke-width:0.625;stroke-linejoin:round"
         d="M 8.7185878,4.0337352 -2.2072895,0.01601326 8.7185884,-4.0017078 c -1.7454984,2.3720609 -1.7354408,5.6174519 -6e-7,8.035443 z"
         transform="matrix(0.3,0,0,0.3,-0.69,0)"
         inkscape:connector-curvature="0" />
    </marker>
    <linearGradient
       id="linearGradient4015">
      <stop
         id="stop4025"
         offset="0"
         style="stop-color:#000000;stop-opacity:1;" />
      <stop
         style="stop-color:#000000;stop-opacity:0.99607843;"
         offset="0.00003052"
         id="stop4081" />
      <stop
         style="stop-color:#000000;stop-opacity:0.99215686;"
         offset="0.00006103"
         id="stop4079" />
      <stop
         style="stop-color:#000000;stop-opacity:0.98823529;"
         offset="0.00012207"
         id="stop4077" />
      <stop
         style="stop-color:#000000;stop-opacity:0.98039216;"
         offset="0.00024414"
         id="stop4075" />
      <stop
         style="stop-color:#000000;stop-opacity:0.96470588;"
         offset="0.00048828"
         id="stop4073" />
      <stop
         style="stop-color:#000000;stop-opacity:0.93333333;"
         offset="0.00097656"
         id="stop4071" />
      <stop
         style="stop-color:#000000;stop-opacity:0.87058824;"
         offset="0.00195312"
         id="stop4069" />
      <stop
         style="stop-color:#000000;stop-opacity:0.74509804;"
         offset="0.00390625"
         id="stop4067" />
      <stop
         style="stop-color:#000000;stop-opacity:0.49411765;"
         offset="0.0078125"
         id="stop4065" />
      <stop
         style="stop-color:#000000;stop-opacity:0.49019608;"
         offset="0.015625"
         id="stop4063" />
      <stop
         style="stop-color:#000000;stop-opacity:0.48235294;"
         offset="0.03125"
         id="stop4061" />
      <stop
         style="stop-color:#000000;stop-opacity:0.46666667;"
         offset="0.0625"
         id="stop4059" />
      <stop
         style="stop-color:#000000;stop-opacity:0.43529412;"
         offset="0.125"
         id="stop4057" />
      <stop
         style="stop-color:#000000;stop-opacity:0.37254902;"
         offset="0.25"
         id="stop4055" />
      <stop
         style="stop-color:#000000;stop-opacity:0.24705882;"
         offset="0.5"
         id="stop4053" />
      <stop
         style="stop-color:#000000;stop-opacity:0;"
         offset="1"
         id="stop4019" />
    </linearGradient>
    <linearGradient
       id="linearGradient3989">
      <stop
         style="stop-color:#000000;stop-opacity:1;"
         offset="0"
         id="stop3991" />
      <stop
         id="stop3997"
         offset="0.5"
         style="stop-color:#000000;stop-opacity:0.54901963;" />
      <stop
         style="stop-color:#000000;stop-opacity:0.09929078;"
         offset="1"
         id="stop3993" />
    </linearGradient>
    <linearGradient
       id="linearGradient3917"
       osb:paint="gradient">
      <stop
         style="stop-color:#000000;stop-opacity:1;"
         offset="0"
         id="stop3919" />
      <stop
         style="stop-color:#000000;stop-opacity:0;"
         offset="1"
         id="stop3921" />
    </linearGradient>
    <linearGradient
       inkscape:collect="always"
       xlink:href="#linearGradient3989"
       id="linearGradient3928"
       gradientUnits="userSpaceOnUse"
       gradientTransform="translate(212.59842,-1.634781e-6)"
       x1="176.66534"
       y1="946.06299"
       x2="248.53149"
       y2="946.06299" />
    <linearGradient
       inkscape:collect="always"
       xlink:href="#linearGradient3989"
       id="linearGradient3930"
       gradientUnits="userSpaceOnUse"
       gradientTransform="matrix(-1,0,0,1,531.49605,-1.6160186e-6)"
       x1="177.16534"
       y1="946.06299"
       x2="248.53149"
       y2="946.06299" />
    <linearGradient
       inkscape:collect="always"
       xlink:href="#linearGradient3989"
       id="linearGradient3932"
       gradientUnits="userSpaceOnUse"
       gradientTransform="translate(212.59842,35.433069)"
       x1="176.66534"
       y1="946.06299"
       x2="248.53149"
       y2="946.06299" />
    <linearGradient
       inkscape:collect="always"
       xlink:href="#linearGradient3989"
       id="linearGradient3934"
       gradientUnits="userSpaceOnUse"
       gradientTransform="matrix(-1,0,0,1,531.49605,35.433069)"
       x1="176.66534"
       y1="946.06299"
       x2="248.53149"
       y2="946.06299" />
    <linearGradient
       inkscape:collect="always"
       xlink:href="#linearGradient3989"
       id="linearGradient3948"
       gradientUnits="userSpaceOnUse"
       gradientTransform="translate(212.59842,35.433069)"
       x1="176.66534"
       y1="946.06299"
       x2="248.53149"
       y2="946.06299" />
    <linearGradient
       inkscape:collect="always"
       xlink:href="#linearGradient3989"
       id="linearGradient3950"
       gradientUnits="userSpaceOnUse"
       gradientTransform="matrix(-1,0,0,1,531.49605,35.433069)"
       x1="176.66534"
       y1="946.06299"
       x2="248.53149"
       y2="946.06299" />
    <linearGradient
       inkscape:collect="always"
       xlink:href="#linearGradient3989"
       id="linearGradient3298"
       gradientUnits="userSpaceOnUse"
       gradientTransform="translate(0,-10)"
       x1="176.66534"
       y1="946.06299"
       x2="248.53149"
       y2="946.06299" />
    <linearGradient
       inkscape:collect="always"
       xlink:href="#linearGradient3989"
       id="linearGradient3300"
       gradientUnits="userSpaceOnUse"
       gradientTransform="matrix(-1,0,0,1,318.89763,-10)"
       x1="177.16534"
       y1="946.06299"
       x2="248.53149"
       y2="946.06299" />
    <linearGradient
       inkscape:collect="always"
       xlink:href="#linearGradient3989"
       id="linearGradient3302"
       gradientUnits="userSpaceOnUse"
       gradientTransform="translate(0,-10)"
       x1="176.66534"
       y1="946.06299"
       x2="248.53149"
       y2="946.06299" />
    <linearGradient
       inkscape:collect="always"
       xlink:href="#linearGradient3989"
       id="linearGradient3304"
       gradientUnits="userSpaceOnUse"
       gradientTransform="matrix(-1,0,0,1,318.89763,-10)"
       x1="177.16534"
       y1="946.06299"
       x2="248.53149"
       y2="946.06299" />
    <linearGradient
       inkscape:collect="always"
       xlink:href="#linearGradient3989"
       id="linearGradient3306"
       gradientUnits="userSpaceOnUse"
       gradientTransform="translate(212.59842,-1.634781e-6)"
       x1="176.66534"
       y1="946.06299"
       x2="248.53149"
       y2="946.06299" />
    <linearGradient
       inkscape:collect="always"
       xlink:href="#linearGradient3989"
       id="linearGradient3308"
       gradientUnits="userSpaceOnUse"
       gradientTransform="matrix(-1,0,0,1,531.49605,-1.6160186e-6)"
       x1="177.16534"
       y1="946.06299"
       x2="248.53149"
       y2="946.06299" />
    <linearGradient
       inkscape:collect="always"
       xlink:href="#linearGradient3989"
       id="linearGradient3310"
       gradientUnits="userSpaceOnUse"
       gradientTransform="translate(212.59842,-1.634781e-6)"
       x1="176.66534"
       y1="946.06299"
       x2="248.53149"
       y2="946.06299" />
    <linearGradient
       inkscape:collect="always"
       xlink:href="#linearGradient3989"
       id="linearGradient3312"
       gradientUnits="userSpaceOnUse"
       gradientTransform="matrix(-1,0,0,1,531.49605,-1.6160186e-6)"
       x1="177.16534"
       y1="946.06299"
       x2="248.53149"
       y2="946.06299" />
  </defs>
  <metadata
     id="metadata7">
    <rdf:RDF>
      <cc:Work
         rdf:about="">
        <dc:format>image/svg+xml</dc:format>
        <dc:type
           rdf:resource="http://purl.org/dc/dcmitype/StillImage" />
        <dc:title />
      </cc:Work>
    </rdf:RDF>
  </metadata>
  <g
     inkscape:label="Layer 1"
     inkscape:groupmode="layer"
     id="layer1"
     transform="translate(-69.866122,-891.37006)">
    <g
       transform="scale(1.0286591,0.97213937)"
       style="font-size:44.50372314px;font-style:normal;font-variant:normal;font-weight:normal;font-stretch:normal;line-height:125%;letter-spacing:0px;word-spacing:0px;fill:#000000;fill-opacity:1;stroke:none;font-family:Printers Ornaments One;-inkscape-font-specification:Printers Ornaments One"
       id="text3704" />
    <text
       xml:space="preserve"
       style="font-size:40px;font-style:normal;font-variant:normal;font-weight:normal;font-stretch:normal;line-height:125%;letter-spacing:0px;word-spacing:0px;fill:#000000;fill-opacity:1;stroke:none;font-family:Printers Ornaments One;-inkscape-font-specification:Printers Ornaments One"
       x="87.531067"
       y="624.65356"
       id="text3088"
       sodipodi:linespacing="125%"><tspan
         sodipodi:role="line"
         id="tspan3090"
         x="87.531067"
         y="624.65356"
         style="font-style:normal;font-variant:normal;font-weight:normal;font-stretch:normal;font-family:Schluss-Vignetten;-inkscape-font-specification:Schluss-Vignetten" /></text>
    <text
       xml:space="preserve"
       style="font-size:40px;font-style:normal;font-variant:normal;font-weight:normal;font-stretch:normal;line-height:125%;letter-spacing:0px;word-spacing:0px;fill:#000000;fill-opacity:1;stroke:none;font-family:Printers Ornaments One;-inkscape-font-specification:Printers Ornaments One"
       x="298.75714"
       y="665.8905"
       id="text3359"
       sodipodi:linespacing="125%"><tspan
         sodipodi:role="line"
         id="tspan3361"
         x="298.75714"
         y="665.8905" /></text>
    <text
       transform="scale(-1.0286591,-0.97213937)"
       sodipodi:linespacing="125%"
       id="text3684"
       y="-783.64374"
       x="-124.00518"
       style="font-size:44.50372314px;font-style:normal;font-variant:normal;font-weight:normal;font-stretch:normal;line-height:125%;letter-spacing:0px;word-spacing:0px;fill:#000000;fill-opacity:1;stroke:none;font-family:Printers Ornaments One;-inkscape-font-specification:Printers Ornaments One"
       xml:space="preserve"><tspan
         y="-783.64374"
         x="-124.00518"
         id="tspan3686"
         sodipodi:role="line" /></text>
    <text
       xml:space="preserve"
       style="font-size:44.50372314px;font-style:normal;font-variant:normal;font-weight:normal;font-stretch:normal;line-height:125%;letter-spacing:0px;word-spacing:0px;fill:#000000;fill-opacity:1;stroke:none;font-family:Printers Ornaments One;-inkscape-font-specification:Printers Ornaments One"
       x="131.2504"
       y="826.84802"
       id="text3688"
       sodipodi:linespacing="125%"
       transform="scale(1.0286591,0.97213937)"><tspan
         sodipodi:role="line"
         id="tspan3690"
         x="131.2504"
         y="826.84802" /></text>
    <g
       transform="scale(1.1402577,0.87699474)"
       style="font-size:58.30134201px;font-style:normal;font-variant:normal;font-weight:normal;font-stretch:normal;line-height:125%;letter-spacing:0px;word-spacing:0px;fill:#000000;fill-opacity:1;stroke:none;font-family:Ubuntu;-inkscape-font-specification:Ubuntu"
       id="text5011" />
    <g
       transform="scale(1.1402577,0.87699474)"
       style="font-size:58.30134201px;font-style:normal;font-variant:normal;font-weight:normal;font-stretch:normal;line-height:125%;letter-spacing:0px;word-spacing:0px;fill:#000000;fill-opacity:1;stroke:none;font-family:Ubuntu;-inkscape-font-specification:Ubuntu"
       id="text5015" />
    <g
       transform="scale(1.1402577,0.87699474)"
       style="font-size:58.30134201px;font-style:normal;font-variant:normal;font-weight:normal;font-stretch:normal;line-height:125%;letter-spacing:0px;word-spacing:0px;fill:#000000;fill-opacity:1;stroke:none;font-family:Ubuntu;-inkscape-font-specification:Ubuntu"
       id="text5019" />
    <g
       transform="scale(1.1402577,0.87699474)"
       style="font-size:58.30134201px;font-style:normal;font-variant:normal;font-weight:normal;font-stretch:normal;line-height:125%;letter-spacing:0px;word-spacing:0px;fill:#000000;fill-opacity:1;stroke:none;font-family:Ubuntu;-inkscape-font-specification:Ubuntu"
       id="text5023" />
    <g
       transform="matrix(0,1,-1,0,0,0)"
       style="font-size:40px;font-style:normal;font-variant:normal;font-weight:normal;font-stretch:normal;line-height:125%;letter-spacing:0px;word-spacing:0px;fill:#000000;fill-opacity:1;stroke:none;font-family:Schluss-Vignetten;-inkscape-font-specification:Schluss-Vignetten"
       id="text5051" />
    <g
       transform="matrix(0,1,-1,0,0,0)"
       style="font-size:40px;font-style:normal;font-variant:normal;font-weight:normal;font-stretch:normal;line-height:125%;letter-spacing:0px;word-spacing:0px;fill:#000000;fill-opacity:1;stroke:none;font-family:Schluss-Vignetten;-inkscape-font-specification:Schluss-Vignetten"
       id="text5074" />
    <g
       transform="scale(1.1386819,0.8782084)"
       style="font-size:25.21687126px;font-style:normal;font-variant:normal;font-weight:normal;font-stretch:normal;line-height:125%;letter-spacing:0px;word-spacing:0px;fill:#000000;fill-opacity:1;stroke:none;font-family:Schluss-Vignetten;-inkscape-font-specification:Schluss-Vignetten"
       id="text5142" />
    <path
       style="fill:none;stroke:#000000;stroke-width:1px;stroke-linecap:butt;stroke-linejoin:miter;stroke-opacity:1"
       d="m 70.866142,3.0000011 0,70.8661419 70.866138,0"
       id="path3153"
       inkscape:connector-curvature="0"
       transform="translate(69.866122,891.37006)" />
    <path
       style="fill:none;stroke:#000000;stroke-width:1px;stroke-linecap:butt;stroke-linejoin:miter;stroke-opacity:1"
       d="m 134.64567,73.866143 0,-7.086614 -7.08661,0"
       id="path3155"
       inkscape:connector-curvature="0"
       transform="translate(69.866122,891.37006)" />
    <path
       inkscape:connector-curvature="0"
       id="path3157"
       d="m 197.42517,958.14959 0,-7.08662 -7.08661,0"
       style="fill:none;stroke:#000000;stroke-width:0.99212597999999996;stroke-linecap:square;stroke-linejoin:miter;stroke-opacity:1;stroke-miterlimit:4;stroke-dasharray:none" />
    <path
       style="fill:none;stroke:#000000;stroke-width:0.99212597999999996;stroke-linecap:square;stroke-linejoin:miter;stroke-opacity:1;stroke-miterlimit:4;stroke-dasharray:none"
       d="m 190.33856,951.06298 0,-7.08662 -7.08661,0"
       id="path3159"
       inkscape:connector-curvature="0" />
    <path
       inkscape:connector-curvature="0"
       id="path3161"
       d="m 183.25194,943.97637 0,-7.08662 -7.08661,0"
       style="fill:none;stroke:#000000;stroke-width:0.99212597999999996;stroke-linecap:square;stroke-linejoin:miter;stroke-opacity:1;stroke-miterlimit:4;stroke-dasharray:none" />
    <path
       style="fill:none;stroke:#000000;stroke-width:0.99212597999999996;stroke-linecap:square;stroke-linejoin:miter;stroke-opacity:1;stroke-miterlimit:4;stroke-dasharray:none"
       d="m 176.16533,936.88975 0,-7.08662 -7.08661,0"
       id="path3163"
       inkscape:connector-curvature="0" />
    <path
       inkscape:connector-curvature="0"
       id="path3165"
       d="m 169.07872,929.80314 0,-7.08662 -7.08661,0"
       style="fill:none;stroke:#000000;stroke-width:0.99212597999999996;stroke-linecap:square;stroke-linejoin:miter;stroke-opacity:1;stroke-miterlimit:4;stroke-dasharray:none" />
    <path
       style="fill:none;stroke:#000000;stroke-width:0.99212597999999996;stroke-linecap:square;stroke-linejoin:miter;stroke-opacity:1;stroke-miterlimit:4;stroke-dasharray:none"
       d="m 161.9921,922.71652 0,-7.08662 -7.08661,0"
       id="path3167"
       inkscape:connector-curvature="0" />
    <path
       inkscape:connector-curvature="0"
       id="path3169"
       d="m 154.90549,915.62991 0,-7.08662 -7.08661,0"
       style="fill:none;stroke:#000000;stroke-width:0.99212597999999996;stroke-linecap:square;stroke-linejoin:miter;stroke-opacity:1;stroke-miterlimit:4;stroke-dasharray:none" />
    <path
       style="fill:none;stroke:#000000;stroke-width:1px;stroke-linecap:butt;stroke-linejoin:miter;stroke-opacity:1"
       d="m 147.81887,908.5433 0,-7.08662 -7.08661,0"
       id="path3171"
       inkscape:connector-curvature="0" />
    <g
       id="g4152">
      <path
         id="path4039"
         d="m 157.46261,969.06301 0,-0.0124 0,-0.0103 0,-0.0103 0,-0.0103 0,-0.008 0,-0.0103 0,-0.0103 0,-0.008 0,-0.008 0,-0.0103 0,-0.008 0,-0.008 0,-0.0145 -0.007,-0.0145 0,-0.0145 -0.007,-0.0124 0,-0.0124 -0.007,-0.0124 -0.007,-0.0103 -0.007,-0.008 -0.013,-0.0103 -0.007,-0.008 -0.013,-0.008 -0.013,-0.006 -0.013,-0.006 -0.0196,-0.006 -0.013,-0.004 -0.0196,-0.004 -0.0261,-0.004 -0.0196,-0.004 -0.0261,-0.002 -0.0261,-0.004 -0.0336,-0.002 -0.0261,0 -0.0404,-0.002 -0.0336,0 -0.0404,-0.002 -0.0473,0 c -2.04136,-0.0103 -5.36281,-0.093 -8.38783,-0.54585 -3.62462,-0.55618 -4.999,-1.20541 -5.83441,-1.60653 -0.10101,-0.0517 -0.30303,-0.0517 -0.7411,-0.0517 -0.76802,0 -0.80846,0.0103 -0.80846,0.26879 v 0.16334 c 4.56784,2.52455 12.12024,3.00837 15.54273,3.00837 0.70067,0 0.70067,-0.0103 0.70067,-0.2874 z"
         inkscape:connector-curvature="0"
         style="font-style:normal;font-variant:normal;font-weight:normal;font-stretch:normal;letter-spacing:normal;word-spacing:normal;text-anchor:start;fill:#000000;stroke:#000000;stroke-width:0;stroke-linecap:butt;stroke-linejoin:miter;stroke-miterlimit:10.43299961;stroke-opacity:1;stroke-dasharray:none;stroke-dashoffset:0" />
      <polyline
         id="polyline4041"
         points="478,385 483.04,385 483.04,391 478,391 "
         style="font-style:normal;font-variant:normal;font-weight:normal;font-stretch:normal;letter-spacing:normal;word-spacing:normal;text-anchor:start;fill:#000000;fill-rule:nonzero;stroke:#000000;stroke-width:0;stroke-linecap:butt;stroke-linejoin:miter;stroke-miterlimit:10.43299961;stroke-opacity:1;stroke-dasharray:none;stroke-dashoffset:0"
         transform="matrix(0.67372075,0,0,-0.2067604,-165.18898,1049.6127)" />
      <path
         id="path4043"
         d="m 176.12469,971.78191 -0.43119,-0.23157 -0.45814,-0.21917 -0.46485,-0.20676 -0.48509,-0.19642 -0.4918,-0.18608 -0.50532,-0.17575 -0.512,-0.16541 -0.52553,-0.153 -0.52549,-0.1468 -0.53898,-0.13439 -0.53898,-0.1282 -0.53895,-0.11785 -0.54573,-0.10958 -0.54573,-0.10131 -0.54569,-0.0931 -0.54573,-0.0848 -0.53898,-0.0786 -0.53224,-0.0703 -0.52549,-0.0641 -0.52549,-0.0579 -0.51203,-0.0517 -0.50529,-0.0455 -0.49184,-0.0393 -0.47834,-0.0352 -0.46485,-0.0289 -0.4514,-0.0248 -0.43119,-0.0207 -0.4177,-0.0145 -0.3975,-0.0124 -0.37726,-0.008 -0.3571,-0.004 -0.33011,-0.002 c -0.70742,0 -0.70742,0.0103 -0.70742,0.28946 v 0.65957 c 0,0.23571 0,0.2874 0.47163,0.2874 2.04811,0.0103 5.36956,0.093 8.38781,0.54584 3.62461,0.55619 4.999,1.20542 5.84115,1.60653 0.10101,0.0517 0.30336,0.0517 0.73435,0.0517 0.7748,0 0.80849,-0.0103 0.80849,-0.26879 z"
         inkscape:connector-curvature="0"
         style="font-style:normal;font-variant:normal;font-weight:normal;font-stretch:normal;letter-spacing:normal;word-spacing:normal;text-anchor:start;fill:#000000;stroke:#000000;stroke-width:0;stroke-linecap:butt;stroke-linejoin:miter;stroke-miterlimit:10.43299961;stroke-opacity:1;stroke-dasharray:none;stroke-dashoffset:0" />
      <path
         id="path4045"
         d="m 190.47493,969.06301 0,-0.0124 0,-0.0124 0,-0.0124 0,-0.0124 0,-0.0103 0,-0.0124 0,-0.0103 0,-0.0103 0,-0.0103 0,-0.008 0,-0.0103 0,-0.008 0,-0.008 -0.007,-0.008 0,-0.008 0,-0.008 -0.007,-0.006 0,-0.008 0,-0.006 -0.007,-0.006 0,-0.006 -0.007,-0.006 0,-0.006 -0.007,-0.006 -0.007,-0.004 -0.007,-0.004 0,-0.006 -0.007,-0.004 -0.013,-0.008 -0.0196,-0.006 -0.013,-0.008 -0.0196,-0.004 -0.0261,-0.006 -0.0195,-0.004 -0.0261,-0.004 -0.0336,-0.002 -0.0261,-0.004 -0.0404,-0.002 -0.0404,-0.002 -0.0195,0 -0.0196,0 -0.0196,-0.002 -0.0195,0 -0.0261,0 -0.0261,0 -0.0261,0 -0.0261,0 -0.0261,-0.002 -0.0261,0 -0.0261,0 -0.0336,0 -0.0261,0 -0.0336,0 c -3.42924,0 -10.97489,0.49416 -15.54273,3.00836 v 0.16334 c 0,0.25845 0.0404,0.26879 0.80845,0.26879 0.64003,0 0.67372,-0.0103 0.84215,-0.0827 2.74877,-1.35015 7.37726,-2.08001 14.19529,-2.12136 0.3975,0 0.3975,-0.0724 0.3975,-0.2874 z"
         inkscape:connector-curvature="0"
         style="font-style:normal;font-variant:normal;font-weight:normal;font-stretch:normal;letter-spacing:normal;word-spacing:normal;text-anchor:start;fill:#000000;stroke:#000000;stroke-width:0;stroke-linecap:butt;stroke-linejoin:miter;stroke-miterlimit:10.43299961;stroke-opacity:1;stroke-dasharray:none;stroke-dashoffset:0" />
      <polyline
         id="polyline4047"
         points="528,385 533.04,385 533.04,391 528,391 "
         style="font-style:normal;font-variant:normal;font-weight:normal;font-stretch:normal;letter-spacing:normal;word-spacing:normal;text-anchor:start;fill:#000000;fill-rule:nonzero;stroke:#000000;stroke-width:0;stroke-linecap:butt;stroke-linejoin:miter;stroke-miterlimit:10.43299961;stroke-opacity:1;stroke-dasharray:none;stroke-dashoffset:0"
         transform="matrix(0.67372075,0,0,-0.2067604,-165.18898,1049.6127)" />
      <path
         id="path4049"
         d="m 209.81073,966.83827 0,-0.0124 0,-0.0124 0,-0.0103 0,-0.0103 0,-0.0103 0,-0.0103 0,-0.0103 0,-0.0103 0,-0.008 0,-0.008 -0.007,-0.008 0,-0.008 0,-0.008 -0.007,-0.008 0,-0.008 0,-0.006 -0.007,-0.006 0,-0.006 -0.007,-0.008 0,-0.004 -0.007,-0.006 -0.007,-0.006 -0.007,-0.0103 -0.013,-0.008 -0.013,-0.0103 -0.0195,-0.006 -0.0196,-0.008 -0.0196,-0.006 -0.0195,-0.004 -0.0261,-0.006 -0.0261,-0.004 -0.0336,-0.002 -0.0336,-0.004 -0.0336,-0.002 -0.0404,-0.002 -0.0261,0 -0.0196,-0.002 -0.0196,0 -0.0261,0 -0.0261,-0.002 -0.0196,0 -0.0261,0 -0.0261,0 -0.0336,0 -0.0261,0 -0.0336,-0.002 -0.0261,0 -0.0336,0 -0.0336,0 -0.0336,0 -0.0404,0 c -0.63328,0 -0.66697,0.0103 -0.8354,0.0827 -2.74877,1.35014 -7.38397,2.08001 -14.19529,2.12136 -0.40425,0 -0.40425,0.0724 -0.40425,0.28946 v 0.65957 c 0,0.27706 0,0.2874 0.70742,0.2874 3.42249,0 10.97492,-0.49416 15.53601,-3.00837 z"
         inkscape:connector-curvature="0"
         style="font-style:normal;font-variant:normal;font-weight:normal;font-stretch:normal;letter-spacing:normal;word-spacing:normal;text-anchor:start;fill:#000000;stroke:#000000;stroke-width:0;stroke-linecap:butt;stroke-linejoin:miter;stroke-miterlimit:10.43299961;stroke-opacity:1;stroke-dasharray:none;stroke-dashoffset:0" />
    </g>
    <g
       transform="matrix(0,1,-1,0,1105.8656,754.9164)"
       id="g4160">
      <path
         style="font-style:normal;font-variant:normal;font-weight:normal;font-stretch:normal;letter-spacing:normal;word-spacing:normal;text-anchor:start;fill:#000000;stroke:#000000;stroke-width:0;stroke-linecap:butt;stroke-linejoin:miter;stroke-miterlimit:10.43299961;stroke-opacity:1;stroke-dasharray:none;stroke-dashoffset:0"
         inkscape:connector-curvature="0"
         d="m 157.46261,969.06301 0,-0.0124 0,-0.0103 0,-0.0103 0,-0.0103 0,-0.008 0,-0.0103 0,-0.0103 0,-0.008 0,-0.008 0,-0.0103 0,-0.008 0,-0.008 0,-0.0145 -0.007,-0.0145 0,-0.0145 -0.007,-0.0124 0,-0.0124 -0.007,-0.0124 -0.007,-0.0103 -0.007,-0.008 -0.013,-0.0103 -0.007,-0.008 -0.013,-0.008 -0.013,-0.006 -0.013,-0.006 -0.0196,-0.006 -0.013,-0.004 -0.0196,-0.004 -0.0261,-0.004 -0.0196,-0.004 -0.0261,-0.002 -0.0261,-0.004 -0.0336,-0.002 -0.0261,0 -0.0404,-0.002 -0.0336,0 -0.0404,-0.002 -0.0473,0 c -2.04136,-0.0103 -5.36281,-0.093 -8.38783,-0.54585 -3.62462,-0.55618 -4.999,-1.20541 -5.83441,-1.60653 -0.10101,-0.0517 -0.30303,-0.0517 -0.7411,-0.0517 -0.76802,0 -0.80846,0.0103 -0.80846,0.26879 v 0.16334 c 4.56784,2.52455 12.12024,3.00837 15.54273,3.00837 0.70067,0 0.70067,-0.0103 0.70067,-0.2874 z"
         id="path4162" />
      <polyline
         transform="matrix(0.67372075,0,0,-0.2067604,-165.18898,1049.6127)"
         style="font-style:normal;font-variant:normal;font-weight:normal;font-stretch:normal;letter-spacing:normal;word-spacing:normal;text-anchor:start;fill:#000000;fill-rule:nonzero;stroke:#000000;stroke-width:0;stroke-linecap:butt;stroke-linejoin:miter;stroke-miterlimit:10.43299961;stroke-opacity:1;stroke-dasharray:none;stroke-dashoffset:0"
         points="478,385 483.04,385 483.04,391 478,391 "
         id="polyline4164" />
      <path
         style="font-style:normal;font-variant:normal;font-weight:normal;font-stretch:normal;letter-spacing:normal;word-spacing:normal;text-anchor:start;fill:#000000;stroke:#000000;stroke-width:0;stroke-linecap:butt;stroke-linejoin:miter;stroke-miterlimit:10.43299961;stroke-opacity:1;stroke-dasharray:none;stroke-dashoffset:0"
         inkscape:connector-curvature="0"
         d="m 176.12469,971.78191 -0.43119,-0.23157 -0.45814,-0.21917 -0.46485,-0.20676 -0.48509,-0.19642 -0.4918,-0.18608 -0.50532,-0.17575 -0.512,-0.16541 -0.52553,-0.153 -0.52549,-0.1468 -0.53898,-0.13439 -0.53898,-0.1282 -0.53895,-0.11785 -0.54573,-0.10958 -0.54573,-0.10131 -0.54569,-0.0931 -0.54573,-0.0848 -0.53898,-0.0786 -0.53224,-0.0703 -0.52549,-0.0641 -0.52549,-0.0579 -0.51203,-0.0517 -0.50529,-0.0455 -0.49184,-0.0393 -0.47834,-0.0352 -0.46485,-0.0289 -0.4514,-0.0248 -0.43119,-0.0207 -0.4177,-0.0145 -0.3975,-0.0124 -0.37726,-0.008 -0.3571,-0.004 -0.33011,-0.002 c -0.70742,0 -0.70742,0.0103 -0.70742,0.28946 v 0.65957 c 0,0.23571 0,0.2874 0.47163,0.2874 2.04811,0.0103 5.36956,0.093 8.38781,0.54584 3.62461,0.55619 4.999,1.20542 5.84115,1.60653 0.10101,0.0517 0.30336,0.0517 0.73435,0.0517 0.7748,0 0.80849,-0.0103 0.80849,-0.26879 z"
         id="path4166" />
      <path
         style="font-style:normal;font-variant:normal;font-weight:normal;font-stretch:normal;letter-spacing:normal;word-spacing:normal;text-anchor:start;fill:#000000;stroke:#000000;stroke-width:0;stroke-linecap:butt;stroke-linejoin:miter;stroke-miterlimit:10.43299961;stroke-opacity:1;stroke-dasharray:none;stroke-dashoffset:0"
         inkscape:connector-curvature="0"
         d="m 190.47493,969.06301 0,-0.0124 0,-0.0124 0,-0.0124 0,-0.0124 0,-0.0103 0,-0.0124 0,-0.0103 0,-0.0103 0,-0.0103 0,-0.008 0,-0.0103 0,-0.008 0,-0.008 -0.007,-0.008 0,-0.008 0,-0.008 -0.007,-0.006 0,-0.008 0,-0.006 -0.007,-0.006 0,-0.006 -0.007,-0.006 0,-0.006 -0.007,-0.006 -0.007,-0.004 -0.007,-0.004 0,-0.006 -0.007,-0.004 -0.013,-0.008 -0.0196,-0.006 -0.013,-0.008 -0.0196,-0.004 -0.0261,-0.006 -0.0195,-0.004 -0.0261,-0.004 -0.0336,-0.002 -0.0261,-0.004 -0.0404,-0.002 -0.0404,-0.002 -0.0195,0 -0.0196,0 -0.0196,-0.002 -0.0195,0 -0.0261,0 -0.0261,0 -0.0261,0 -0.0261,0 -0.0261,-0.002 -0.0261,0 -0.0261,0 -0.0336,0 -0.0261,0 -0.0336,0 c -3.42924,0 -10.97489,0.49416 -15.54273,3.00836 v 0.16334 c 0,0.25845 0.0404,0.26879 0.80845,0.26879 0.64003,0 0.67372,-0.0103 0.84215,-0.0827 2.74877,-1.35015 7.37726,-2.08001 14.19529,-2.12136 0.3975,0 0.3975,-0.0724 0.3975,-0.2874 z"
         id="path4168" />
      <polyline
         transform="matrix(0.67372075,0,0,-0.2067604,-165.18898,1049.6127)"
         style="font-style:normal;font-variant:normal;font-weight:normal;font-stretch:normal;letter-spacing:normal;word-spacing:normal;text-anchor:start;fill:#000000;fill-rule:nonzero;stroke:#000000;stroke-width:0;stroke-linecap:butt;stroke-linejoin:miter;stroke-miterlimit:10.43299961;stroke-opacity:1;stroke-dasharray:none;stroke-dashoffset:0"
         points="528,385 533.04,385 533.04,391 528,391 "
         id="polyline4170" />
      <path
         style="font-style:normal;font-variant:normal;font-weight:normal;font-stretch:normal;letter-spacing:normal;word-spacing:normal;text-anchor:start;fill:#000000;stroke:#000000;stroke-width:0;stroke-linecap:butt;stroke-linejoin:miter;stroke-miterlimit:10.43299961;stroke-opacity:1;stroke-dasharray:none;stroke-dashoffset:0"
         inkscape:connector-curvature="0"
         d="m 209.81073,966.83827 0,-0.0124 0,-0.0124 0,-0.0103 0,-0.0103 0,-0.0103 0,-0.0103 0,-0.0103 0,-0.0103 0,-0.008 0,-0.008 -0.007,-0.008 0,-0.008 0,-0.008 -0.007,-0.008 0,-0.008 0,-0.006 -0.007,-0.006 0,-0.006 -0.007,-0.008 0,-0.004 -0.007,-0.006 -0.007,-0.006 -0.007,-0.0103 -0.013,-0.008 -0.013,-0.0103 -0.0195,-0.006 -0.0196,-0.008 -0.0196,-0.006 -0.0195,-0.004 -0.0261,-0.006 -0.0261,-0.004 -0.0336,-0.002 -0.0336,-0.004 -0.0336,-0.002 -0.0404,-0.002 -0.0261,0 -0.0196,-0.002 -0.0196,0 -0.0261,0 -0.0261,-0.002 -0.0196,0 -0.0261,0 -0.0261,0 -0.0336,0 -0.0261,0 -0.0336,-0.002 -0.0261,0 -0.0336,0 -0.0336,0 -0.0336,0 -0.0404,0 c -0.63328,0 -0.66697,0.0103 -0.8354,0.0827 -2.74877,1.35014 -7.38397,2.08001 -14.19529,2.12136 -0.40425,0 -0.40425,0.0724 -0.40425,0.28946 v 0.65957 c 0,0.27706 0,0.2874 0.70742,0.2874 3.42249,0 10.97492,-0.49416 15.53601,-3.00837 z"
         id="path4172" />
    </g>
    <g
       id="g4269"
       transform="translate(103.59263,771.82666)">
      <g
         word-spacing="normal"
         letter-spacing="normal"
         font-size-adjust="none"
         font-stretch="normal"
         font-weight="normal"
         font-variant="normal"
         font-style="normal"
         stroke-miterlimit="10.433"
         xml:space="preserve"
         transform="matrix(0.2067604,0,0,-0.2067604,-36.18307,293.07284)"
         id="content"
         style="font-style:normal;font-variant:normal;font-weight:normal;font-stretch:normal;letter-spacing:normal;word-spacing:normal;text-anchor:start;fill:none;stroke:#000000;stroke-linecap:butt;stroke-linejoin:miter;stroke-miterlimit:10.43299961;stroke-opacity:1;stroke-dasharray:none;stroke-dashoffset:0"><path
           id="path4272"
           d="m 460.38,408.94 -0.01,-0.07 -0.02,-0.08 -0.01,-0.07 -0.02,-0.08 -0.03,-0.16 -0.04,-0.16 -0.04,-0.16 -0.03,-0.16 -0.04,-0.16 -0.04,-0.16 -0.01,-0.08 -0.02,-0.07 -0.02,-0.07 -0.01,-0.07 -0.02,-0.07 -0.01,-0.07 -0.01,-0.06 -0.02,-0.06 -0.01,-0.05 -0.01,-0.06 -0.01,-0.05 0,-0.04 -0.01,-0.04 0,-0.04 -0.01,-0.03 0,-0.02 c 0,-0.9 0.7,-1.35 1.45,-1.35 0.6,0 1.5,0.4 1.84,1.4 0.05,0.1 0.65,2.44 0.95,3.68 l 1.1,4.49 c 0.29,1.09 0.59,2.19 0.84,3.34 0.2,0.84 0.6,2.28 0.65,2.48 0.75,1.55 3.39,6.08 8.12,6.08 2.24,0 2.69,-1.84 2.69,-3.49 0,-3.08 -2.44,-9.46 -3.24,-11.6 -0.45,-1.15 -0.5,-1.74 -0.5,-2.29 0,-2.34 1.75,-4.09 4.09,-4.09 4.68,0 6.52,7.28 6.52,7.67 0,0.5 -0.44,0.5 -0.6,0.5 -0.49,0 -0.49,-0.15 -0.74,-0.89 -1,-3.39 -2.64,-6.18 -5.08,-6.18 -0.85,0 -1.2,0.5 -1.2,1.64 0,1.25 0.45,2.44 0.9,3.54 0.94,2.64 3.04,8.12 3.04,10.96 0,3.33 -2.15,5.33 -5.73,5.33 -4.48,0 -6.92,-3.19 -7.77,-4.34 -0.25,2.79 -2.3,4.34 -4.58,4.34 -2.3,0 -3.24,-1.95 -3.74,-2.84 -0.8,-1.7 -1.49,-4.63 -1.49,-4.83 0,-0.5 0.49,-0.5 0.59,-0.5 0.5,0 0.55,0.05 0.85,1.14 0.84,3.54 1.84,5.93 3.64,5.93 0.99,0 1.54,-0.65 1.54,-2.29 0,-1.04 -0.15,-1.59 -0.8,-4.18 z"
           inkscape:connector-curvature="0"
           style="fill:#000000;stroke-width:0" /><path
           id="path4274"
           d="m 533.22,422.29 0.14,0 0.15,0 0.15,0.01 0.07,0 0.07,0 0.07,0.01 0.08,0.01 0.07,0.01 0.07,0.01 0.06,0.02 0.07,0.01 0.07,0.02 0.06,0.02 0.06,0.03 0.06,0.03 0.05,0.03 0.06,0.03 0.05,0.04 0.04,0.04 0.05,0.05 0.03,0.05 0.02,0.03 0.02,0.02 0.02,0.03 0.01,0.03 0.02,0.03 0.01,0.04 0.01,0.03 0.01,0.04 0.01,0.03 0.01,0.04 0.01,0.04 0,0.04 0.01,0.04 0,0.04 0,0.05 0,0.05 c 0,0.99 -0.94,0.99 -1.64,0.99 h -29.84 c -0.7,0 -1.64,0 -1.64,-0.99 0,-1 0.94,-1 1.69,-1 z"
           inkscape:connector-curvature="0"
           style="fill:#000000;stroke-width:0" /><path
           id="path4276"
           d="m 533.27,412.62 0.13,0.01 0.14,0 0.14,0 0.07,0.01 0.07,0 0.07,0.01 0.07,0.01 0.07,0.01 0.07,0.01 0.06,0.01 0.07,0.02 0.06,0.02 0.06,0.02 0.06,0.02 0.06,0.03 0.06,0.03 0.05,0.04 0.05,0.04 0.04,0.04 0.05,0.04 0.02,0.03 0.02,0.03 0.01,0.02 0.02,0.03 0.02,0.03 0.01,0.03 0.02,0.03 0.01,0.03 0.01,0.04 0.01,0.03 0.01,0.04 0.01,0.04 0.01,0.04 0,0.04 0.01,0.04 0,0.04 0,0.05 0,0.04 c 0,1 -0.94,1 -1.69,1 h -29.74 c -0.75,0 -1.69,0 -1.69,-1 0,-1 0.94,-1 1.64,-1 z"
           inkscape:connector-curvature="0"
           style="fill:#000000;stroke-width:0" /><path
           id="path4278"
           d="m 566.65,437.88 0,0.05 -0.01,0.06 0,0.05 0,0.05 0,0.05 0,0.05 0,0.04 0,0.05 0,0.04 0,0.04 0,0.04 0,0.04 0,0.04 -0.01,0.04 0,0.03 0,0.04 -0.01,0.03 0,0.03 -0.01,0.06 -0.01,0.05 -0.02,0.05 -0.01,0.05 -0.02,0.04 -0.02,0.04 -0.03,0.04 -0.03,0.03 -0.03,0.02 -0.03,0.03 -0.04,0.02 -0.05,0.02 -0.02,0.01 -0.03,0.01 -0.02,0 -0.03,0.01 -0.03,0.01 -0.03,0 -0.03,0.01 -0.03,0 -0.03,0.01 -0.04,0 -0.04,0 -0.03,0 -0.04,0.01 -0.04,0 -0.04,0 -0.05,0 -0.04,0 -0.05,0 -0.05,0.01 -0.05,0 -0.05,0 -0.05,0 c -3.09,-3.19 -7.47,-3.19 -9.07,-3.19 v -1.55 c 1,0 3.94,0 6.53,1.3 v -25.81 c 0,-1.79 -0.15,-2.39 -4.63,-2.39 h -1.6 V 406 h 16.14 v 1.54 h -1.59 c -4.49,0 -4.63,0.55 -4.63,2.39 z"
           inkscape:connector-curvature="0"
           style="fill:#000000;stroke-width:0" /><path
           id="path4280"
           d="m 599.91,421.94 0,0.75 -0.01,0.74 -0.02,0.75 -0.03,0.74 -0.05,0.75 -0.06,0.74 -0.07,0.74 -0.1,0.73 -0.11,0.73 -0.14,0.73 -0.16,0.72 -0.19,0.72 -0.22,0.71 -0.24,0.71 -0.28,0.7 -0.15,0.35 -0.16,0.35 c -2.29,4.78 -6.37,5.58 -8.47,5.58 -2.98,0 -6.62,-1.3 -8.67,-5.93 -1.59,-3.44 -1.84,-7.32 -1.84,-11.31 0,-3.74 0.2,-8.22 2.24,-12.01 2.15,-4.03 5.78,-5.03 8.22,-5.03 v 1.1 c -1.94,0 -4.88,1.25 -5.78,6.03 -0.54,2.99 -0.54,7.57 -0.54,10.51 0,3.19 0,6.47 0.4,9.16 0.94,5.93 4.68,6.38 5.92,6.38 1.65,0 4.94,-0.9 5.88,-5.83 0.5,-2.79 0.5,-6.57 0.5,-9.71 0,-3.74 0,-7.13 -0.55,-10.31 -0.75,-4.73 -3.58,-6.23 -5.83,-6.23 h 0 v -1.1 c 2.69,0 6.48,1.05 8.67,5.78 1.59,3.44 1.84,7.32 1.84,11.26 z"
           inkscape:connector-curvature="0"
           style="fill:#000000;stroke-width:0" /></g>    </g>
    <g
       transform="translate(41.584757,723.99088)"
       id="g4380">
      <g
         style="font-style:normal;font-variant:normal;font-weight:normal;font-stretch:normal;letter-spacing:normal;word-spacing:normal;text-anchor:start;fill:none;stroke:#000000;stroke-linecap:butt;stroke-linejoin:miter;stroke-miterlimit:10.43299961;stroke-opacity:1;stroke-dasharray:none;stroke-dashoffset:0"
         id="g4382"
         transform="matrix(0.2067604,0,0,-0.2067604,-36.18307,293.07284)"
         xml:space="preserve"
         stroke-miterlimit="10.433"
         font-style="normal"
         font-variant="normal"
         font-weight="normal"
         font-stretch="normal"
         font-size-adjust="none"
         letter-spacing="normal"
         word-spacing="normal"><path
           style="fill:#000000;stroke-width:0"
           inkscape:connector-curvature="0"
           d="m 460.38,408.94 -0.01,-0.07 -0.02,-0.08 -0.01,-0.07 -0.02,-0.08 -0.03,-0.16 -0.04,-0.16 -0.04,-0.16 -0.03,-0.16 -0.04,-0.16 -0.04,-0.16 -0.01,-0.08 -0.02,-0.07 -0.02,-0.07 -0.01,-0.07 -0.02,-0.07 -0.01,-0.07 -0.01,-0.06 -0.02,-0.06 -0.01,-0.05 -0.01,-0.06 -0.01,-0.05 0,-0.04 -0.01,-0.04 0,-0.04 -0.01,-0.03 0,-0.02 c 0,-0.9 0.7,-1.35 1.45,-1.35 0.6,0 1.5,0.4 1.84,1.4 0.05,0.1 0.65,2.44 0.95,3.68 l 1.1,4.49 c 0.29,1.09 0.59,2.19 0.84,3.34 0.2,0.84 0.6,2.28 0.65,2.48 0.75,1.55 3.39,6.08 8.12,6.08 2.24,0 2.69,-1.84 2.69,-3.49 0,-3.08 -2.44,-9.46 -3.24,-11.6 -0.45,-1.15 -0.5,-1.74 -0.5,-2.29 0,-2.34 1.75,-4.09 4.09,-4.09 4.68,0 6.52,7.28 6.52,7.67 0,0.5 -0.44,0.5 -0.6,0.5 -0.49,0 -0.49,-0.15 -0.74,-0.89 -1,-3.39 -2.64,-6.18 -5.08,-6.18 -0.85,0 -1.2,0.5 -1.2,1.64 0,1.25 0.45,2.44 0.9,3.54 0.94,2.64 3.04,8.12 3.04,10.96 0,3.33 -2.15,5.33 -5.73,5.33 -4.48,0 -6.92,-3.19 -7.77,-4.34 -0.25,2.79 -2.3,4.34 -4.58,4.34 -2.3,0 -3.24,-1.95 -3.74,-2.84 -0.8,-1.7 -1.49,-4.63 -1.49,-4.83 0,-0.5 0.49,-0.5 0.59,-0.5 0.5,0 0.55,0.05 0.85,1.14 0.84,3.54 1.84,5.93 3.64,5.93 0.99,0 1.54,-0.65 1.54,-2.29 0,-1.04 -0.15,-1.59 -0.8,-4.18 z"
           id="path4384" /><path
           style="fill:#000000;stroke-width:0"
           inkscape:connector-curvature="0"
           d="m 533.22,422.29 0.14,0 0.15,0 0.15,0.01 0.07,0 0.07,0 0.07,0.01 0.08,0.01 0.07,0.01 0.07,0.01 0.06,0.02 0.07,0.01 0.07,0.02 0.06,0.02 0.06,0.03 0.06,0.03 0.05,0.03 0.06,0.03 0.05,0.04 0.04,0.04 0.05,0.05 0.03,0.05 0.02,0.03 0.02,0.02 0.02,0.03 0.01,0.03 0.02,0.03 0.01,0.04 0.01,0.03 0.01,0.04 0.01,0.03 0.01,0.04 0.01,0.04 0,0.04 0.01,0.04 0,0.04 0,0.05 0,0.05 c 0,0.99 -0.94,0.99 -1.64,0.99 h -29.84 c -0.7,0 -1.64,0 -1.64,-0.99 0,-1 0.94,-1 1.69,-1 z"
           id="path4386" /><path
           style="fill:#000000;stroke-width:0"
           inkscape:connector-curvature="0"
           d="m 533.27,412.62 0.13,0.01 0.14,0 0.14,0 0.07,0.01 0.07,0 0.07,0.01 0.07,0.01 0.07,0.01 0.07,0.01 0.06,0.01 0.07,0.02 0.06,0.02 0.06,0.02 0.06,0.02 0.06,0.03 0.06,0.03 0.05,0.04 0.05,0.04 0.04,0.04 0.05,0.04 0.02,0.03 0.02,0.03 0.01,0.02 0.02,0.03 0.02,0.03 0.01,0.03 0.02,0.03 0.01,0.03 0.01,0.04 0.01,0.03 0.01,0.04 0.01,0.04 0.01,0.04 0,0.04 0.01,0.04 0,0.04 0,0.05 0,0.04 c 0,1 -0.94,1 -1.69,1 h -29.74 c -0.75,0 -1.69,0 -1.69,-1 0,-1 0.94,-1 1.64,-1 z"
           id="path4388" /><path
           style="fill:#000000;stroke-width:0"
           inkscape:connector-curvature="0"
           d="m 566.65,437.88 0,0.05 -0.01,0.06 0,0.05 0,0.05 0,0.05 0,0.05 0,0.04 0,0.05 0,0.04 0,0.04 0,0.04 0,0.04 0,0.04 -0.01,0.04 0,0.03 0,0.04 -0.01,0.03 0,0.03 -0.01,0.06 -0.01,0.05 -0.02,0.05 -0.01,0.05 -0.02,0.04 -0.02,0.04 -0.03,0.04 -0.03,0.03 -0.03,0.02 -0.03,0.03 -0.04,0.02 -0.05,0.02 -0.02,0.01 -0.03,0.01 -0.02,0 -0.03,0.01 -0.03,0.01 -0.03,0 -0.03,0.01 -0.03,0 -0.03,0.01 -0.04,0 -0.04,0 -0.03,0 -0.04,0.01 -0.04,0 -0.04,0 -0.05,0 -0.04,0 -0.05,0 -0.05,0.01 -0.05,0 -0.05,0 -0.05,0 c -3.09,-3.19 -7.47,-3.19 -9.07,-3.19 v -1.55 c 1,0 3.94,0 6.53,1.3 v -25.81 c 0,-1.79 -0.15,-2.39 -4.63,-2.39 h -1.6 V 406 h 16.14 v 1.54 h -1.59 c -4.49,0 -4.63,0.55 -4.63,2.39 z"
           id="path4390" /><path
           style="fill:#000000;stroke-width:0"
           inkscape:connector-curvature="0"
           d="m 599.91,421.94 0,0.75 -0.01,0.74 -0.02,0.75 -0.03,0.74 -0.05,0.75 -0.06,0.74 -0.07,0.74 -0.1,0.73 -0.11,0.73 -0.14,0.73 -0.16,0.72 -0.19,0.72 -0.22,0.71 -0.24,0.71 -0.28,0.7 -0.15,0.35 -0.16,0.35 c -2.29,4.78 -6.37,5.58 -8.47,5.58 -2.98,0 -6.62,-1.3 -8.67,-5.93 -1.59,-3.44 -1.84,-7.32 -1.84,-11.31 0,-3.74 0.2,-8.22 2.24,-12.01 2.15,-4.03 5.78,-5.03 8.22,-5.03 v 1.1 c -1.94,0 -4.88,1.25 -5.78,6.03 -0.54,2.99 -0.54,7.57 -0.54,10.51 0,3.19 0,6.47 0.4,9.16 0.94,5.93 4.68,6.38 5.92,6.38 1.65,0 4.94,-0.9 5.88,-5.83 0.5,-2.79 0.5,-6.57 0.5,-9.71 0,-3.74 0,-7.13 -0.55,-10.31 -0.75,-4.73 -3.58,-6.23 -5.83,-6.23 h 0 v -1.1 c 2.69,0 6.48,1.05 8.67,5.78 1.59,3.44 1.84,7.32 1.84,11.26 z"
           id="path4392" /></g>    </g>
  </g>
</svg>
