<?xml version="1.0" encoding="UTF-8" standalone="no"?>
<!-- Created with Inkscape (http://www.inkscape.org/) -->

<svg
   xmlns:osb="http://www.openswatchbook.org/uri/2009/osb"
   xmlns:dc="http://purl.org/dc/elements/1.1/"
   xmlns:cc="http://creativecommons.org/ns#"
   xmlns:rdf="http://www.w3.org/1999/02/22-rdf-syntax-ns#"
   xmlns:svg="http://www.w3.org/2000/svg"
   xmlns="http://www.w3.org/2000/svg"
   xmlns:sodipodi="http://sodipodi.sourceforge.net/DTD/sodipodi-0.dtd"
   xmlns:inkscape="http://www.inkscape.org/namespaces/inkscape"
   width="43.412258"
   height="42.616058"
   id="svg2"
   version="1.1"
   inkscape:version="0.48.1 r9760"
   sodipodi:docname="fptransMinEGCell2.svg">
  <defs
     id="defs4">
    <marker
       inkscape:stockid="Arrow2Mend"
       orient="auto"
       refY="0"
       refX="0"
       id="Arrow2Mend"
       style="overflow:visible">
      <path
         id="path3846"
         style="font-size:12px;fill-rule:evenodd;stroke-width:0.625;stroke-linejoin:round"
         d="M 8.7185878,4.0337352 -2.2072895,0.01601326 8.7185884,-4.0017078 c -1.7454984,2.3720609 -1.7354408,5.6174519 -6e-7,8.035443 z"
         transform="scale(-0.6,-0.6)"
         inkscape:connector-curvature="0" />
    </marker>
    <marker
       inkscape:stockid="Arrow2Mstart"
       orient="auto"
       refY="0"
       refX="0"
       id="Arrow2Mstart"
       style="overflow:visible">
      <path
         id="path4262"
         style="font-size:12px;fill-rule:evenodd;stroke-width:0.625;stroke-linejoin:round"
         d="M 8.7185878,4.0337352 -2.2072895,0.01601326 8.7185884,-4.0017078 c -1.7454984,2.3720609 -1.7354408,5.6174519 -6e-7,8.035443 z"
         transform="scale(0.6,0.6)"
         inkscape:connector-curvature="0" />
    </marker>
    <marker
       inkscape:stockid="Arrow2Sstart"
       orient="auto"
       refY="0"
       refX="0"
       id="Arrow2Sstart"
       style="overflow:visible">
      <path
         id="path4077"
         style="font-size:12px;fill-rule:evenodd;stroke-width:0.625;stroke-linejoin:round"
         d="M 8.7185878,4.0337352 -2.2072895,0.01601326 8.7185884,-4.0017078 c -1.7454984,2.3720609 -1.7354408,5.6174519 -6e-7,8.035443 z"
         transform="matrix(0.3,0,0,0.3,-0.69,0)"
         inkscape:connector-curvature="0" />
    </marker>
    <linearGradient
       id="linearGradient4015">
      <stop
         id="stop4025"
         offset="0"
         style="stop-color:#000000;stop-opacity:1;" />
      <stop
         style="stop-color:#000000;stop-opacity:0.99607843;"
         offset="0.00003052"
         id="stop4081" />
      <stop
         style="stop-color:#000000;stop-opacity:0.99215686;"
         offset="0.00006103"
         id="stop4079" />
      <stop
         style="stop-color:#000000;stop-opacity:0.98823529;"
         offset="0.00012207"
         id="stop4077" />
      <stop
         style="stop-color:#000000;stop-opacity:0.98039216;"
         offset="0.00024414"
         id="stop4075" />
      <stop
         style="stop-color:#000000;stop-opacity:0.96470588;"
         offset="0.00048828"
         id="stop4073" />
      <stop
         style="stop-color:#000000;stop-opacity:0.93333333;"
         offset="0.00097656"
         id="stop4071" />
      <stop
         style="stop-color:#000000;stop-opacity:0.87058824;"
         offset="0.00195312"
         id="stop4069" />
      <stop
         style="stop-color:#000000;stop-opacity:0.74509804;"
         offset="0.00390625"
         id="stop4067" />
      <stop
         style="stop-color:#000000;stop-opacity:0.49411765;"
         offset="0.0078125"
         id="stop4065" />
      <stop
         style="stop-color:#000000;stop-opacity:0.49019608;"
         offset="0.015625"
         id="stop4063" />
      <stop
         style="stop-color:#000000;stop-opacity:0.48235294;"
         offset="0.03125"
         id="stop4061" />
      <stop
         style="stop-color:#000000;stop-opacity:0.46666667;"
         offset="0.0625"
         id="stop4059" />
      <stop
         style="stop-color:#000000;stop-opacity:0.43529412;"
         offset="0.125"
         id="stop4057" />
      <stop
         style="stop-color:#000000;stop-opacity:0.37254902;"
         offset="0.25"
         id="stop4055" />
      <stop
         style="stop-color:#000000;stop-opacity:0.24705882;"
         offset="0.5"
         id="stop4053" />
      <stop
         style="stop-color:#000000;stop-opacity:0;"
         offset="1"
         id="stop4019" />
    </linearGradient>
    <linearGradient
       id="linearGradient3989">
      <stop
         style="stop-color:#000000;stop-opacity:1;"
         offset="0"
         id="stop3991" />
      <stop
         id="stop3997"
         offset="0.5"
         style="stop-color:#000000;stop-opacity:0.54901963;" />
      <stop
         style="stop-color:#000000;stop-opacity:0.09929078;"
         offset="1"
         id="stop3993" />
    </linearGradient>
    <linearGradient
       id="linearGradient3917"
       osb:paint="gradient">
      <stop
         style="stop-color:#000000;stop-opacity:1;"
         offset="0"
         id="stop3919" />
      <stop
         style="stop-color:#000000;stop-opacity:0;"
         offset="1"
         id="stop3921" />
    </linearGradient>
  </defs>
  <sodipodi:namedview
     id="base"
     pagecolor="#ffffff"
     bordercolor="#666666"
     borderopacity="1.0"
     inkscape:pageopacity="0.0"
     inkscape:pageshadow="2"
     inkscape:zoom="8.74"
     inkscape:cx="51.117104"
     inkscape:cy="15.87488"
     inkscape:document-units="cm"
     inkscape:current-layer="layer1"
     showgrid="true"
     inkscape:window-width="1280"
     inkscape:window-height="1000"
     inkscape:window-x="1280"
     inkscape:window-y="24"
     inkscape:window-maximized="1"
     inkscape:object-nodes="false"
     inkscape:snap-smooth-nodes="false"
     inkscape:snap-bbox="true"
     units="mm"
     fit-margin-top="1"
     fit-margin-right="1"
     fit-margin-bottom="1"
     fit-margin-left="1">
    <inkscape:grid
       type="xygrid"
       id="grid2985"
       empspacing="5"
       visible="true"
       enabled="true"
       snapvisiblegridlinesonly="true"
       units="cm"
       spacingx="0.01cm"
       spacingy="0.01cm" />
  </sodipodi:namedview>
  <metadata
     id="metadata7">
    <rdf:RDF>
      <cc:Work
         rdf:about="">
        <dc:format>image/svg+xml</dc:format>
        <dc:type
           rdf:resource="http://purl.org/dc/dcmitype/StillImage" />
        <dc:title />
      </cc:Work>
    </rdf:RDF>
  </metadata>
  <g
     inkscape:label="Layer 1"
     inkscape:groupmode="layer"
     id="layer1"
     transform="translate(-183.79385,-842.82284)">
    <path
       style="fill:none;stroke:#000000;stroke-width:0.88819367;stroke-linecap:butt;stroke-linejoin:miter;stroke-miterlimit:4;stroke-opacity:1;stroke-dasharray:none"
       d="m 187.78125,879.34375 c 0.6671,-0.68029 1.12025,-1.50878 1.21875,-2.375 0.2435,-1.10643 0.54371,-1.43177 1,-2.5 0.34781,-0.51665 1.15963,-0.5624 1.8125,-0.59375 2.45482,-0.36628 9.42711,-0.0132 10.9375,1.1875 0.53087,0.66676 0.40804,2.3454 0.0312,3.125 -0.46566,2.00036 -0.14557,0.77445 -1.96875,1.875 -0.11074,0.48159 1.26324,1.22465 1.71875,1.28125 1.00874,0.13286 2.1584,0.15408 3.15625,0 0.63504,-0.27979 0.50446,-2.00722 1.21875,-2.21875 1.3993,-1.92938 0,-0.87926 0,-3.65625 0.0493,-2.00696 0.64263,-3.35885 0.375,-5.34375 -0.0756,-0.5428 -0.19816,-1.78682 -0.375,-2.3125 -0.93848,-1.27873 5.9228,-1.06418 0,-3.65625 -2.78394,-1.21837 -5.92303,-0.12338 -9.53125,0.0937 -1.75792,-0.12141 -6.64581,-0.0144 -7.6875,-1.5625 -1.87498,-1.58874 -1.05422,-1.0285 -1.875,-2.5625 -0.0108,-0.0341 -0.0207,-0.0601 -0.0312,-0.0937"
       id="path11383"
       inkscape:connector-curvature="0"
       sodipodi:nodetypes="cccccccccccccscccc" />
    <path
       sodipodi:nodetypes="cscccsscccccccsccccc"
       d="m 191.79126,863.7853 c 0.12481,0.0595 0.58959,-0.27708 0.54493,-0.16553 -0.13295,0.33211 0.13695,0.0938 0.20559,0.14048 0.15212,0.12298 0.0759,0.51126 0.15411,0.6734 0.0764,0.12835 0.36315,0.002 0.41348,0.13912 0.0524,0.16604 0.0604,0.33774 0.0661,0.50809 0.004,0.16768 0.002,0.33538 0.002,0.50307 -0.002,0.15984 -0.0739,0.30848 -0.14364,0.45551 -0.0664,0.12766 -0.17399,0.23623 -0.26691,0.35154 -0.0952,0.10565 -0.18064,0.21797 -0.25224,0.33512 l -1.39989,0.49996 c 0.0952,-0.10886 0.14882,-0.24018 0.2478,-0.34843 0.10715,-0.0994 0.18992,-0.22048 0.27896,-0.32961 0.092,-0.12339 0.14054,-0.2683 0.1772,-0.408 5.7e-4,-0.16682 0.002,-0.33365 8e-5,-0.50047 -0.003,-0.16041 -0.006,-0.32226 -0.0495,-0.47962 -0.0461,-0.13517 -0.13397,-0.25136 -0.20306,-0.37922 -0.0622,-0.14373 -0.17891,-0.26704 -0.31221,-0.37383 -0.16592,-0.11164 -1.26133,-1.68525 -1.47523,-1.72365 l 2.01267,1.10207 z"
       id="path11385"
       style="fill:#000000;fill-opacity:1;stroke:#000000;stroke-width:0.15860601;stroke-linecap:butt;stroke-linejoin:bevel;stroke-miterlimit:4;stroke-opacity:1;stroke-dasharray:none;stroke-dashoffset:0"
       inkscape:connector-curvature="0" />
    <path
       d="m 193.4997,864.03586 c 0.19357,0.0586 0.38344,0.12627 0.57951,0.17991 0.20324,0.0633 0.39579,0.13747 0.54609,0.2665 0.1501,0.1065 0.22327,0.25469 0.30486,0.39719 0.0776,0.14439 0.0943,0.301 0.10537,0.4561 0.008,0.16573 0.007,0.33165 0.006,0.49748 0.008,0.1544 -8.5e-4,0.30511 -0.0756,0.44877 -0.0535,0.11887 -0.13998,0.22146 -0.23154,0.3227 -0.081,0.0736 -0.16154,0.14741 -0.25077,0.21468 l -1.41389,0.47654 c 0.0766,-0.0776 0.17797,-0.13445 0.25084,-0.21455 0.11032,-0.0756 0.19777,-0.18077 0.25182,-0.28819 0.0949,-0.15096 0.12614,-0.22663 0.11042,-0.40381 5.7e-4,-0.16374 0.002,-0.32753 -0.004,-0.49122 -0.008,-0.14 -0.0157,-0.2825 -0.0814,-0.41422 -0.0723,-0.13057 -0.13413,-0.265 -0.27317,-0.36083 -0.14646,-0.10754 -0.32603,-0.16761 -0.51082,-0.22161 -0.18844,-0.0597 -0.37522,-0.12597 -0.57436,-0.15964 l 1.2602,-0.7058 z"
       id="path11387"
       style="fill:#000000;fill-opacity:1;stroke:#000000;stroke-width:0.15860601;stroke-linecap:butt;stroke-linejoin:bevel;stroke-miterlimit:4;stroke-opacity:1;stroke-dasharray:none;stroke-dashoffset:0"
       inkscape:connector-curvature="0" />
    <path
       sodipodi:nodetypes="csccccccsssssscssccccscc"
       d="m 196.09554,864.32836 c 0.1534,0.14396 0.30155,0.29034 0.45842,0.43207 0.13863,0.12383 0.23516,0.25911 0.31267,0.41228 0.0573,0.15274 0.15908,0.28917 0.24067,0.43326 0.0582,0.13054 0.13385,0.25532 0.19801,0.38388 0.066,0.14419 0.14044,0.2829 0.1808,0.43379 0.0267,0.15032 -0.0128,0.29542 -0.10116,0.42794 l -2.31987,1.208 c 0.0598,-0.04 0.12856,-0.0557 0.18706,-0.0962 0.0195,-0.0135 0.033,-0.032 0.0531,-0.045 0.0193,-0.0124 0.0426,-0.0203 0.0639,-0.0304 4.55058,-2.14409 -0.67348,0.31963 0.12718,-0.0662 0.45441,-0.21895 0.89813,-0.45493 1.37381,-0.64244 0.43086,-0.16984 -0.82617,0.39263 -1.23899,0.5893 -0.0405,0.0193 0.16952,-0.0725 0.11118,-0.0702 0.0784,-0.11758 0.16826,-0.22882 0.24593,-0.34629 0.0283,-0.0376 0.0653,-0.0709 0.0913,-0.1095 0.0486,-0.0723 0.0434,-0.16129 0.0596,-0.24008 -0.0334,-0.14453 -0.10379,-0.27584 -0.16772,-0.41272 -0.0665,-0.12652 -0.1402,-0.25083 -0.19504,-0.38109 -0.0791,-0.14594 -0.18183,-0.2834 -0.24214,-0.436 -0.0738,-0.13869 -0.15397,-0.2667 -0.28179,-0.38037 -0.14833,-0.13666 -0.90821,-0.69929 -1.07701,-0.81917 l 1.92009,-0.24491 z"
       id="path11389"
       style="fill:#000000;fill-opacity:1;stroke:#000000;stroke-width:0.15860601;stroke-linecap:butt;stroke-linejoin:bevel;stroke-miterlimit:4;stroke-opacity:1;stroke-dasharray:none;stroke-dashoffset:0"
       inkscape:connector-curvature="0" />
    <path
       sodipodi:nodetypes="cscccsscccccccsccccc"
       inkscape:transform-center-y="34.17576"
       inkscape:transform-center-x="-22.991657"
       style="fill:#000000;fill-opacity:1;stroke:#000000;stroke-width:0.15860601;stroke-linecap:butt;stroke-linejoin:bevel;stroke-miterlimit:4;stroke-opacity:1;stroke-dasharray:none;stroke-dashoffset:0"
       id="path11391"
       d="m 202.31805,863.97977 c -0.12482,0.0595 -0.6838,-0.23277 -0.80319,-0.16552 -0.0737,0.0415 -0.13696,0.0937 -0.20559,0.14048 -0.15213,0.12297 -0.28248,0.26216 -0.36073,0.4243 -0.0764,0.12834 -0.15653,0.25103 -0.20687,0.38821 -0.0524,0.16604 -0.0604,0.33774 -0.0661,0.5081 -0.004,0.16767 -0.002,0.33538 -0.002,0.50307 0.002,0.15983 0.0739,0.30847 0.14363,0.45551 0.0664,0.12766 0.174,0.23623 0.26692,0.35153 0.0952,0.10566 0.18063,0.21797 0.25223,0.33512 l 1.3999,0.49997 c -0.0952,-0.10887 -0.14882,-0.24018 -0.2478,-0.34844 -0.10715,-0.0994 -0.18992,-0.22048 -0.27896,-0.32961 -0.092,-0.12338 -0.14054,-0.2683 -0.17721,-0.408 -5.6e-4,-0.16682 -0.002,-0.33364 -8e-5,-0.50046 0.003,-0.16041 0.006,-0.32226 0.0495,-0.47962 0.0461,-0.13518 0.13398,-0.25137 0.20307,-0.37923 0.0621,-0.14372 0.17891,-0.26704 0.3122,-0.37383 0.16592,-0.11163 0.91752,-0.74949 1.13141,-0.78789 l -1.41059,0.16631 z"
       inkscape:connector-curvature="0" />
    <path
       sodipodi:nodetypes="ccccsccccccccsccccc"
       inkscape:transform-center-y="35.60946"
       inkscape:transform-center-x="-16.951094"
       style="fill:#000000;fill-opacity:1;stroke:#000000;stroke-width:0.15860601;stroke-linecap:butt;stroke-linejoin:bevel;stroke-miterlimit:4;stroke-opacity:1;stroke-dasharray:none;stroke-dashoffset:0"
       id="path11393"
       d="m 200.54424,864.05034 c -0.19357,0.0586 -0.57634,0.30626 -0.7724,0.35991 -0.20324,0.0633 -1.63546,-0.0286 -1.78577,0.10042 -0.15009,0.10651 1.01641,0.42077 0.93482,0.56327 -0.0776,0.14439 -0.0943,0.30099 -0.10537,0.4561 -0.008,0.16573 -0.007,0.33165 -0.006,0.49747 -0.008,0.15441 8.5e-4,0.30511 0.0756,0.44878 0.0535,0.11886 0.13997,0.22145 0.23153,0.3227 0.081,0.0736 0.16154,0.1474 0.25078,0.21467 l 1.41388,0.47655 c -0.0766,-0.0776 -0.17796,-0.13445 -0.25084,-0.21455 -0.11032,-0.0756 -0.19776,-0.18077 -0.25181,-0.2882 -0.0949,-0.15096 -0.12615,-0.22662 -0.11043,-0.40381 -5.6e-4,-0.16373 -0.002,-0.32752 0.004,-0.49122 0.008,-0.13999 0.0157,-0.28249 0.0814,-0.41422 0.0722,-0.13057 0.13413,-0.26499 0.27317,-0.36083 0.14646,-0.10754 0.59475,-0.88758 0.77954,-0.94158 0.18845,-0.0597 0.10649,0.59401 0.30564,0.56034 l -1.06731,-0.8858 z"
       inkscape:connector-curvature="0" />
    <path
       sodipodi:nodetypes="cscccccccsssssscssccccscc"
       inkscape:transform-center-y="37.93099"
       inkscape:transform-center-x="-8.104985"
       style="fill:#000000;fill-opacity:1;stroke:#000000;stroke-width:0.15860601;stroke-linecap:butt;stroke-linejoin:bevel;stroke-miterlimit:4;stroke-opacity:1;stroke-dasharray:none;stroke-dashoffset:0"
       id="path11395"
       d="m 197.75551,864.52284 c -0.15341,0.14396 -1.33461,-0.12483 -1.49148,0.0169 -0.13864,0.12383 0.79789,0.67428 0.72039,0.82745 -0.0573,0.15274 -0.15908,0.28917 -0.24068,0.43326 -0.0582,0.13054 -0.13385,0.25532 -0.19801,0.38388 -0.066,0.14419 -0.14043,0.2829 -0.1808,0.43379 -0.0267,0.15032 0.0128,0.29542 0.10116,0.42794 0.0817,0.11491 0.15879,0.23208 0.24378,0.34539 l 2.07609,0.86261 c -0.0598,-0.04 -0.12856,-0.0557 -0.18705,-0.0962 -0.0195,-0.0135 -0.033,-0.032 -0.0531,-0.045 -0.0193,-0.0124 -0.0426,-0.0203 -0.0639,-0.0304 -4.55058,-2.14409 0.67349,0.31963 -0.12718,-0.0662 -0.4544,-0.21895 -0.89813,-0.45493 -1.3738,-0.64244 -0.43086,-0.16984 0.82616,0.39263 1.23899,0.5893 0.0405,0.0193 -0.16953,-0.0725 -0.11118,-0.0702 -0.0784,-0.11758 -0.16826,-0.22882 -0.24593,-0.34629 -0.0283,-0.0376 -0.0653,-0.0709 -0.0912,-0.1095 -0.0486,-0.0723 -0.0434,-0.16129 -0.0596,-0.24008 0.0334,-0.14453 0.10378,-0.27584 0.16771,-0.41272 0.0665,-0.12652 0.14021,-0.25083 0.19505,-0.38109 0.0791,-0.14595 0.18183,-0.2834 0.24214,-0.436 0.0738,-0.13869 0.15396,-0.2667 0.28179,-0.38037 0.14833,-0.13666 0.28652,-0.28412 0.45532,-0.404 l -1.2984,-0.66008 z"
       inkscape:connector-curvature="0" />
    <path
       style="fill:#000000;fill-opacity:1;stroke:#000000;stroke-width:0.20424153;stroke-linecap:butt;stroke-linejoin:bevel;stroke-miterlimit:4;stroke-opacity:1;stroke-dasharray:none;stroke-dashoffset:0"
       d="m 187.78125,870.25 0,0.25 c 0.28302,0.017 0.5865,0.0321 0.84375,0.0937 0.35426,0.0608 -0.16754,-0.0609 -0.25,-0.0937 l -0.5,-0.1875 c 0.0585,0.0159 0.0621,0.008 0.15625,0.0312 -0.0893,-0.0271 -0.17245,-0.0607 -0.25,-0.0937 z"
       id="path11405"
       inkscape:connector-curvature="0" />
    <path
       style="fill:none;stroke:#000000;stroke-width:0.88819367;stroke-linecap:butt;stroke-linejoin:miter;stroke-miterlimit:4;stroke-opacity:1;stroke-dasharray:none"
       d="m 223.2187,860.03125 c -1.10014,-3.5257 -0.56723,-4.76559 -1.6875,-7.59375 -0.49953,-0.76867 -2.52383,-1.73884 -2.28125,-2.5625 0.92685,-0.30064 3.99456,-1.76118 1.53125,-1.84375 -1.95372,-0.49906 -2.5824,1.17244 -3.90625,1.84375 -0.5509,0.13416 -0.14191,-0.34237 -0.53125,-0.78125 -0.15781,-0.35737 -0.29576,-0.72369 -0.59375,-1.03125 -0.32049,-0.38218 -0.24154,-1.19252 -0.65625,-1.25 l 5e-5,0 c -0.0592,-0.008 -0.13739,0.006 -0.21875,0.0312 -0.96834,0.38196 -1.18755,1.43659 -0.8125,2.1875 0.17825,0.46578 0.52882,1.56552 0,1.875 -0.74643,0.68819 -0.26046,1.01688 -1.21875,1.53125 -0.61225,0.27214 -1.88789,0.46521 -2.34375,0.96875 -0.41751,0.40529 0.0148,0.2884 0.0937,0.78125 -0.0156,0.46217 0.11596,1.05674 0.75,1.21875 2.10071,0.50765 1.96155,0.15619 4.09375,0.125 0.60454,-0.0915 1.41285,-0.0249 1.625,0.53125 0.22418,0.52253 0.0116,1.06255 0,1.59375 0.0427,0.44367 0.27855,0.84291 0.375,1.28125 0.95242,3.19206 1.7919,6.4226 2.6875,9.625 0.61303,2.40269 0.586,4.87952 0.3125,7.3125 -0.0904,0.7262 -0.20962,1.4386 -0.375,2.15625 -0.28872,0.35547 -0.9698,0.47742 -1.0625,0.9375 0.28581,0.45207 -0.0172,0.90588 -0.625,1.0625 -0.86375,0.36816 0.0965,1.08497 0.71875,1.15625 0.67531,0.21321 1.46788,0.24237 2.125,-0.0312 0.46754,-0.43067 0.79385,-0.9948 1.40625,-1.3125 0.21395,-0.16094 0.41254,-0.31521 0.59375,-0.5"
       id="path11415"
       inkscape:connector-curvature="0"
       sodipodi:nodetypes="ccccccccccccccccccccccccccccc" />
    <path
       inkscape:connector-curvature="0"
       style="fill:#000000;fill-opacity:1;stroke:#000000;stroke-width:0.15860601;stroke-linecap:butt;stroke-linejoin:bevel;stroke-miterlimit:4;stroke-opacity:1;stroke-dasharray:none;stroke-dashoffset:0"
       id="path11429"
       d="m 219.66178,865.94613 c -0.0355,0.19253 0.45053,0.27627 0.43415,0.47043 -0.0133,0.17743 -0.0151,0.35523 -0.0162,0.53293 -0.0125,0.15189 0.0392,0.29867 0.069,0.44713 0.0261,0.1332 0.0861,0.25884 0.15155,0.3821 0.0498,0.12958 0.0854,0.25976 0.16367,0.38092 0.0754,0.14342 0.19703,0.2577 0.34562,0.35505 0.14017,0.0723 0.27672,0.14849 0.41012,0.22866 0.0606,0.0493 0.12859,0.0908 0.19915,0.13009 l 1.42104,0.45686 c -0.0659,-0.0463 -0.13881,-0.075 -0.20503,-0.12086 -0.11374,-0.10308 -0.26465,-0.16852 -0.40109,-0.24945 -0.16575,-0.064 -0.28809,-0.16305 -0.37878,-0.28974 -0.0613,-0.1235 -0.15686,-0.23329 -0.16621,-0.37268 -0.0505,-0.12204 -0.12938,-0.23294 -0.16895,-0.3587 -0.022,-0.14566 -0.0786,-0.28675 -0.0821,-0.43289 -0.0204,-1.13469 -1.31256,-1.9822 -1.88786,-3.02046 l 0.11191,1.46061 z"
       sodipodi:nodetypes="cscscccccccccccccc" />
    <path
       inkscape:connector-curvature="0"
       sodipodi:nodetypes="cscscccccccccccccc"
       d="m 220.29383,869.08 c -0.0355,0.19254 0.45053,0.27628 0.43415,0.47043 -0.0133,0.17744 -0.0151,0.35524 -0.0162,0.53294 -0.0125,0.15188 0.0392,0.29866 0.069,0.44712 0.0261,0.1332 0.0861,0.25885 0.15155,0.38211 0.0498,0.12957 0.0854,0.25976 0.16367,0.38092 0.0754,0.14341 0.19703,0.2577 0.34562,0.35504 0.14017,0.0723 0.27672,0.14849 0.41012,0.22866 0.0606,0.0493 0.12859,0.0908 0.19915,0.13009 l 1.42104,0.45686 c -0.0659,-0.0463 -0.13881,-0.075 -0.20503,-0.12085 -0.11374,-0.10308 -0.26465,-0.16852 -0.40109,-0.24946 -0.16575,-0.064 -0.28809,-0.16305 -0.37878,-0.28974 -0.0613,-0.1235 -0.15686,-0.23329 -0.16621,-0.37268 -0.0505,-0.12204 -0.12938,-0.23294 -0.16895,-0.35869 -0.022,-0.14567 -0.0786,-0.28676 -0.0821,-0.43289 -0.0204,-1.13469 -1.31256,-1.9822 -1.88786,-3.02047 l 0.11191,1.46061 z"
       id="path11431"
       style="fill:#000000;fill-opacity:1;stroke:#000000;stroke-width:0.15860601;stroke-linecap:butt;stroke-linejoin:bevel;stroke-miterlimit:4;stroke-opacity:1;stroke-dasharray:none;stroke-dashoffset:0" />
    <path
       inkscape:connector-curvature="0"
       sodipodi:nodetypes="cscscccccccccccccc"
       d="m 218.10219,861.85858 c -0.0355,0.19253 0.45053,0.27627 0.43415,0.47043 -0.0133,0.17743 -0.0151,0.35523 -0.0162,0.53294 -0.0125,0.15188 0.0392,0.29866 0.069,0.44712 0.0261,0.1332 0.0861,0.25885 0.15155,0.38211 0.0498,0.12957 0.0854,0.25976 0.16366,0.38092 0.0754,0.14341 0.19704,0.25769 0.34562,0.35504 0.14018,0.0723 0.27673,0.14849 0.41013,0.22866 0.0606,0.0493 0.12859,0.0908 0.19914,0.13009 l 1.42104,0.45686 c -0.0659,-0.0463 -0.1388,-0.075 -0.20502,-0.12085 -0.11374,-0.10308 -0.26465,-0.16853 -0.40109,-0.24946 -0.16575,-0.064 -0.28809,-0.16305 -0.37878,-0.28974 -0.0613,-0.1235 -0.15687,-0.23329 -0.16621,-0.37268 -0.0505,-0.12204 -0.12938,-0.23294 -0.16895,-0.3587 -0.022,-0.14566 -0.0786,-0.28675 -0.0821,-0.43289 -0.0204,-1.13468 -1.31256,-1.98219 -1.88786,-3.02046 l 0.11191,1.46061 z"
       id="path11433"
       style="fill:#000000;fill-opacity:1;stroke:#000000;stroke-width:0.15860601;stroke-linecap:butt;stroke-linejoin:bevel;stroke-miterlimit:4;stroke-opacity:1;stroke-dasharray:none;stroke-dashoffset:0" />
    <path
       inkscape:connector-curvature="0"
       style="fill:#000000;fill-opacity:1;stroke:#000000;stroke-width:0.20424153;stroke-linecap:butt;stroke-linejoin:bevel;stroke-miterlimit:4;stroke-opacity:1;stroke-dasharray:none;stroke-dashoffset:0"
       d="m 219.05009,865.13131 c 0.0334,0.4277 0.96588,0.54281 1.00523,0.97014 0.095,0.24586 -0.4628,0.74804 -0.15958,0.95338 0.39635,0.23738 0.95691,0.41965 1.58394,0.54231 0.3693,0.0806 0.74251,0.15899 1.09194,0.25398 -0.59568,-0.13799 -1.18019,-0.28402 -1.77244,-0.42449 0.40519,0.1483 0.7786,0.32398 1.28386,0.41411 0.31803,0.0295 0.66179,0.01 0.95564,0.0804 0.35426,0.0608 -0.14091,-0.0709 -0.22336,-0.10376 -0.40586,-0.13069 -0.81172,-0.26138 -1.21758,-0.39208 -0.2548,-0.0367 -0.70803,-0.12968 -0.84378,-0.1256 0.58456,0.15296 1.21926,0.2694 1.82862,0.40401 0.31435,0.068 -0.18169,-0.0465 -0.28751,-0.0752 -0.51023,-0.1272 -1.01624,-0.25874 -1.55655,-0.36338 0.58044,0.14897 1.18587,0.28019 1.77294,0.4245 -0.25178,-0.0661 -0.43334,-0.168 -0.64349,-0.25377 -0.22926,-0.12553 -0.42381,-0.26135 -0.64556,-0.38903 -0.21022,-0.12871 -0.38527,-0.27907 -0.33494,-0.4389 0.0186,-0.3621 -0.8604,0.25038 -0.83215,-0.11167 -0.6162,-0.13009 -0.38904,-1.2349 -1.00523,-1.36499 z"
       id="path11435"
       sodipodi:nodetypes="cccccccccccccccccccc" />
    <path
       style="fill:#000000;fill-opacity:1;stroke:#000000;stroke-width:0.20424153;stroke-linecap:butt;stroke-linejoin:bevel;stroke-miterlimit:4;stroke-opacity:1;stroke-dasharray:none;stroke-dashoffset:0"
       d="m 220.21875,868.0625 c 0.24302,0.2034 0.6863,0.34889 0.8125,0.59375 0.0135,-0.26177 -0.52691,-0.40045 -0.8125,-0.59375 z m 0.8125,0.59375 c 0.0183,0.0354 0.0275,0.0845 0.0312,0.125 0.095,0.24586 -0.45947,0.73216 -0.15625,0.9375 0.24612,0.14741 0.55687,0.27117 0.90625,0.375 0.0324,0.008 0.0614,0.0236 0.0937,0.0312 0.36991,0.14003 0.72168,0.2919 1.1875,0.375 0.0422,0.004 0.0821,-0.003 0.125,0 l 0,-0.25 c -0.10971,-0.0467 -0.23266,-0.11091 -0.34375,-0.15625 -0.22926,-0.12553 -0.4345,-0.24731 -0.65625,-0.375 -0.21022,-0.1287 -1.23783,-0.90267 -1.1875,-1.0625 z"
       id="path11437"
       inkscape:connector-curvature="0" />
    <path
       inkscape:connector-curvature="0"
       id="path11439"
       d="m 217.94655,851.55702 c 0,0.22618 -0.22811,0.40952 -0.5095,0.40952 -0.28139,0 -0.50951,-0.18334 -0.50951,-0.40952 0,-0.22617 0.22812,-0.40952 0.50951,-0.40952 0.28139,0 0.5095,0.18335 0.5095,0.40952 z"
       style="fill:#000000;fill-opacity:1;stroke:#000000;stroke-width:0.02537696;stroke-linecap:butt;stroke-linejoin:bevel;stroke-miterlimit:4;stroke-opacity:1;stroke-dashoffset:0" />
    <path
       inkscape:connector-curvature="0"
       id="path11441"
       d="m 216.35805,852.03566 c 0,0.22618 -0.22811,0.40952 -0.5095,0.40952 -0.28139,0 -0.50951,-0.18334 -0.50951,-0.40952 0,-0.22617 0.22812,-0.40952 0.50951,-0.40952 0.28139,0 0.5095,0.18335 0.5095,0.40952 z"
       style="fill:#000000;fill-opacity:1;stroke:#000000;stroke-width:0.02537696;stroke-linecap:butt;stroke-linejoin:bevel;stroke-miterlimit:4;stroke-opacity:1;stroke-dashoffset:0" />
  </g>
</svg>
