<?xml version="1.0" encoding="UTF-8" standalone="no"?>
<svg
   xmlns:dc="http://purl.org/dc/elements/1.1/"
   xmlns:cc="http://creativecommons.org/ns#"
   xmlns:rdf="http://www.w3.org/1999/02/22-rdf-syntax-ns#"
   xmlns:svg="http://www.w3.org/2000/svg"
   xmlns="http://www.w3.org/2000/svg"
   xmlns:sodipodi="http://sodipodi.sourceforge.net/DTD/sodipodi-0.dtd"
   xmlns:inkscape="http://www.inkscape.org/namespaces/inkscape"
   id="svg2"
   sodipodi:version="0.32"
   inkscape:version="1.0.1 (3bc2e813f5, 2020-09-07)"
   width="141.04735"
   height="173.56242"
   version="1.0"
   sodipodi:docname="fLlama.svg"
   inkscape:output_extension="org.inkscape.output.svg.inkscape">
  <sodipodi:namedview
     inkscape:window-height="1035"
     inkscape:window-width="1920"
     inkscape:pageshadow="2"
     inkscape:pageopacity="0.0"
     guidetolerance="10.0"
     gridtolerance="10.0"
     objecttolerance="10.0"
     borderopacity="1.0"
     bordercolor="#666666"
     pagecolor="#ffffff"
     id="base"
     showgrid="true"
     inkscape:zoom="4.8670426"
     inkscape:cx="66.121451"
     inkscape:cy="80.549631"
     inkscape:window-x="0"
     inkscape:window-y="27"
     inkscape:current-layer="svg2"
     inkscape:document-units="in"
     units="mm"
     fit-margin-top="1"
     fit-margin-right="1"
     fit-margin-bottom="1"
     fit-margin-left="1"
     inkscape:window-maximized="1"
     inkscape:document-rotation="0">
    <inkscape:grid
       empspacing="4"
       spacingy="12"
       spacingx="12"
       enabled="true"
       visible="true"
       units="in"
       id="grid2395"
       type="xygrid"
       snapvisiblegridlinesonly="true"
       originx="0"
       originy="0" />
  </sodipodi:namedview>
  <metadata
     id="metadata7">
    <rdf:RDF>
      <cc:Work
         rdf:about="">
        <dc:format>image/svg+xml</dc:format>
        <dc:type
           rdf:resource="http://purl.org/dc/dcmitype/StillImage" />
        <dc:title></dc:title>
      </cc:Work>
    </rdf:RDF>
  </metadata>
  <defs
     id="defs5">
    <marker
       style="overflow:visible"
       id="Arrow2Send"
       refX="0"
       refY="0"
       orient="auto"
       inkscape:stockid="Arrow2Send">
      <path
         d="m -2.0539481,-1.2907953 3.4962807,1.28567106 -3.4962809,1.28567074 c 0.5585595,-0.75905949 0.5553411,-1.79758461 2e-7,-2.5713418 z"
         style="font-size:12px;fill-rule:evenodd;stroke-width:0.2;stroke-linejoin:round"
         id="path3258"
         inkscape:connector-curvature="0" />
    </marker>
    <marker
       style="overflow:visible"
       id="Arrow2Mstart"
       refX="0"
       refY="0"
       orient="auto"
       inkscape:stockid="Arrow2Mstart">
      <path
         d="M 5.5798962,2.5815905 -1.4126653,0.01024849 5.5798966,-2.561093 c -1.117119,1.518119 -1.1106821,3.5951692 -4e-7,5.1426835 z"
         style="font-size:12px;fill-rule:evenodd;stroke-width:0.4;stroke-linejoin:round"
         id="path3249"
         inkscape:connector-curvature="0" />
    </marker>
    <marker
       style="overflow:visible"
       id="Arrow1Send"
       refX="0"
       refY="0"
       orient="auto"
       inkscape:stockid="Arrow1Send">
      <path
         style="fill-rule:evenodd;stroke:#000000;stroke-width:0.213333pt;marker-start:none"
         d="M -1.28,0 -2.3466667,1.0666667 1.3866667,0 -2.3466667,-1.0666667 Z"
         id="path3189"
         inkscape:connector-curvature="0" />
    </marker>
    <marker
       style="overflow:visible"
       id="Arrow2Lend"
       refX="0"
       refY="0"
       orient="auto"
       inkscape:stockid="Arrow2Lend">
      <path
         d="M -11.403143,-4.732916 1.416553,-0.01878889 -11.403144,4.6953372 c 2.0480517,-2.7832182 2.0362508,-6.5911436 10e-7,-9.4282532 z"
         style="font-size:12px;fill-rule:evenodd;stroke-width:0.733333;stroke-linejoin:round"
         id="path3195"
         inkscape:connector-curvature="0" />
    </marker>
    <marker
       style="overflow:visible"
       id="Arrow2Mend"
       refX="0"
       refY="0"
       orient="auto"
       inkscape:stockid="Arrow2Mend">
      <path
         d="M -5.5798962,-2.5815905 1.4126653,-0.01024849 -5.5798966,2.561093 c 1.117119,-1.518119 1.1106821,-3.5951692 4e-7,-5.1426835 z"
         style="font-size:12px;fill-rule:evenodd;stroke-width:0.4;stroke-linejoin:round"
         id="path3201"
         inkscape:connector-curvature="0" />
    </marker>
    <marker
       style="overflow:visible"
       id="Arrow1Mstart"
       refX="0"
       refY="0"
       orient="auto"
       inkscape:stockid="Arrow1Mstart">
      <path
         style="fill-rule:evenodd;stroke:#000000;stroke-width:0.426667pt;marker-start:none"
         d="M 4.2666667,0 6.4,-2.1333333 -1.0666667,0 6.4,2.1333333 Z"
         id="path3180"
         inkscape:connector-curvature="0" />
    </marker>
    <inkscape:perspective
       id="perspective9"
       inkscape:persp3d-origin="396.85039 : 385.74405 : 1"
       inkscape:vp_z="793.70078 : 572.83067 : 1"
       inkscape:vp_y="0 : 1066.6667 : 0"
       inkscape:vp_x="0 : 572.83067 : 1"
       sodipodi:type="inkscape:persp3d" />
    <marker
       style="overflow:visible"
       id="Arrow2LendH"
       refX="0"
       refY="0"
       orient="auto"
       inkscape:stockid="Arrow2LendH">
      <path
         d="M -11.403143,-4.732916 1.416553,-0.01878889 -11.403144,4.6953372 c 2.0480517,-2.7832182 2.0362508,-6.5911436 10e-7,-9.4282532 z"
         style="font-size:12px;fill:#000000;fill-rule:evenodd;stroke:#000000;stroke-width:0.733333;stroke-linejoin:round"
         id="path11517"
         inkscape:connector-curvature="0" />
    </marker>
    <marker
       style="overflow:visible"
       id="Arrow1SendJ"
       refX="0"
       refY="0"
       orient="auto"
       inkscape:stockid="Arrow1SendJ">
      <path
         style="fill:#7f7f7f;fill-rule:evenodd;stroke:#7f7f7f;stroke-width:0.213333pt;marker-start:none"
         d="M -1.28,0 -2.3466667,1.0666667 1.3866667,0 -2.3466667,-1.0666667 Z"
         id="path11606"
         inkscape:connector-curvature="0" />
    </marker>
    <marker
       style="overflow:visible"
       id="Arrow1SendJG"
       refX="0"
       refY="0"
       orient="auto"
       inkscape:stockid="Arrow1SendJG">
      <path
         style="fill:#a6a6a6;fill-rule:evenodd;stroke:#a6a6a6;stroke-width:0.213333pt;marker-start:none"
         d="M -1.28,0 -2.3466667,1.0666667 1.3866667,0 -2.3466667,-1.0666667 Z"
         id="path13005"
         inkscape:connector-curvature="0" />
    </marker>
    <marker
       style="overflow:visible"
       id="Arrow2Sendl"
       refX="0"
       refY="0"
       orient="auto"
       inkscape:stockid="Arrow2Sendl">
      <path
         d="m -2.0539481,-1.2907953 3.4962807,1.28567106 -3.4962809,1.28567074 c 0.5585595,-0.75905949 0.5553411,-1.79758461 2e-7,-2.5713418 z"
         style="font-size:12px;fill:#a6a6a6;fill-rule:evenodd;stroke:#a6a6a6;stroke-width:0.2;stroke-linejoin:round"
         id="path6303"
         inkscape:connector-curvature="0" />
    </marker>
  </defs>
  <ellipse
     style="fill:#000000;fill-opacity:1;stroke:#000000;stroke-width:0.666667;stroke-linecap:butt;stroke-linejoin:bevel;stroke-miterlimit:4;stroke-dasharray:none;stroke-dashoffset:0;stroke-opacity:1"
     id="path3701"
     cx="102.30027"
     cy="-157.99963"
     rx="0"
     ry="0.10958057"
     transform="scale(1,-1)" />
  <g
     id="g3709"
     transform="matrix(1,0,0,-1,-149.69973,213.62001)">
    <g
       id="g3532">
      <path
         sodipodi:nodetypes="cccccccccccccccccccccccccccccccscccccccccc"
         id="path3166"
         d="m 172.4664,45.769297 c -3.64907,1.790773 -4.50347,6.652533 -3.09013,10.173093 0.67173,2.18376 1.9928,7.320142 0,8.771129 -2.8128,3.22648 -0.94912,4.874881 -4.56032,7.286481 -2.3072,1.275867 -7.09808,2.199679 -8.81595,4.560452 -1.57333,1.900187 0.0925,1.230582 0.38987,3.541248 -0.059,2.166827 0.3768,5.042027 2.76613,5.801627 7.91627,2.380027 7.36293,0.681713 15.39787,0.5355 2.27813,-0.429094 5.404,-0.0984 6.20346,2.509226 0.8448,2.449814 0.004,4.977734 -0.0398,7.46824 0.16106,2.080107 1.0288,4.034537 1.39226,6.089627 3.58907,14.96565 6.752,30.02944 10.12694,45.04355 2.31013,11.26477 2.23413,22.88298 1.20346,34.28973 -0.3408,3.40471 -0.81706,6.79618 -1.44026,10.1608 -1.088,1.66659 -3.6504,2.15214 -3.99974,4.30919 1.07707,2.1195 -0.005,4.31412 -2.29413,5.04841 -3.25493,1.7261 0.29707,5.00755 2.64187,5.34173 2.5448,0.9996 5.5584,1.15534 8.03466,-0.12754 1.76187,-2.01913 3.008,-4.55784 5.31574,-6.04736 3.7744,-3.53243 6.27786,-8.40118 6.74986,-13.56548 0.9176,-5.18738 2.0744,-6.62881 3.79387,-11.63713 1.31067,-2.42221 4.34987,-2.73141 6.81013,-2.87837 9.25067,-1.71728 35.52827,-0.0368 41.22,5.59197 2.00054,3.12605 1.62,11.00344 0.20027,14.65853 -1.75479,9.37846 -0.5504,3.69659 -7.4208,8.8564 -0.41733,2.25787 4.672,5.71093 6.38853,5.9763 3.80134,0.62291 8.23974,0.72237 12,0 2.39307,-1.31179 1.868,-9.41516 4.55974,-10.40686 5.27307,-9.0457 0,-4.10017 0,-17.11979 0.18586,-9.4094 2.40453,-15.76112 1.396,-25.06707 -0.2848,-2.54486 -0.7296,-8.46834 -1.396,-10.93293 -3.53655,-5.99519 22.24962,-4.94318 -0.0699,-17.09582 -10.49093,-5.71217 -22.33301,-0.54903 -35.93013,0.46893 -6.62452,-0.56917 -25.00887,-0.11476 -28.93436,-7.37311 -7.06564,-7.44865 -3.97262,-4.80802 -7.06564,-12 -4.30542,-16.89763 -2.20385,-22.613842 -6.46576,-36 -1.8824,-3.60384 -9.45388,-8.138347 -8.53975,-12 3.49271,-1.409547 15.00551,-8.33547 5.72284,-8.72256 -7.36234,-2.33982 -9.72857,5.5752 -14.71733,8.72256 -2.076,0.628987 -0.5104,-1.606122 -1.9776,-3.663748 -0.59467,-1.67552 -1.11867,-3.434454 -2.2416,-4.8764 -1.38027,-2.047787 -0.8616,-6.642955 -3.3144,-5.690555 z"
         style="fill:none;stroke:#000000;stroke-width:3.73333;stroke-linecap:butt;stroke-linejoin:miter;stroke-miterlimit:4;stroke-dasharray:none;stroke-opacity:1"
         inkscape:connector-curvature="0" />
      <path
         style="fill:#000000;fill-opacity:1;stroke:#000000;stroke-width:0.666667;stroke-linecap:butt;stroke-linejoin:bevel;stroke-miterlimit:4;stroke-dasharray:none;stroke-dashoffset:0;stroke-opacity:1"
         id="path3422"
         d="m 219.01547,125.1669 c 0.47034,0.27917 2.22179,-1.29905 2.0535,-0.77605 -0.50101,1.55705 0.51609,0.43956 0.77473,0.65864 0.57326,0.57656 0.28589,2.39697 0.58076,3.15716 0.28791,0.60173 1.36847,0.009 1.55815,0.65223 0.19738,0.77845 0.22751,1.58346 0.24905,2.38214 0.0134,0.78612 0.009,1.5724 0.006,2.35859 -0.006,0.74936 -0.27866,1.44625 -0.54127,2.13562 -0.2501,0.59851 -0.65569,1.10753 -1.00585,1.64812 -0.35887,0.49536 -0.68069,1.02194 -0.95051,1.57118 l -5.27533,2.34403 c 0.35886,-0.5104 0.56081,-1.12607 0.9338,-1.6336 0.40378,-0.46615 0.7157,-1.03369 1.05123,-1.54534 0.34676,-0.57849 0.52961,-1.25789 0.66777,-1.91287 0.002,-0.78212 0.007,-1.56426 3.1e-4,-2.34638 -0.0124,-0.75206 -0.0235,-1.51087 -0.18653,-2.24864 -0.17387,-0.63376 -0.50489,-1.1785 -0.76523,-1.77796 -0.23418,-0.67383 -0.6742,-1.25199 -1.17651,-1.75266 -0.62525,-0.52339 -4.75318,-7.90109 -5.55922,-8.08111 l 7.5845,5.1669 z"
         sodipodi:nodetypes="cscccsscccccccsccccc"
         inkscape:connector-curvature="0" />
      <path
         style="fill:#000000;fill-opacity:1;stroke:#000000;stroke-width:0.666667;stroke-linecap:butt;stroke-linejoin:bevel;stroke-miterlimit:4;stroke-dasharray:none;stroke-dashoffset:0;stroke-opacity:1"
         id="path3426"
         d="m 225.4535,126.34164 c 0.72948,0.27493 1.44496,0.59198 2.18381,0.84349 0.7659,0.29669 1.4915,0.64451 2.0579,1.24944 0.56561,0.49932 0.84134,1.1941 1.1488,1.8622 0.29229,0.67697 0.35529,1.4112 0.39708,2.13838 0.0308,0.77702 0.0252,1.55491 0.0236,2.33237 0.029,0.7239 -0.003,1.43047 -0.28491,2.10403 -0.20167,0.55727 -0.52748,1.03826 -0.87251,1.51295 -0.30516,0.34512 -0.60873,0.69108 -0.94502,1.00647 l -5.32804,2.23424 c 0.28873,-0.3637 0.67064,-0.63035 0.94525,-1.00591 0.41574,-0.35427 0.74525,-0.84752 0.94894,-1.35116 0.35769,-0.70777 0.47536,-1.06252 0.41612,-1.89322 0.002,-0.76767 0.007,-1.53557 -0.0143,-2.30303 -0.0284,-0.65637 -0.0593,-1.32447 -0.3068,-1.94202 -0.27227,-0.61218 -0.50545,-1.24241 -1.02939,-1.69172 -0.55192,-0.50419 -1.2286,-0.78581 -1.92494,-1.039 -0.71015,-0.27974 -1.41399,-0.59058 -2.16444,-0.74843 l 4.74893,-3.30908 z"
         inkscape:connector-curvature="0" />
      <path
         style="fill:#000000;fill-opacity:1;stroke:#000000;stroke-width:0.666667;stroke-linecap:butt;stroke-linejoin:bevel;stroke-miterlimit:4;stroke-dasharray:none;stroke-dashoffset:0;stroke-opacity:1"
         id="path3428"
         d="m 235.23561,127.71301 c 0.57808,0.67493 1.13635,1.36122 1.7275,2.02571 0.52243,0.58054 0.88619,1.21481 1.17824,1.9329 0.2161,0.71611 0.59949,1.35577 0.90697,2.03132 0.2194,0.61203 0.50439,1.19703 0.74618,1.79979 0.24869,0.67599 0.52921,1.32635 0.68132,2.03377 0.10048,0.70476 -0.0481,1.38506 -0.38121,2.00636 l -8.74214,5.66357 c 0.22549,-0.18775 0.48446,-0.26119 0.70488,-0.45105 0.0734,-0.0633 0.12451,-0.15019 0.20009,-0.21077 0.0728,-0.0584 0.16061,-0.0952 0.24092,-0.14271 17.14829,-10.05236 -2.53794,1.49853 0.47925,-0.31022 1.71236,-1.02654 3.3845,-2.1329 5.17701,-3.01201 1.62365,-0.79629 -3.1133,1.84079 -4.66897,2.76285 -0.15275,0.0906 0.63883,-0.34002 0.41896,-0.32903 0.29534,-0.55125 0.63408,-1.0728 0.92677,-1.62355 0.10667,-0.1762 0.24594,-0.33217 0.34386,-0.51335 0.18319,-0.33895 0.16351,-0.75623 0.22471,-1.12561 -0.12578,-0.67764 -0.39111,-1.29323 -0.63201,-1.93499 -0.25061,-0.59316 -0.52836,-1.17598 -0.73501,-1.7867 -0.29801,-0.68426 -0.68521,-1.32869 -0.91248,-2.04414 -0.27809,-0.65026 -0.58019,-1.25039 -1.06188,-1.78333 -0.55898,-0.64072 -3.42248,-3.27853 -4.05857,-3.84058 z"
         sodipodi:nodetypes="csccccccsssssscssccccscc"
         inkscape:connector-curvature="0" />
      <path
         d="m 258.68436,126.07868 c -0.47034,0.27917 -2.5768,-1.09135 -3.02673,-0.77606 -0.27758,0.19453 -0.51608,0.43957 -0.77473,0.65865 -0.57326,0.57655 -1.06448,1.22909 -1.35935,1.98927 -0.28791,0.60174 -0.58988,1.17695 -0.77956,1.82012 -0.19738,0.77845 -0.22751,1.58345 -0.24905,2.38214 -0.0134,0.78611 -0.009,1.57239 -0.006,2.35858 0.006,0.74937 0.27866,1.44625 0.54127,2.13563 0.2501,0.5985 0.65569,1.10753 1.00585,1.64812 0.35887,0.49536 0.68069,1.02194 0.95052,1.57117 l 5.27532,2.34404 c -0.35885,-0.5104 -0.56081,-1.12607 -0.9338,-1.6336 -0.40377,-0.46616 -0.7157,-1.03369 -1.05123,-1.54535 -0.34675,-0.57848 -0.52961,-1.25789 -0.66777,-1.91286 -0.002,-0.78212 -0.007,-1.56427 -3.1e-4,-2.34638 0.0124,-0.75206 0.0235,-1.51087 0.18653,-2.24864 0.17387,-0.63376 0.50489,-1.17851 0.76523,-1.77796 0.23419,-0.67384 0.67421,-1.25199 1.17651,-1.75266 0.62525,-0.5234 3.45755,-3.51392 4.26359,-3.69395 l -5.31564,0.77974 z"
         id="path3436"
         style="fill:#000000;fill-opacity:1;stroke:#000000;stroke-width:0.666667;stroke-linecap:butt;stroke-linejoin:bevel;stroke-miterlimit:4;stroke-dasharray:none;stroke-dashoffset:0;stroke-opacity:1"
         inkscape:transform-center-x="-24.524434"
         inkscape:transform-center-y="36.454144"
         sodipodi:nodetypes="cscccsscccccccsccccc"
         inkscape:connector-curvature="0" />
      <path
         d="m 252,126.40954 c -0.72947,0.27492 -2.17186,1.43586 -2.91071,1.68737 -0.7659,0.29669 -6.16303,-0.13408 -6.72943,0.47084 -0.56561,0.49932 3.83019,1.9727 3.52273,2.64079 -0.29229,0.67697 -0.35528,1.4112 -0.39708,2.13838 -0.0308,0.77703 -0.0252,1.55491 -0.0236,2.33238 -0.029,0.7239 0.003,1.43047 0.28491,2.10403 0.20167,0.55727 0.52749,1.03826 0.87251,1.51295 0.30516,0.34512 0.60874,0.69108 0.94502,1.00646 l 5.32805,2.23424 c -0.28874,-0.36369 -0.67065,-0.63035 -0.94526,-1.00591 -0.41574,-0.35426 -0.74525,-0.84752 -0.94894,-1.35116 -0.35769,-0.70776 -0.47536,-1.06251 -0.41612,-1.89321 -0.002,-0.76767 -0.007,-1.53557 0.0143,-2.30303 0.0284,-0.65637 0.0593,-1.32447 0.30679,-1.94203 0.27228,-0.61218 0.50545,-1.24241 1.0294,-1.69171 0.55191,-0.50419 2.24126,-4.16134 2.9376,-4.41454 0.71014,-0.27973 0.40132,2.78495 1.15177,2.62711 l -4.02202,-4.15296 z"
         id="path3438"
         style="fill:#000000;fill-opacity:1;stroke:#000000;stroke-width:0.666667;stroke-linecap:butt;stroke-linejoin:bevel;stroke-miterlimit:4;stroke-dasharray:none;stroke-dashoffset:0;stroke-opacity:1"
         inkscape:transform-center-x="-18.081167"
         inkscape:transform-center-y="37.983424"
         sodipodi:nodetypes="ccccsccccccccsccccc"
         inkscape:connector-curvature="0" />
      <path
         d="m 241.491,128.62479 c -0.57808,0.67492 -5.0293,-0.58526 -5.62046,0.0793 -0.52242,0.58055 3.00676,3.16128 2.71471,3.87937 -0.2161,0.71612 -0.59949,1.35578 -0.90697,2.03133 -0.2194,0.61202 -0.50439,1.19703 -0.74617,1.79979 -0.2487,0.67599 -0.52922,1.32634 -0.68133,2.03377 -0.10048,0.70476 0.0481,1.38505 0.38121,2.00636 0.3078,0.53873 0.59839,1.08806 0.91867,1.6193 l 7.82347,4.04427 c -0.22549,-0.18776 -0.48446,-0.2612 -0.70488,-0.45105 -0.0734,-0.0633 -0.1245,-0.15019 -0.20009,-0.21077 -0.0728,-0.0584 -0.16061,-0.0952 -0.24091,-0.14271 -17.14829,-10.05237 2.53794,1.49852 -0.47926,-0.31022 -1.71236,-1.02654 -3.3845,-2.1329 -5.17701,-3.01201 -1.62365,-0.79629 3.1133,1.84079 4.66897,2.76284 0.15276,0.0906 -0.63883,-0.34002 -0.41896,-0.32902 -0.29533,-0.55125 -0.63408,-1.0728 -0.92677,-1.62355 -0.10667,-0.1762 -0.24594,-0.33217 -0.34386,-0.51336 -0.18319,-0.33894 -0.16351,-0.75622 -0.2247,-1.12561 0.12578,-0.67763 0.3911,-1.29322 0.63201,-1.93498 0.2506,-0.59317 0.52835,-1.17598 0.735,-1.7867 0.29801,-0.68426 0.68521,-1.3287 0.91248,-2.04414 0.2781,-0.65026 0.5802,-1.25039 1.06188,-1.78333 0.55898,-0.64072 1.07975,-1.33206 1.71583,-1.89411 l -4.89286,-3.0947 z"
         id="path3440"
         style="fill:#000000;fill-opacity:1;stroke:#000000;stroke-width:0.666667;stroke-linecap:butt;stroke-linejoin:bevel;stroke-miterlimit:4;stroke-dasharray:none;stroke-dashoffset:0;stroke-opacity:1"
         inkscape:transform-center-x="-8.6453173"
         inkscape:transform-center-y="40.459723"
         sodipodi:nodetypes="cscccccccsssssscssccccscc"
         inkscape:connector-curvature="0" />
      <path
         style="fill:#000000;fill-opacity:1;stroke:#000000;stroke-width:0.666667;stroke-linecap:butt;stroke-linejoin:bevel;stroke-miterlimit:4;stroke-dasharray:none;stroke-dashoffset:0;stroke-opacity:1"
         id="path3460"
         d="m 190.51698,135.29773 c -0.13371,0.90268 1.69777,1.29527 1.63603,2.20554 -0.0502,0.8319 -0.057,1.6655 -0.061,2.49863 -0.0473,0.71209 0.14769,1.40025 0.25988,2.09629 0.0985,0.6245 0.3245,1.21358 0.57109,1.79146 0.18752,0.6075 0.32173,1.21786 0.61676,1.78591 0.28408,0.67237 0.7425,1.20818 1.30242,1.66458 0.52825,0.33909 1.04282,0.69617 1.54551,1.07206 0.22817,0.23117 0.48456,0.42553 0.75045,0.6099 l 5.35502,2.14193 c -0.24828,-0.21687 -0.52306,-0.35154 -0.77262,-0.5666 -0.42862,-0.48328 -0.9973,-0.79009 -1.51144,-1.16954 -0.62461,-0.3001 -1.08566,-0.76444 -1.42738,-1.35843 -0.23116,-0.579 -0.59114,-1.09374 -0.62636,-1.74727 -0.19019,-0.57215 -0.48754,-1.09211 -0.63666,-1.6817 -0.0828,-0.68292 -0.2963,-1.34442 -0.30924,-2.02956 -0.0769,-5.31986 -4.94622,-9.29332 -7.11416,-14.16113 l 0.42172,6.84793 z"
         sodipodi:nodetypes="cscscccccccccccccc"
         inkscape:connector-curvature="0" />
      <path
         sodipodi:nodetypes="cscscccccccccccccc"
         d="m 192.89878,149.99056 c -0.1337,0.90268 1.69777,1.29527 1.63604,2.20555 -0.0502,0.83189 -0.057,1.66549 -0.061,2.49862 -0.0473,0.7121 0.14769,1.40026 0.25989,2.09629 0.0985,0.6245 0.3245,1.21358 0.57108,1.79147 0.18752,0.60749 0.32174,1.21785 0.61677,1.7859 0.28407,0.67237 0.74249,1.20819 1.30242,1.66458 0.52824,0.33909 1.04281,0.69617 1.5455,1.07206 0.22817,0.23117 0.48457,0.42553 0.75045,0.6099 l 5.35502,2.14193 c -0.24827,-0.21687 -0.52306,-0.35154 -0.77262,-0.5666 -0.42861,-0.48327 -0.9973,-0.79009 -1.51144,-1.16953 -0.62461,-0.30011 -1.08565,-0.76445 -1.42738,-1.35844 -0.23116,-0.57899 -0.59114,-1.09374 -0.62636,-1.74727 -0.19019,-0.57215 -0.48754,-1.09211 -0.63666,-1.6817 -0.0828,-0.68292 -0.2963,-1.34441 -0.30924,-2.02955 -0.0769,-5.31987 -4.94622,-9.29333 -7.11415,-14.16114 l 0.42171,6.84793 z"
         id="path3470"
         style="fill:#000000;fill-opacity:1;stroke:#000000;stroke-width:0.666667;stroke-linecap:butt;stroke-linejoin:bevel;stroke-miterlimit:4;stroke-dasharray:none;stroke-dashoffset:0;stroke-opacity:1"
         inkscape:connector-curvature="0" />
      <path
         sodipodi:nodetypes="cscscccccccccccccc"
         d="m 184.63985,116.1337 c -0.13371,0.90267 1.69777,1.29527 1.63603,2.20554 -0.0502,0.8319 -0.057,1.6655 -0.061,2.49863 -0.0472,0.71209 0.14769,1.40025 0.25988,2.09628 0.0985,0.62451 0.3245,1.21358 0.57108,1.79147 0.18752,0.6075 0.32174,1.21786 0.61677,1.78591 0.28408,0.67236 0.7425,1.20818 1.30242,1.66458 0.52825,0.33909 1.04282,0.69617 1.54551,1.07206 0.22817,0.23117 0.48456,0.42553 0.75045,0.6099 L 196.616,132 c -0.24828,-0.21687 -0.52306,-0.35154 -0.77262,-0.5666 -0.42862,-0.48328 -0.9973,-0.79009 -1.51144,-1.16954 -0.62461,-0.30011 -1.08566,-0.76445 -1.42739,-1.35843 -0.23115,-0.579 -0.59113,-1.09374 -0.62635,-1.74728 -0.19019,-0.57214 -0.48754,-1.0921 -0.63666,-1.68169 -0.0828,-0.68292 -0.2963,-1.34442 -0.30924,-2.02956 -0.0769,-5.31986 -4.94622,-9.29332 -7.11416,-14.16113 l 0.42172,6.84793 z"
         id="path3481"
         style="fill:#000000;fill-opacity:1;stroke:#000000;stroke-width:0.666667;stroke-linecap:butt;stroke-linejoin:bevel;stroke-miterlimit:4;stroke-dasharray:none;stroke-dashoffset:0;stroke-opacity:1"
         inkscape:connector-curvature="0" />
      <path
         style="fill:#000000;fill-opacity:1;stroke:#000000;stroke-width:0.858485;stroke-linecap:butt;stroke-linejoin:bevel;stroke-miterlimit:4;stroke-dasharray:none;stroke-dashoffset:0;stroke-opacity:1"
         d="m 188.21189,131.47755 c 0.12588,2.00521 3.63982,2.54488 3.78811,4.54839 0.35783,1.15271 -1.74402,3.50712 -0.60137,4.46984 1.49358,1.11292 3.60599,1.96747 5.96889,2.54256 1.39166,0.37777 2.79806,0.7454 4.11485,1.19072 -2.24476,-0.64694 -4.4474,-1.3316 -6.67922,-1.99017 1.5269,0.69529 2.93404,1.51897 4.83803,1.94153 1.19849,0.13831 2.49389,0.0469 3.60121,0.37687 1.33499,0.28517 -0.53099,-0.33227 -0.8417,-0.48644 -1.52944,-0.61274 -3.05886,-1.22547 -4.58828,-1.83821 -0.96019,-0.1721 -2.66811,-0.608 -3.17968,-0.58889 2.20285,0.71712 4.59463,1.26308 6.89094,1.89417 1.18458,0.31867 -0.68469,-0.21777 -1.08348,-0.35235 -1.92274,-0.59636 -3.82958,-1.21307 -5.86566,-1.70364 2.18734,0.69841 4.46882,1.31364 6.6811,1.9902 -0.94879,-0.30992 -1.63298,-0.78766 -2.42489,-1.18975 -0.86395,-0.58855 -1.5971,-1.22531 -2.43273,-1.82396 -0.7922,-0.60341 -1.45184,-1.30835 -1.26217,-2.05771 0.0703,-1.69766 -3.24231,1.17386 -3.13584,-0.52358 -2.32209,-0.6099 -1.46605,-5.78968 -3.78811,-6.39958 z"
         id="path3496"
         sodipodi:nodetypes="cccccccccccccccccccc"
         inkscape:connector-curvature="0" />
      <path
         sodipodi:nodetypes="cccccccccccccccccccc"
         id="path3500"
         d="m 192,144 c 0.12588,2.00522 3.63982,2.54489 3.78811,4.54839 0.35783,1.15271 -1.74402,3.50712 -0.60137,4.46984 1.49358,1.11293 3.60599,1.96748 5.96889,2.54256 1.39166,0.37777 2.79806,0.74541 4.11484,1.19072 -2.24475,-0.64693 -4.4474,-1.3316 -6.67922,-1.99017 1.5269,0.69529 2.93405,1.51897 4.83804,1.94153 1.19849,0.13831 2.49389,0.0469 3.60121,0.37687 1.33498,0.28518 -0.53099,-0.33226 -0.8417,-0.48644 -1.52944,-0.61273 -3.05886,-1.22547 -4.58829,-1.83821 -0.96018,-0.17209 -2.6681,-0.608 -3.17968,-0.58888 2.20286,0.71712 4.59464,1.26307 6.89095,1.89416 1.18457,0.31867 -0.6847,-0.21777 -1.08348,-0.35235 -1.92274,-0.59636 -3.82958,-1.21307 -5.86567,-1.70364 2.18734,0.69841 4.46883,1.31365 6.6811,1.9902 -0.94879,-0.30992 -1.63298,-0.78766 -2.42488,-1.18975 -0.86395,-0.58854 -1.5971,-1.22531 -2.43274,-1.82396 -0.79219,-0.60341 -4.68426,-4.24692 -4.49459,-4.99627 0.0703,-1.69767 -3.79799,-2.28716 -3.69152,-3.9846 -2.32209,-0.6099 2.32206,0.6099 0,0 z"
         style="fill:#000000;fill-opacity:1;stroke:#000000;stroke-width:0.858485;stroke-linecap:butt;stroke-linejoin:bevel;stroke-miterlimit:4;stroke-dasharray:none;stroke-dashoffset:0;stroke-opacity:1"
         inkscape:connector-curvature="0" />
    </g>
    <circle
       id="path3705"
       style="fill:#000000;fill-opacity:1;stroke:#000000;stroke-width:0.106667;stroke-linecap:butt;stroke-linejoin:bevel;stroke-miterlimit:4;stroke-dasharray:none;stroke-dashoffset:0;stroke-opacity:1"
       cx="182.13333"
       cy="67.835938"
       r="1.92" />
    <circle
       id="path3707"
       style="fill:#000000;fill-opacity:1;stroke:#000000;stroke-width:0.106667;stroke-linecap:butt;stroke-linejoin:bevel;stroke-miterlimit:4;stroke-dasharray:none;stroke-dashoffset:0;stroke-opacity:1"
       cx="176.14728"
       cy="70.080002"
       r="1.92" />
  </g>
</svg>
