<?xml version="1.0" encoding="UTF-8" standalone="no"?>
<!-- Created with Inkscape (http://www.inkscape.org/) -->

<svg
   version="1.1"
   id="svg2"
   xml:space="preserve"
   width="643.90558"
   height="743.61877"
   viewBox="0 0 643.90558 743.61877"
   sodipodi:docname="hat.svg"
   inkscape:version="1.1.2 (0a00cf5339, 2022-02-04)"
   xmlns:inkscape="http://www.inkscape.org/namespaces/inkscape"
   xmlns:sodipodi="http://sodipodi.sourceforge.net/DTD/sodipodi-0.dtd"
   xmlns="http://www.w3.org/2000/svg"
   xmlns:svg="http://www.w3.org/2000/svg"><defs
     id="defs6" /><sodipodi:namedview
     id="namedview4"
     pagecolor="#ffffff"
     bordercolor="#666666"
     borderopacity="1.0"
     inkscape:pageshadow="2"
     inkscape:pageopacity="0.0"
     inkscape:pagecheckerboard="0"
     showgrid="false"
     fit-margin-top="0"
     fit-margin-left="0"
     fit-margin-right="0"
     fit-margin-bottom="0"
     inkscape:zoom="0.82670455"
     inkscape:cx="311.47766"
     inkscape:cy="408.24742"
     inkscape:window-width="1495"
     inkscape:window-height="1082"
     inkscape:window-x="667"
     inkscape:window-y="193"
     inkscape:window-maximized="0"
     inkscape:current-layer="g8" /><g
     id="g8"
     inkscape:groupmode="layer"
     inkscape:label="hat"
     transform="matrix(1.3333333,0,0,-1.3333333,-96.477916,935.89798)"><g
       id="g10"
       transform="translate(212.8947,457.5611)"><path
         d="m 0,0 11.711,20.166 -11.67,6.848 0.14,27.149 11.463,6.632 11.807,-20.451 H 47.065 V 26.71 L 58.988,19.99 47.1,-0.435 H 23.486 l 0.107,-13.299 -11.809,-6.772 z"
         style="fill:none;stroke:#231f20;stroke-width:1;stroke-linecap:butt;stroke-linejoin:miter;stroke-miterlimit:10;stroke-dasharray:none;stroke-opacity:1"
         id="path12" /></g><g
       id="g14"
       transform="translate(213.5987,619.9734)"><path
         d="m 0,0 11.768,20.491 -11.807,6.817 -0.25,27.199 11.807,6.817 11.807,-20.451 23.46,-0.315 0.045,-13.43 11.807,-6.817 -11.643,-20.432 -23.479,0.065 0.059,-13.642 -11.872,-6.807 z"
         style="fill:none;stroke:#231f20;stroke-width:1;stroke-linecap:butt;stroke-linejoin:miter;stroke-miterlimit:10;stroke-dasharray:none;stroke-opacity:1"
         id="path16" /></g><g
       id="g22"
       transform="translate(425.5788,578.9842)"><path
         d="m 0,0 h -23.614 v 13.634 l -23.641,13.267 -11.92,-6.765 11.813,-20.303 -11.807,-20.451 11.775,-6.822 0.064,-13.571 h 23.614 l 11.807,20.45 11.807,-6.817 11.908,6.956 z"
         style="fill:none;stroke:#231f20;stroke-width:1;stroke-linecap:butt;stroke-linejoin:miter;stroke-miterlimit:10;stroke-dasharray:none;stroke-opacity:1"
         id="path24" /></g><g
       id="g26"
       transform="translate(143.3698,498.9742)"><path
         d="m 0,0 h -23.614 v 13.634 l -23.477,13.43 -11.807,-6.817 11.536,-19.98 -11.807,-20.45 11.807,-6.817 -0.043,-13.68 h 23.614 l 11.807,20.451 11.807,-6.817 11.611,6.539 z"
         style="fill:none;stroke:#231f20;stroke-width:1;stroke-linecap:butt;stroke-linejoin:miter;stroke-miterlimit:10;stroke-dasharray:none;stroke-opacity:1"
         id="path28" /></g><g
       id="g30"
       transform="translate(495.8117,212.7786)"><path
         d="m 0,0 -11.878,-20.217 11.808,-6.817 0.135,-27.19 -11.936,-6.652 -11.811,20.598 h -23.614 v 13.634 l -11.701,6.509 11.807,20.45 h 23.615 l 0.034,13.373 11.849,6.751 z"
         style="fill:none;stroke:#231f20;stroke-width:1;stroke-linecap:butt;stroke-linejoin:miter;stroke-miterlimit:10;stroke-dasharray:none;stroke-opacity:1"
         id="path32" /></g><g
       id="g34"
       transform="translate(495.8117,212.7786)"><path
         d="m 0,0 -11.692,20.439 -11.849,-6.751 -23.531,13.335 0.084,13.419 h 23.615 L -11.667,60.799 0.091,54.119 11.832,61.167 23.639,40.716 11.832,20.265 23.554,13.518 23.57,-0.222 Z"
         style="fill:none;stroke:#231f20;stroke-width:1;stroke-linecap:butt;stroke-linejoin:miter;stroke-miterlimit:10;stroke-dasharray:none;stroke-opacity:1"
         id="path36" /></g><g
       id="g38"
       transform="translate(425.3199,497.4469)"><path
         d="m 0,0 -11.668,20.5 -11.691,-6.733 -23.624,13.347 -0.088,13.412 h 23.614 L -11.65,60.977 0.157,54.16 12.065,61.115 23.872,40.693 12.065,20.242 23.693,13.462 23.569,-0.208 Z"
         style="fill:none;stroke:#231f20;stroke-width:1;stroke-linecap:butt;stroke-linejoin:miter;stroke-miterlimit:10;stroke-dasharray:none;stroke-opacity:1"
         id="path40" /></g><g
       id="g42"
       transform="translate(449.1255,619.8079)"><path
         d="m 0,0 -11.775,20.546 -11.768,-7.012 -23.679,13.462 -0.142,13.85 h 23.614 l 11.807,20.451 11.808,-6.817 11.807,6.817 11.506,-20.355 -11.807,-20.45 11.931,-6.894 0.212,-13.72 z"
         style="fill:none;stroke:#231f20;stroke-width:1;stroke-linecap:butt;stroke-linejoin:miter;stroke-miterlimit:10;stroke-dasharray:none;stroke-opacity:1"
         id="path44" /></g><g
       id="g46"
       transform="translate(354.7504,538.2763)"><path
         d="m 0,0 11.807,-20.451 11.779,6.735 23.624,-13.347 0.033,-13.408 H 23.629 L 11.73,-60.759 0.042,-54.01 l -11.807,-6.817 -11.826,20.459 11.882,20.377 -11.868,6.519 L -23.614,0 Z"
         style="fill:none;stroke:#231f20;stroke-width:1;stroke-linecap:butt;stroke-linejoin:miter;stroke-miterlimit:10;stroke-dasharray:none;stroke-opacity:1"
         id="path48" /></g><g
       id="g50"
       transform="translate(425.3199,497.4469)"><path
         d="m 0,0 -11.902,-20.292 11.691,-6.944 0.19,-27.023 -11.596,-6.568 -11.807,20.451 h -23.614 l -0.115,13.698 -11.687,6.749 11.899,20.287 h 23.615 l -0.033,13.409 11.691,6.733 z"
         style="fill:none;stroke:#231f20;stroke-width:1;stroke-linecap:butt;stroke-linejoin:miter;stroke-miterlimit:10;stroke-dasharray:none;stroke-opacity:1"
         id="path52" /></g><g
       id="g54"
       transform="translate(449.1255,619.8079)"><path
         d="m 0,0 -11.74,-20.423 11.808,-6.817 0.133,-27.05 -11.941,-6.956 -11.807,20.422 h -23.614 v 13.634 l -11.7,6.618 11.807,20.45 h 23.614 l -0.103,13.656 11.768,7.012 z"
         style="fill:none;stroke:#231f20;stroke-width:1;stroke-linecap:butt;stroke-linejoin:miter;stroke-miterlimit:10;stroke-dasharray:none;stroke-opacity:1"
         id="path56" /></g><g
       id="g58"
       transform="translate(495.7966,619.845)"><path
         d="m 0,0 -11.717,-20.501 11.683,-6.803 0.335,-27.241 -11.516,-6.817 -11.807,20.451 h -23.615 l 0.034,13.634 -11.808,6.817 11.74,20.423 23.514,-0.123 -0.212,13.721 11.718,6.826 z"
         style="fill:none;stroke:#231f20;stroke-width:1;stroke-linecap:butt;stroke-linejoin:miter;stroke-miterlimit:10;stroke-dasharray:none;stroke-opacity:1"
         id="path60" /></g><g
       id="g62"
       transform="translate(166.7224,539.2147)"><path
         d="m 0,0 -11.98,-20.275 11.807,-6.817 -0.135,-27.117 -11.611,-6.539 -11.434,20.508 h -23.614 v 13.633 l -11.419,6.537 11.69,20.26 h 23.615 l -0.063,13.453 11.707,6.828 z"
         style="fill:none;stroke:#231f20;stroke-width:1;stroke-linecap:butt;stroke-linejoin:miter;stroke-miterlimit:10;stroke-dasharray:none;stroke-opacity:1"
         id="path64" /></g><g
       id="g66"
       transform="translate(330.9297,578.7284)"><path
         d="m 0,0 -11.749,-20.404 11.807,-6.817 0.185,-26.703 -11.894,-6.922 -11.807,20.451 h -23.615 l -0.122,13.686 -11.49,6.926 11.933,19.921 h 23.614 l -0.197,13.557 11.531,6.717 z"
         style="fill:none;stroke:#231f20;stroke-width:1;stroke-linecap:butt;stroke-linejoin:miter;stroke-miterlimit:10;stroke-dasharray:none;stroke-opacity:1"
         id="path68" /></g><g
       id="g70"
       transform="translate(378.1529,578.8061)"><path
         d="m 0,0 -11.807,-20.451 11.839,-6.811 0.152,-26.984 -11.779,-6.734 -11.807,20.45 h -23.615 l -0.148,13.231 -11.808,6.817 11.75,20.404 23.554,-0.007 v 13.634 l 11.92,6.765 z"
         style="fill:none;stroke:#231f20;stroke-width:1;stroke-linecap:butt;stroke-linejoin:miter;stroke-miterlimit:10;stroke-dasharray:none;stroke-opacity:1"
         id="path72" /></g><g
       id="g74"
       transform="translate(213.21,539.1732)"><path
         d="m 0,0 -11.732,-20.478 11.598,-6.971 -0.14,-27.149 -11.668,-6.604 -11.807,20.451 -22.99,0.005 0.078,13.696 -11.807,6.817 11.98,20.275 23.417,-0.197 -0.025,13.324 11.676,6.743 z"
         style="fill:none;stroke:#231f20;stroke-width:1;stroke-linecap:butt;stroke-linejoin:miter;stroke-miterlimit:10;stroke-dasharray:none;stroke-opacity:1"
         id="path76" /></g><g
       id="g78"
       transform="translate(143.01,417.2684)"><path
         d="m 0,0 -11.877,-20.49 11.856,-6.817 0.031,-27.234 -11.841,-6.8 -11.807,20.45 h -23.614 l -0.047,13.584 -11.807,6.817 11.807,20.451 h 23.615 v 13.634 l 11.912,6.875 z"
         style="fill:none;stroke:#231f20;stroke-width:1;stroke-linecap:butt;stroke-linejoin:miter;stroke-miterlimit:10;stroke-dasharray:none;stroke-opacity:1"
         id="path80" /></g><g
       id="g82"
       transform="translate(542.7629,212.8299)"><path
         d="m 0,0 -11.759,-20.479 11.598,-6.785 0.123,-27.235 -11.586,-6.804 -11.807,20.45 h -23.614 l 0.023,13.768 -11.807,6.817 11.878,20.217 23.57,-0.223 -0.016,13.741 11.59,6.984 z"
         style="fill:none;stroke:#231f20;stroke-width:1;stroke-linecap:butt;stroke-linejoin:miter;stroke-miterlimit:10;stroke-dasharray:none;stroke-opacity:1"
         id="path84" /></g><g
       id="g86"
       transform="translate(260.3031,294.7621)"><path
         d="m 0,0 -11.992,-20.427 11.713,-6.741 0.149,-27.232 -11.637,-6.874 -11.808,20.451 h -23.614 l 0.063,13.633 -11.487,6.754 11.795,20.459 h 23.614 l -0.014,13.611 11.661,6.841 z"
         style="fill:none;stroke:#231f20;stroke-width:1;stroke-linecap:butt;stroke-linejoin:miter;stroke-miterlimit:10;stroke-dasharray:none;stroke-opacity:1"
         id="path88" /></g><g
       id="g90"
       transform="translate(143.0037,253.8532)"><path
         d="m 0,0 -11.807,-20.451 11.615,-6.867 -0.173,-27.252 -11.702,-6.76 -11.807,20.451 -23.38,0.018 v 13.634 l -11.807,6.817 11.807,20.45 h 23.614 l 0.135,13.576 11.743,6.752 z"
         style="fill:none;stroke:#231f20;stroke-width:1;stroke-linecap:butt;stroke-linejoin:miter;stroke-miterlimit:10;stroke-dasharray:none;stroke-opacity:1"
         id="path92" /></g><g
       id="g94"
       transform="translate(472.2208,334.4914)"><path
         d="m 0,0 h -23.614 l -0.014,-13.698 -23.427,-13.462 -11.879,6.601 11.807,20.45 -11.695,20.224 12.047,7.017 v 13.633 l 23.471,-0.105 11.503,-20.467 11.807,6.817 11.75,-6.88 z"
         style="fill:none;stroke:#231f20;stroke-width:1;stroke-linecap:butt;stroke-linejoin:miter;stroke-miterlimit:10;stroke-dasharray:none;stroke-opacity:1"
         id="path96" /></g><g
       id="g98"
       transform="translate(542.8364,294.0384)"><path
         d="m 0,0 -23.435,0.409 v -13.633 l -23.498,-13.917 -11.759,6.681 11.707,20.357 -11.808,20.451 11.808,6.817 -0.123,13.185 h 23.615 l 11.807,-20.45 11.647,6.728 11.79,-6.497 z"
         style="fill:none;stroke:#231f20;stroke-width:1;stroke-linecap:butt;stroke-linejoin:miter;stroke-miterlimit:10;stroke-dasharray:none;stroke-opacity:1"
         id="path100" /></g><g
       id="g102"
       transform="translate(213.0853,213.0197)"><path
         d="M 0,0 -11.807,20.451 0,27.267 0.092,54.552 -11.395,61.306 -23.19,40.847 H -46.804 V 27.213 l -12.028,-7.015 11.728,-20.307 h 23.614 v -13.634 l 11.668,-6.762 z"
         style="fill:none;stroke:#231f20;stroke-width:1;stroke-linecap:butt;stroke-linejoin:miter;stroke-miterlimit:10;stroke-dasharray:none;stroke-opacity:1"
         id="path104" /></g><g
       id="g106"
       transform="translate(495.851,293.9358)"><path
         d="M 0,0 -11.807,20.451 0,27.268 -0.125,53.806 -11.874,60.685 -23.63,40.556 h -23.615 l 0.014,-13.57 -11.655,-6.579 11.807,-20.451 h 23.614 v -13.634 l 11.759,-6.68 z"
         style="fill:none;stroke:#231f20;stroke-width:1;stroke-linecap:butt;stroke-linejoin:miter;stroke-miterlimit:10;stroke-dasharray:none;stroke-opacity:1"
         id="path108" /></g><g
       id="g110"
       transform="translate(495.6994,456.1732)"><path
         d="m 0,0 h 23.614 v -13.634 l 23.665,-13.771 11.504,6.781 -11.852,20.4 L 58.738,20.227 46.93,27.043 46.939,40.994 23.708,40.969 11.901,20.519 0.094,27.336 -11.727,20.587 Z"
         style="fill:none;stroke:#231f20;stroke-width:1;stroke-linecap:butt;stroke-linejoin:miter;stroke-miterlimit:10;stroke-dasharray:none;stroke-opacity:1"
         id="path112" /></g><g
       id="g114"
       transform="translate(330.6484,254.0349)"><path
         d="M 0,0 11.807,20.451 23.614,13.634 47.226,27.045 47.334,40.123 23.755,40.245 11.948,60.696 0.141,53.879 -11.981,60.822 -23.617,40.679 -11.81,20.229 -23.617,13.412 -23.608,-0.036 Z"
         style="fill:none;stroke:#231f20;stroke-width:1;stroke-linecap:butt;stroke-linejoin:miter;stroke-miterlimit:10;stroke-dasharray:none;stroke-opacity:1"
         id="path116" /></g><g
       id="g118"
       transform="translate(378.2672,416.3421)"><path
         d="M 0,0 -11.807,20.451 0,27.267 -0.1,54.427 -11.787,61.175 -23.686,40.888 H -47.301 V 27.254 L -59.064,20.471 -47.257,0.02 h 23.614 v -13.633 l 11.883,-6.905 z"
         style="fill:none;stroke:#231f20;stroke-width:1;stroke-linecap:butt;stroke-linejoin:miter;stroke-miterlimit:10;stroke-dasharray:none;stroke-opacity:1"
         id="path120" /></g><g
       id="g122"
       transform="translate(283.7701,497.9757)"><path
         d="M 0,0 -11.807,20.451 0,27.267 -0.035,54.044 -11.525,60.969 -23.458,41.048 H -47.073 V 27.415 L -59.232,20.38 -47.425,-0.07 h 23.615 v -13.634 l 11.922,-6.721 z"
         style="fill:none;stroke:#231f20;stroke-width:1;stroke-linecap:butt;stroke-linejoin:miter;stroke-miterlimit:10;stroke-dasharray:none;stroke-opacity:1"
         id="path124" /></g><g
       id="g126"
       transform="translate(166.3756,620.2139)"><path
         d="M 0,0 -11.807,20.451 0,27.268 -0.206,54.666 -11.934,61.121 -23.741,40.671 H -47.355 V 27.037 L -58.891,20.423 -47.256,0.298 h 23.614 v -13.634 l 12.046,-6.886 z"
         style="fill:none;stroke:#231f20;stroke-width:1;stroke-linecap:butt;stroke-linejoin:miter;stroke-miterlimit:10;stroke-dasharray:none;stroke-opacity:1"
         id="path128" /></g><g
       id="g130"
       transform="translate(260.309,376.0291)"><path
         d="M 0,0 11.807,20.451 0,27.267 -0.111,54.345 11.638,60.918 23.481,40.494 H 47.096 L 47.134,26.758 58.941,19.941 47.126,-0.467 23.481,-0.408 v -13.634 l -11.613,-6.382 z"
         style="fill:none;stroke:#231f20;stroke-width:1;stroke-linecap:butt;stroke-linejoin:miter;stroke-miterlimit:10;stroke-dasharray:none;stroke-opacity:1"
         id="path132" /></g><g
       id="g134"
       transform="translate(260.3031,294.7621)"><path
         d="M 0,0 23.549,-0.047 23.533,13.296 46.953,26.64 58.364,20.095 46.728,-0.048 58.535,-20.499 46.728,-27.316 46.737,-40.764 23.13,-40.8 l -11.808,20.451 -11.601,-6.819 -11.713,6.741 z"
         style="fill:none;stroke:#231f20;stroke-width:1;stroke-linecap:butt;stroke-linejoin:miter;stroke-miterlimit:10;stroke-dasharray:none;stroke-opacity:1"
         id="path136" /></g><g
       id="g138"
       transform="translate(354.2755,213.2342)"><path
         d="M 0,0 23.553,-0.074 23.581,13.45 47.145,26.954 58.923,20.181 47.115,-0.269 58.837,-20.492 47.098,-27.388 v -13.634 l -23.532,-0.095 -11.757,20.329 -11.766,-6.655 -11.845,6.932 z"
         style="fill:none;stroke:#231f20;stroke-width:1;stroke-linecap:butt;stroke-linejoin:miter;stroke-miterlimit:10;stroke-dasharray:none;stroke-opacity:1"
         id="path140" /></g><g
       id="g142"
       transform="translate(495.7966,619.845)"><path
         d="M 0,0 23.368,0.114 V 13.747 L 46.959,27.164 58.806,20.374 46.997,0.052 58.804,-20.398 46.997,-27.215 46.932,-40.843 H 23.317 l -11.807,20.451 -11.544,-6.912 -11.683,6.803 z"
         style="fill:none;stroke:#231f20;stroke-width:1;stroke-linecap:butt;stroke-linejoin:miter;stroke-miterlimit:10;stroke-dasharray:none;stroke-opacity:1"
         id="path144" /></g><g
       id="g146"
       transform="translate(307.3743,619.6295)"><path
         d="M 0,0 H 23.614 L 23.577,13.458 47.204,26.958 59.055,20.25 47.248,-0.201 59.029,-20.51 47.109,-27.275 v -13.633 l -23.554,0.007 -11.804,20.412 -11.531,-6.718 -11.882,6.992 z"
         style="fill:none;stroke:#231f20;stroke-width:1;stroke-linecap:butt;stroke-linejoin:miter;stroke-miterlimit:10;stroke-dasharray:none;stroke-opacity:1"
         id="path148" /></g><g
       id="g150"
       transform="translate(472.3036,660.7504)"><path
         d="M 0,0 23.314,0.096 V 13.73 l 23.59,13.416 11.808,-6.817 -11.808,-20.45 11.808,-20.451 -11.851,-6.586 v -13.634 l -23.368,-0.113 -11.651,20.387 -11.718,-6.827 -11.931,6.894 z"
         style="fill:none;stroke:#231f20;stroke-width:1;stroke-linecap:butt;stroke-linejoin:miter;stroke-miterlimit:10;stroke-dasharray:none;stroke-opacity:1"
         id="path152" /></g><g
       id="g154"
       transform="translate(425.3199,497.4469)"><path
         d="m 0,0 23.569,-0.208 0.124,13.67 23.442,13.707 11.621,-6.817 -11.807,-20.451 11.704,-20.587 -11.821,-6.749 0.035,-13.627 H 23.252 l -11.807,20.451 -11.656,-6.625 -11.691,6.944 z"
         style="fill:none;stroke:#231f20;stroke-width:1;stroke-linecap:butt;stroke-linejoin:miter;stroke-miterlimit:10;stroke-dasharray:none;stroke-opacity:1"
         id="path156" /></g><g
       id="g158"
       transform="translate(143.01,417.2684)"><path
         d="m 0,0 23.649,0.02 -0.316,13.461 23.313,13.594 11.972,-6.664 -11.807,-20.45 11.808,-20.39 -11.522,-6.81 0.036,-13.703 -23.515,0.002 -11.807,20.45 -11.832,-6.817 -11.856,6.817 z"
         style="fill:none;stroke:#231f20;stroke-width:1;stroke-linecap:butt;stroke-linejoin:miter;stroke-miterlimit:10;stroke-dasharray:none;stroke-opacity:1"
         id="path160" /></g><g
       id="g162"
       transform="translate(213.4367,376.4501)"><path
         d="M 0,0 H 23.614 V -13.634 L 47.12,-27.24 58.741,-20.845 46.872,-0.421 58.679,20.03 46.872,26.847 46.942,40.834 H 23.328 L 11.521,20.383 -0.287,27.2 -11.808,20.39 Z"
         style="fill:none;stroke:#231f20;stroke-width:1;stroke-linecap:butt;stroke-linejoin:miter;stroke-miterlimit:10;stroke-dasharray:none;stroke-opacity:1"
         id="path164" /></g><g
       id="g166"
       transform="translate(330.983,334.7462)"><path
         d="m 0,0 -23.564,-0.001 -0.163,-13.343 -23.42,-13.344 -11.598,6.672 11.807,20.451 -11.868,20.424 11.628,6.408 v 13.634 l 23.63,-0.085 11.823,-20.481 11.841,6.705 11.619,-6.72 z"
         style="fill:none;stroke:#231f20;stroke-width:1;stroke-linecap:butt;stroke-linejoin:miter;stroke-miterlimit:10;stroke-dasharray:none;stroke-opacity:1"
         id="path168" /></g><g
       id="g170"
       transform="translate(331.1592,497.9078)"><path
         d="m 0,0 -23.709,0.081 v -13.634 l -23.645,-13.525 -11.923,6.721 11.888,20.425 -11.807,20.451 11.807,6.816 0.087,13.091 h 23.614 l 11.807,-20.451 11.895,6.922 11.868,-6.519 z"
         style="fill:none;stroke:#231f20;stroke-width:1;stroke-linecap:butt;stroke-linejoin:miter;stroke-miterlimit:10;stroke-dasharray:none;stroke-opacity:1"
         id="path172" /></g><g
       id="g174"
       transform="translate(260.3117,539.024)"><path
         d="m 0,0 h -23.614 v -13.634 l -23.622,-13.665 -11.597,6.97 11.882,20.424 -11.57,19.966 11.728,6.787 v 13.633 l 23.672,-0.172 11.756,-20.279 11.808,6.817 11.49,-6.926 z"
         style="fill:none;stroke:#231f20;stroke-width:1;stroke-linecap:butt;stroke-linejoin:miter;stroke-miterlimit:10;stroke-dasharray:none;stroke-opacity:1"
         id="path176" /></g><g
       id="g178"
       transform="translate(354.5808,457.23)"><path
         d="m 0,0 h -23.614 v -13.634 l -23.564,-13.616 -11.846,6.831 11.807,20.45 -11.807,20.451 11.894,6.643 v 13.633 l 23.708,-0.08 11.827,-20.459 11.807,6.817 11.687,-6.748 z"
         style="fill:none;stroke:#231f20;stroke-width:1;stroke-linecap:butt;stroke-linejoin:miter;stroke-miterlimit:10;stroke-dasharray:none;stroke-opacity:1"
         id="path180" /></g><g
       id="g182"
       transform="translate(378.2675,660.1122)"><path
         d="m 0,0 h -23.614 l -0.075,-13.525 -23.628,-13.5 -11.609,6.766 11.665,20.21 -11.807,20.451 11.807,6.817 v 13.633 l 23.484,-0.059 11.807,-20.451 11.807,6.817 11.807,-6.817 z"
         style="fill:none;stroke:#231f20;stroke-width:1;stroke-linecap:butt;stroke-linejoin:miter;stroke-miterlimit:10;stroke-dasharray:none;stroke-opacity:1"
         id="path184" /></g><g
       id="g186"
       transform="translate(166.6797,294.7021)"><path
         d="M 0,0 -23.542,-0.006 V -13.64 l -23.64,-13.593 -11.672,6.759 11.807,20.45 -11.807,20.451 11.7,6.79 v 13.634 l 23.596,-0.042 11.852,-20.459 11.725,6.855 11.806,-6.76 z"
         style="fill:none;stroke:#231f20;stroke-width:1;stroke-linecap:butt;stroke-linejoin:miter;stroke-miterlimit:10;stroke-dasharray:none;stroke-opacity:1"
         id="path188" /></g><g
       id="g190"
       transform="translate(143.1221,335.5109)"><path
         d="m 0,0 -23.597,0.042 v -13.634 l -23.721,-13.66 -11.807,6.817 11.807,20.451 -11.807,20.45 11.807,6.817 -0.046,13.584 h 23.614 l 11.807,-20.451 11.841,6.801 11.847,-6.801 z"
         style="fill:none;stroke:#231f20;stroke-width:1;stroke-linecap:butt;stroke-linejoin:miter;stroke-miterlimit:10;stroke-dasharray:none;stroke-opacity:1"
         id="path192" /></g><g
       id="g194"
       transform="translate(425.4658,415.9288)"><path
         d="M 0,0 -23.319,0.253 V -13.38 l -23.758,-13.63 -11.882,6.905 11.76,20.518 -11.807,20.451 11.807,6.817 0.015,13.461 h 23.614 l 11.807,-20.451 11.596,6.568 11.751,-6.887 z"
         style="fill:none;stroke:#231f20;stroke-width:1;stroke-linecap:butt;stroke-linejoin:miter;stroke-miterlimit:10;stroke-dasharray:none;stroke-opacity:1"
         id="path196" /></g><g
       id="g198"
       transform="translate(448.9173,375.1516)"><path
         d="m 0,0 -23.472,0.105 v -13.634 l -23.478,-13.684 -11.62,6.801 11.807,20.45 -11.807,20.451 11.8,6.908 V 41.03 l 23.318,-0.253 11.735,-20.625 11.682,6.846 12.004,-6.636 z"
         style="fill:none;stroke:#231f20;stroke-width:1;stroke-linecap:butt;stroke-linejoin:miter;stroke-miterlimit:10;stroke-dasharray:none;stroke-opacity:1"
         id="path200" /></g><g
       id="g202"
       transform="translate(495.9469,538.1771)"><path
         d="m 0,0 -23.399,0.072 -0.093,-13.634 -23.442,-13.706 -11.628,6.78 11.807,20.451 -11.807,20.422 11.875,6.955 -0.1,13.416 h 23.614 l 11.808,-20.45 11.516,6.817 11.711,-6.708 z"
         style="fill:none;stroke:#231f20;stroke-width:1;stroke-linecap:butt;stroke-linejoin:miter;stroke-miterlimit:10;stroke-dasharray:none;stroke-opacity:1"
         id="path204" /></g><g
       id="g206"
       transform="translate(425.1362,253.609)"><path
         d="m 0,0 -23.701,0.19 -0.015,-13.611 -23.564,-13.504 -11.767,6.86 11.807,20.451 -11.807,20.451 11.823,6.554 0.07,13.158 23.578,-0.122 11.807,-20.451 11.853,6.848 11.812,-6.502 z"
         style="fill:none;stroke:#231f20;stroke-width:1;stroke-linecap:butt;stroke-linejoin:miter;stroke-miterlimit:10;stroke-dasharray:none;stroke-opacity:1"
         id="path208" /></g><g
       id="g210"
       transform="translate(283.5431,172.0635)"><path
         d="m 0,0 h -23.614 l 0.083,-13.652 -23.617,-13.619 -11.891,6.843 11.807,20.451 -11.773,20.392 11.865,6.876 v 13.633 l 23.553,0.074 11.66,-20.429 11.851,6.916 11.974,-6.871 z"
         style="fill:none;stroke:#231f20;stroke-width:1;stroke-linecap:butt;stroke-linejoin:miter;stroke-miterlimit:10;stroke-dasharray:none;stroke-opacity:1"
         id="path212" /></g><g
       id="g214"
       transform="translate(142.5102,172.0542)"><path
         d="m 0,0 -23.711,0.031 v -13.634 l -23.518,-13.664 -11.807,6.816 11.807,20.451 -11.807,20.451 11.807,6.816 v 13.634 l 23.849,0.019 11.807,-20.451 11.702,6.76 11.637,-6.855 z"
         style="fill:none;stroke:#231f20;stroke-width:1;stroke-linecap:butt;stroke-linejoin:miter;stroke-miterlimit:10;stroke-dasharray:none;stroke-opacity:1"
         id="path216" /></g><g
       id="g218"
       transform="translate(212.8947,457.5611)"><path
         d="m 0,0 -23.496,0.34 0.257,-13.557 -23.312,-13.595 -11.913,6.76 11.807,20.451 -11.434,20.507 11.611,6.539 0.056,13.421 22.99,-0.005 11.807,-20.451 11.668,6.604 11.67,-6.848 z"
         style="fill:none;stroke:#231f20;stroke-width:1;stroke-linecap:butt;stroke-linejoin:miter;stroke-miterlimit:10;stroke-dasharray:none;stroke-opacity:1"
         id="path220" /></g><g
       id="g222"
       transform="translate(237.1903,579.3331)"><path
         d="m 0,0 -23.671,0.172 v -13.633 l -23.406,-13.53 -11.548,6.585 11.807,20.45 -11.807,20.451 11.564,6.526 v 13.633 l 23.469,-0.014 11.702,-20.505 11.873,6.807 11.925,-6.834 z"
         style="fill:none;stroke:#231f20;stroke-width:1;stroke-linecap:butt;stroke-linejoin:miter;stroke-miterlimit:10;stroke-dasharray:none;stroke-opacity:1"
         id="path224" /></g><g
       id="g226"
       transform="translate(213.5987,619.9734)"><path
         d="M 0,0 -23.47,0.014 V -13.62 l -23.304,-13.247 -12.045,6.886 11.596,20.222 -11.807,20.45 11.807,6.817 -0.102,13.501 23.922,0.002 11.807,-20.451 11.557,6.748 11.807,-6.817 z"
         style="fill:none;stroke:#231f20;stroke-width:1;stroke-linecap:butt;stroke-linejoin:miter;stroke-miterlimit:10;stroke-dasharray:none;stroke-opacity:1"
         id="path228" /></g><g
       id="g230"
       transform="translate(142.6349,660.8845)"><path
         d="m 0,0 h -23.614 v -13.634 l -23.437,-13.467 -11.906,6.289 11.808,20.45 -11.808,20.451 11.808,6.817 v 13.633 h 23.614 l 11.807,-20.45 11.807,6.817 11.728,-6.455 z"
         style="fill:none;stroke:#231f20;stroke-width:1;stroke-linecap:butt;stroke-linejoin:miter;stroke-miterlimit:10;stroke-dasharray:none;stroke-opacity:1"
         id="path232" /></g><g
       id="g234"
       transform="translate(189.8958,253.8666)"><path
         d="m 0,0 h -23.614 v -13.634 l -23.47,-13.697 -11.615,6.867 11.807,20.451 -11.762,20.368 11.896,6.841 V 40.829 L -23.216,40.835 -11.5,20.397 0.308,27.214 11.794,20.46 Z"
         style="fill:none;stroke:#231f20;stroke-width:1;stroke-linecap:butt;stroke-linejoin:miter;stroke-miterlimit:10;stroke-dasharray:none;stroke-opacity:1"
         id="path236" /></g><g
       id="g238"
       transform="translate(259.956,213.0619)"><path
         d="m 0,0 -23.553,-0.074 v -13.634 l -23.472,-13.602 -11.668,6.763 11.822,20.505 -11.807,20.45 11.807,6.817 0.029,13.652 h 23.614 L -11.42,20.426 0.217,27.301 11.894,20.504 Z"
         style="fill:none;stroke:#231f20;stroke-width:1;stroke-linecap:butt;stroke-linejoin:miter;stroke-miterlimit:10;stroke-dasharray:none;stroke-opacity:1"
         id="path240" /></g><g
       id="g242"
       transform="translate(425.1362,253.609)"><path
         d="m 0,0 11.805,-20.513 11.799,6.706 23.53,-13.335 L 47.1,-40.515 H 23.486 l -11.807,-20.451 -11.964,6.996 -11.739,-6.896 -11.768,20.222 11.807,20.45 -11.731,6.773 0.015,13.611 z"
         style="fill:none;stroke:#231f20;stroke-width:1;stroke-linecap:butt;stroke-linejoin:miter;stroke-miterlimit:10;stroke-dasharray:none;stroke-opacity:1"
         id="path244" /></g><g
       id="g246"
       transform="translate(495.9469,538.1771)"><path
         d="m 0,0 11.536,-20.487 11.716,6.856 23.46,-13.756 -0.021,-13.623 -23.23,-0.025 -11.807,-20.45 -11.808,6.817 -11.82,-6.749 -11.751,20.588 11.807,20.45 -11.574,6.817 0.093,13.634 z"
         style="fill:none;stroke:#231f20;stroke-width:1;stroke-linecap:butt;stroke-linejoin:miter;stroke-miterlimit:10;stroke-dasharray:none;stroke-opacity:1"
         id="path248" /></g><g
       id="g250"
       transform="translate(378.2675,660.1122)"><path
         d="m 0,0 11.97,-20.342 11.666,7.034 23.679,-13.462 0.103,-13.656 H 23.804 l -11.807,-20.451 -11.941,6.65 -11.92,-6.765 -11.781,20.308 11.807,20.451 -11.851,6.708 L -23.614,0 Z"
         style="fill:none;stroke:#231f20;stroke-width:1;stroke-linecap:butt;stroke-linejoin:miter;stroke-miterlimit:10;stroke-dasharray:none;stroke-opacity:1"
         id="path252" /></g><g
       id="g254"
       transform="translate(472.1282,415.558)"><path
         d="m 0,0 11.819,-20.383 11.735,6.675 23.599,-13.616 0.065,-13.483 H 23.604 l -11.756,-20.13 -11.749,6.88 -11.807,-6.817 -11.503,20.468 11.969,20.362 -12.004,6.636 -0.321,13.482 z"
         style="fill:none;stroke:#231f20;stroke-width:1;stroke-linecap:butt;stroke-linejoin:miter;stroke-miterlimit:10;stroke-dasharray:none;stroke-opacity:1"
         id="path256" /></g><g
       id="g258"
       transform="translate(190.1701,335.5347)"><path
         d="m 0,0 11.734,-20.397 11.718,6.826 23.463,-13.568 0.014,-13.61 H 23.315 l -11.795,-20.46 -11.487,6.755 -11.807,-6.817 -11.716,20.438 11.825,20.445 -11.806,6.76 -0.081,13.614 z"
         style="fill:none;stroke:#231f20;stroke-width:1;stroke-linecap:butt;stroke-linejoin:miter;stroke-miterlimit:10;stroke-dasharray:none;stroke-opacity:1"
         id="path260" /></g><g
       id="g262"
       transform="translate(212.8947,457.5611)"><path
         d="m 0,0 11.784,-20.506 11.809,6.772 23.711,-13.453 0.18,-13.091 H 23.87 l -11.807,-20.45 -11.808,6.817 -11.521,-6.81 -11.808,20.389 11.807,20.451 -11.972,6.664 -0.257,13.557 z"
         style="fill:none;stroke:#231f20;stroke-width:1;stroke-linecap:butt;stroke-linejoin:miter;stroke-miterlimit:10;stroke-dasharray:none;stroke-opacity:1"
         id="path264" /></g><g
       id="g266"
       transform="translate(260.5923,619.8523)"><path
         d="m 0,0 11.834,-20.497 11.808,6.817 23.36,-13.749 0.198,-13.557 H 23.585 l -11.933,-19.921 -11.49,6.925 -11.807,-6.817 -11.757,20.28 11.921,20.106 -11.938,6.836 -0.059,13.642 z"
         style="fill:none;stroke:#231f20;stroke-width:1;stroke-linecap:butt;stroke-linejoin:miter;stroke-miterlimit:10;stroke-dasharray:none;stroke-opacity:1"
         id="path268" /></g><g
       id="g270"
       transform="translate(96.1168,579.9397)"><path
         d="m 0,0 11.807,-20.451 11.844,6.759 23.811,-13.39 0.062,-13.453 H 23.91 l -11.69,-20.26 -12.058,6.893 -11.807,-6.816 -11.536,19.979 11.808,20.451 -11.808,6.817 V 0.162 Z"
         style="fill:none;stroke:#231f20;stroke-width:1;stroke-linecap:butt;stroke-linejoin:miter;stroke-miterlimit:10;stroke-dasharray:none;stroke-opacity:1"
         id="path272" /></g><g
       id="g274"
       transform="translate(283.9215,660.3732)"><path
         d="m 0,0 11.807,-20.451 11.807,6.817 23.415,-13.652 0.038,-13.458 H 23.453 l -11.663,-20.215 -11.478,6.758 -11.807,-6.817 -11.834,20.497 11.644,20.432 -11.808,6.817 -0.044,13.43 z"
         style="fill:none;stroke:#231f20;stroke-width:1;stroke-linecap:butt;stroke-linejoin:miter;stroke-miterlimit:10;stroke-dasharray:none;stroke-opacity:1"
         id="path276" /></g><g
       id="g278"
       transform="translate(260.3031,294.7621)"><path
         d="m 0,0 -11.557,20.475 -11.661,-6.841 -23.463,13.568 -0.07,13.625 h 23.614 l 11.75,20.356 11.641,-6.735 11.62,6.395 L 23.742,40.419 11.935,19.968 23.533,13.296 23.549,-0.047 Z"
         style="fill:none;stroke:#231f20;stroke-width:1;stroke-linecap:butt;stroke-linejoin:miter;stroke-miterlimit:10;stroke-dasharray:none;stroke-opacity:1"
         id="path280" /></g><g
       id="g282"
       transform="translate(143.01,417.2684)"><path
         d="m 0,0 -11.772,20.47 -11.703,-6.758 -23.614,13.634 0.043,13.68 h 23.615 L -11.624,61.476 0.183,54.66 11.794,61.199 23.228,40.691 11.421,20.241 23.333,13.481 23.649,0.02 Z"
         style="fill:none;stroke:#231f20;stroke-width:1;stroke-linecap:butt;stroke-linejoin:miter;stroke-miterlimit:10;stroke-dasharray:none;stroke-opacity:1"
         id="path284" /></g><g
       id="g286"
       transform="translate(283.7184,416.4695)"><path
         d="m 0,0 -11.771,20.477 -11.749,-6.572 -23.711,13.453 -0.107,13.299 h 23.614 L -11.836,61.081 0.087,54.361 11.838,61.243 23.645,40.792 11.838,20.341 23.685,13.511 23.614,0 Z"
         style="fill:none;stroke:#231f20;stroke-width:1;stroke-linecap:butt;stroke-linejoin:miter;stroke-miterlimit:10;stroke-dasharray:none;stroke-opacity:1"
         id="path288" /></g><g
       id="g290"
       transform="translate(166.7224,539.2147)"><path
         d="m 0,0 -11.437,20.471 -11.707,-6.828 -23.811,13.39 -0.199,13.523 h 23.615 L -11.943,60.778 0.103,53.892 11.843,60.613 23.65,40.163 11.843,19.712 23.391,13.128 23.417,-0.197 Z"
         style="fill:none;stroke:#231f20;stroke-width:1;stroke-linecap:butt;stroke-linejoin:miter;stroke-miterlimit:10;stroke-dasharray:none;stroke-opacity:1"
         id="path292" /></g><g
       id="g298"
       transform="translate(378.3964,334.2931)"><path
         d="m 0,0 -11.925,20.677 -11.807,-6.816 -23.565,13.632 0.033,13.52 h 23.614 l 11.76,20.518 11.883,-6.905 11.958,6.721 11.807,-20.45 -11.807,-20.451 11.62,-6.8 -0.165,-13.623 z"
         style="fill:none;stroke:#231f20;stroke-width:1;stroke-linecap:butt;stroke-linejoin:miter;stroke-miterlimit:10;stroke-dasharray:none;stroke-opacity:1"
         id="path300" /></g><g
       id="g302"
       transform="translate(354.2755,213.2342)"><path
         d="m 0,0 -11.751,20.585 -11.807,-6.817 -23.668,13.548 -0.009,13.448 23.608,0.037 11.807,20.45 11.807,-6.817 11.826,6.777 L 23.62,40.761 11.813,20.31 23.581,13.45 23.553,-0.074 Z"
         style="fill:none;stroke:#231f20;stroke-width:1;stroke-linecap:butt;stroke-linejoin:miter;stroke-miterlimit:10;stroke-dasharray:none;stroke-opacity:1"
         id="path304" /></g><g
       id="g306"
       transform="translate(330.8269,172.1602)"><path
         d="m 0,0 -11.783,20.567 -11.807,-6.817 -23.77,13.639 0.035,13.747 h 23.614 l 11.808,20.45 11.794,-6.744 11.807,6.817 L 23.449,41.074 11.646,20.563 23.491,13.631 23.569,0.044 Z"
         style="fill:none;stroke:#231f20;stroke-width:1;stroke-linecap:butt;stroke-linejoin:miter;stroke-miterlimit:10;stroke-dasharray:none;stroke-opacity:1"
         id="path308" /></g><g
       id="g314"
       transform="translate(354.4035,294.2798)"><path
         d="m 0,0 -11.807,20.451 -11.807,-6.817 -23.533,13.488 0.062,13.345 23.665,-10e-4 11.734,20.32 L 0.261,53.874 12.068,60.691 23.758,40.467 11.86,19.812 23.667,12.995 23.579,-0.122 Z"
         style="fill:none;stroke:#231f20;stroke-width:1;stroke-linecap:butt;stroke-linejoin:miter;stroke-miterlimit:10;stroke-dasharray:none;stroke-opacity:1"
         id="path316" /></g><g
       id="g318"
       transform="translate(425.0939,334.3827)"><path
         d="m 0,0 -11.807,-20.451 11.879,-6.601 0.054,-26.897 -11.852,-6.849 -11.807,20.451 -23.579,0.122 0.089,13.117 -11.807,6.817 11.716,20.247 23.823,-0.023 0.165,13.623 11.431,6.668 z"
         style="fill:none;stroke:#231f20;stroke-width:1;stroke-linecap:butt;stroke-linejoin:miter;stroke-miterlimit:10;stroke-dasharray:none;stroke-opacity:1"
         id="path320" /></g><g
       id="g322"
       transform="translate(542.6811,374.6726)"><path
         d="m 0,0 -11.849,-20.263 11.753,-6.763 0.212,-26.981 -11.647,-6.727 -11.807,20.45 h -23.615 l -0.002,13.353 -11.75,6.88 11.756,20.13 h 23.614 l -0.065,13.482 11.71,6.647 z"
         style="fill:none;stroke:#231f20;stroke-width:1;stroke-linecap:butt;stroke-linejoin:miter;stroke-miterlimit:10;stroke-dasharray:none;stroke-opacity:1"
         id="path324" /></g><g
       id="g326"
       transform="translate(259.956,213.0619)"><path
         d="M 0,0 11.894,20.504 0.217,27.301 0.068,54.532 11.669,61.351 23.477,40.9 47.084,40.937 47.094,27.488 58.967,20.685 47.16,0.234 H 23.546 L 23.511,-13.513 11.66,-20.43 Z"
         style="fill:none;stroke:#231f20;stroke-width:1;stroke-linecap:butt;stroke-linejoin:miter;stroke-miterlimit:10;stroke-dasharray:none;stroke-opacity:1"
         id="path328" /></g><g
       id="g330"
       transform="translate(142.4281,171.9005)"><path
         d="M 0,0 11.848,20.528 0.211,27.382 0.384,54.635 11.826,61.317 23.553,41.01 H 47.167 V 27.376 L 58.835,20.614 47.013,0.109 H 23.399 l 0.035,-13.598 -11.682,-6.854 z"
         style="fill:none;stroke:#231f20;stroke-width:1;stroke-linecap:butt;stroke-linejoin:miter;stroke-miterlimit:10;stroke-dasharray:none;stroke-opacity:1"
         id="path332" /></g><g
       id="g334"
       transform="translate(143.1221,335.5109)"><path
         d="M 0,0 11.745,20.416 -0.102,27.217 -0.133,54.451 11.699,61.268 23.506,40.817 47.021,40.816 47.059,27.251 58.866,20.434 47.048,0.024 23.496,0.01 23.577,-13.604 11.852,-20.458 Z"
         style="fill:none;stroke:#231f20;stroke-width:1;stroke-linecap:butt;stroke-linejoin:miter;stroke-miterlimit:10;stroke-dasharray:none;stroke-opacity:1"
         id="path336" /></g><g
       id="g338"
       transform="translate(425.1362,253.609)"><path
         d="M 0,0 11.896,20.322 0.084,26.824 0.03,53.722 11.829,60.734 23.636,40.283 H 47.25 V 26.649 L 59.008,19.969 47.302,-0.389 H 23.688 l -0.084,-13.418 -11.799,-6.706 z"
         style="fill:none;stroke:#231f20;stroke-width:1;stroke-linecap:butt;stroke-linejoin:miter;stroke-miterlimit:10;stroke-dasharray:none;stroke-opacity:1"
         id="path340" /></g><g
       id="g342"
       transform="translate(472.1282,415.558)"><path
         d="m 0,0 11.713,20.302 -11.807,6.817 0.118,27.335 11.82,6.749 11.727,-20.588 H 47.186 V 26.981 L 58.886,20.197 47.078,-0.254 H 23.464 l 0.09,-13.454 -11.735,-6.675 z"
         style="fill:none;stroke:#231f20;stroke-width:1;stroke-linecap:butt;stroke-linejoin:miter;stroke-miterlimit:10;stroke-dasharray:none;stroke-opacity:1"
         id="path344" /></g><g
       id="g346"
       transform="translate(96.1168,579.9397)"><path
         d="M 0,0 11.373,20.288 -0.434,27.105 -0.533,53.844 11.368,60.697 23.003,40.572 H 46.617 V 26.938 L 58.662,20.053 47.066,-0.169 H 23.452 l 0.199,-13.523 -11.844,-6.759 z"
         style="fill:none;stroke:#231f20;stroke-width:1;stroke-linecap:butt;stroke-linejoin:miter;stroke-miterlimit:10;stroke-dasharray:none;stroke-opacity:1"
         id="path348" /></g><g
       id="g350"
       transform="translate(495.9469,538.1771)"><path
         d="M 0,0 11.862,20.415 0.151,27.123 -0.184,54.364 11.36,61.276 23.167,40.825 H 46.782 L 46.862,27.117 58.61,20.377 46.741,-0.032 H 23.127 l 0.125,-13.599 -11.716,-6.856 z"
         style="fill:none;stroke:#231f20;stroke-width:1;stroke-linecap:butt;stroke-linejoin:miter;stroke-miterlimit:10;stroke-dasharray:none;stroke-opacity:1"
         id="path352" /></g><g
       id="g354"
       transform="translate(307.4351,375.5619)"><path
         d="m 0,0 11.815,20.408 -11.807,6.817 -0.04,27.193 11.8,6.833 11.807,-20.45 H 47.189 V 27.167 L 59.072,20.262 47.311,-0.256 H 23.697 l -0.033,-13.52 -11.841,-6.704 z"
         style="fill:none;stroke:#231f20;stroke-width:1;stroke-linecap:butt;stroke-linejoin:miter;stroke-miterlimit:10;stroke-dasharray:none;stroke-opacity:1"
         id="path356" /></g><g
       id="g358"
       transform="translate(190.1701,335.5347)"><path
         d="m 0,0 11.818,20.41 -11.807,6.817 -0.074,27.268 11.522,6.81 11.808,-20.39 H 46.881 V 27.282 L 58.746,20.411 46.996,0.055 H 23.382 l 0.07,-13.626 -11.718,-6.826 z"
         style="fill:none;stroke:#231f20;stroke-width:1;stroke-linecap:butt;stroke-linejoin:miter;stroke-miterlimit:10;stroke-dasharray:none;stroke-opacity:1"
         id="path360" /></g><g
       id="g362"
       transform="translate(425.4658,415.9288)"><path
         d="m 0,0 11.584,20.372 -11.751,6.887 -0.19,27.023 11.656,6.625 11.807,-20.451 H 46.721 L 46.638,26.761 58.445,19.944 46.662,-0.371 23.095,-0.296 23.417,-13.779 11.735,-20.625 Z"
         style="fill:none;stroke:#231f20;stroke-width:1;stroke-linecap:butt;stroke-linejoin:miter;stroke-miterlimit:10;stroke-dasharray:none;stroke-opacity:1"
         id="path364" /></g><g
       id="g366"
       transform="translate(307.5229,701.0245)"><path
         d="m 0,0 -11.807,-20.451 -11.807,6.817 -23.615,-13.634 0.09,-13.226 23.538,-0.157 11.807,-20.451 11.807,6.817 11.805,-6.887 11.666,20.211 -11.808,20.451 11.808,6.816 V -0.06 Z"
         style="fill:none;stroke:#231f20;stroke-width:1;stroke-linecap:butt;stroke-linejoin:miter;stroke-miterlimit:10;stroke-dasharray:none;stroke-opacity:1"
         id="path368" /></g></g></svg>
