<?xml version="1.0" encoding="UTF-8" standalone="no"?>
<!-- Created with Inkscape (http://www.inkscape.org/) -->

<svg
   version="1.1"
   id="svg2"
   xml:space="preserve"
   width="612.35413"
   height="782.1156"
   viewBox="0 0 612.35413 782.1156"
   sodipodi:docname="spectre.svg"
   inkscape:version="1.1.2 (0a00cf5339, 2022-02-04)"
   xmlns:inkscape="http://www.inkscape.org/namespaces/inkscape"
   xmlns:sodipodi="http://sodipodi.sourceforge.net/DTD/sodipodi-0.dtd"
   xmlns="http://www.w3.org/2000/svg"
   xmlns:svg="http://www.w3.org/2000/svg"><defs
     id="defs6" /><sodipodi:namedview
     id="namedview4"
     pagecolor="#ffffff"
     bordercolor="#666666"
     borderopacity="1.0"
     inkscape:pageshadow="2"
     inkscape:pageopacity="0.0"
     inkscape:pagecheckerboard="0"
     showgrid="false"
     fit-margin-top="0"
     fit-margin-left="0"
     fit-margin-right="0"
     fit-margin-bottom="0"
     inkscape:zoom="0.82670455"
     inkscape:cx="296.35739"
     inkscape:cy="423.3677"
     inkscape:window-width="2560"
     inkscape:window-height="1371"
     inkscape:window-x="0"
     inkscape:window-y="32"
     inkscape:window-maximized="1"
     inkscape:current-layer="g8" /><g
     id="g8"
     inkscape:groupmode="layer"
     inkscape:label="spectre"
     transform="matrix(1.3333333,0,0,-1.3333333,-110.95555,951.11008)"><g
       id="g10"
       transform="translate(204.108,472.3758)"><path
         d="M 0,0 -21.864,-38.134 -10.823,-57.035 8.374,-46.113 27.096,-57 l 10.922,18.98 21.878,0.166 0.058,21.851 L 40.941,-4.983 51.737,13.773 40.835,32.609 21.738,21.726 21.755,-0.143 Z"
         style="fill:none;stroke:#231f20;stroke-width:1;stroke-linecap:butt;stroke-linejoin:miter;stroke-miterlimit:10;stroke-dasharray:none;stroke-opacity:1"
         id="path12" /></g><g
       id="g14"
       transform="translate(113.7894,599.9716)"><path
         d="m 0,0 -22.052,-38.194 10.857,-18.912 19.305,11.09 18.694,-10.885 11.06,18.883 22.055,0.142 -0.067,21.672 L 40.795,-5.04 51.666,13.824 40.859,32.664 21.84,21.809 21.566,-0.159 Z"
         style="fill:none;stroke:#231f20;stroke-width:1;stroke-linecap:butt;stroke-linejoin:miter;stroke-miterlimit:10;stroke-dasharray:none;stroke-opacity:1"
         id="path16" /></g><g
       id="g18"
       transform="translate(124.6073,279.2906)"><path
         d="m 0,0 -22.052,-38.194 10.857,-18.912 19.083,10.915 18.724,-10.745 10.924,18.867 22.171,0.164 0.005,21.693 L 40.685,-5.083 51.536,13.83 40.773,32.716 21.71,21.87 21.566,-0.159 Z"
         style="fill:none;stroke:#231f20;stroke-width:1;stroke-linecap:butt;stroke-linejoin:miter;stroke-miterlimit:10;stroke-dasharray:none;stroke-opacity:1"
         id="path20" /></g><g
       id="g22"
       transform="translate(438.6858,679.895)"><path
         d="m 0,0 -22.052,-38.194 10.81,-18.861 19.2,10.883 18.875,-10.899 10.954,19.064 21.737,0.036 0.188,21.759 L 40.76,-5.036 51.659,13.842 40.803,32.754 21.84,21.809 21.566,-0.159 Z"
         style="fill:none;stroke:#231f20;stroke-width:1;stroke-linecap:butt;stroke-linejoin:miter;stroke-miterlimit:10;stroke-dasharray:none;stroke-opacity:1"
         id="path24" /></g><g
       id="g26"
       transform="translate(476.4732,641.8884)"><path
         d="m 0,0 -21.911,-37.988 10.875,-18.86 19.197,10.922 18.738,-10.859 10.888,18.778 21.908,0.23 0.071,21.617 L 40.814,-4.984 51.713,13.893 40.857,32.805 21.894,21.861 21.737,0.035 Z"
         style="fill:none;stroke:#231f20;stroke-width:1;stroke-linecap:butt;stroke-linejoin:miter;stroke-miterlimit:10;stroke-dasharray:none;stroke-opacity:1"
         id="path28" /></g><g
       id="g30"
       transform="translate(283.0744,665.6193)"><path
         d="m 0,0 -21.918,-38.153 10.926,-18.873 19.197,10.921 18.737,-10.859 11.034,18.955 21.737,0.035 0.068,21.866 L 40.668,-5.024 51.593,13.844 40.766,32.754 21.803,21.81 21.53,-0.159 Z"
         style="fill:none;stroke:#231f20;stroke-width:1;stroke-linecap:butt;stroke-linejoin:miter;stroke-miterlimit:10;stroke-dasharray:none;stroke-opacity:1"
         id="path32" /></g><g
       id="g34"
       transform="translate(321.0501,627.6104)"><path
         d="m 0,0 -21.772,-38.145 10.999,-18.704 19.097,10.811 18.789,-10.849 11.134,18.994 21.716,0.065 L 59.9,-16.068 40.844,-4.903 51.647,13.989 40.92,32.799 21.805,21.901 21.737,0.035 Z"
         style="fill:none;stroke:#231f20;stroke-width:1;stroke-linecap:butt;stroke-linejoin:miter;stroke-miterlimit:10;stroke-dasharray:none;stroke-opacity:1"
         id="path36" /></g><g
       id="g38"
       transform="translate(346.0185,358.7373)"><path
         d="m 0,0 -22.052,38.033 -21.879,0.002 -0.066,-21.988 -18.79,-10.822 10.773,-18.714 -11.08,-19.104 18.836,-10.913 19.197,10.922 10.858,-19.045 21.902,-0.098 0.216,22.003 -18.845,11.189 z"
         style="fill:none;stroke:#231f20;stroke-width:1;stroke-linecap:butt;stroke-linejoin:miter;stroke-miterlimit:10;stroke-dasharray:none;stroke-opacity:1"
         id="path40" /></g><g
       id="g42"
       transform="translate(421.8764,178.9601)"><path
         d="m 0,0 -22.157,38.214 -22.001,0.006 0.038,-22.065 -18.774,-10.747 10.823,-19.019 -10.865,-18.922 19.04,-11.073 19.155,10.825 10.899,-18.878 21.806,-0.054 0.003,21.894 -18.785,11.029 z"
         style="fill:none;stroke:#231f20;stroke-width:1;stroke-linecap:butt;stroke-linejoin:miter;stroke-miterlimit:10;stroke-dasharray:none;stroke-opacity:1"
         id="path44" /></g><g
       id="g46"
       transform="translate(473.743,192.7134)"><path
         d="m 0,0 -22.052,38.194 -21.886,0.116 -0.14,-22.086 -18.773,-10.798 11.025,-19.075 -10.858,-18.895 18.788,-11.062 19.155,10.825 10.899,-18.878 21.806,-0.054 0.003,21.894 -18.888,11.221 z"
         style="fill:none;stroke:#231f20;stroke-width:1;stroke-linecap:butt;stroke-linejoin:miter;stroke-miterlimit:10;stroke-dasharray:none;stroke-opacity:1"
         id="path48" /></g><g
       id="g50"
       transform="translate(501.2298,372.5626)"><path
         d="m 0,0 -22.171,38.238 -21.803,0.027 0.229,-22.086 -18.773,-10.747 10.823,-19.02 -10.849,-19.029 18.556,-10.939 19.197,10.922 10.949,-19.025 21.806,-0.054 0.003,21.894 -18.888,11.221 z"
         style="fill:none;stroke:#231f20;stroke-width:1;stroke-linecap:butt;stroke-linejoin:miter;stroke-miterlimit:10;stroke-dasharray:none;stroke-opacity:1"
         id="path52" /></g><g
       id="g54"
       transform="translate(269.4697,537.8137)"><path
         d="m 0,0 -21.987,38.065 -21.851,0.022 -0.14,-22.086 -18.773,-10.798 10.985,-19.087 -10.838,-18.843 18.98,-10.985 19.097,10.883 10.903,-18.836 21.698,-0.081 0.006,22.06 -19.097,11.017 z"
         style="fill:none;stroke:#231f20;stroke-width:1;stroke-linecap:butt;stroke-linejoin:miter;stroke-miterlimit:10;stroke-dasharray:none;stroke-opacity:1"
         id="path56" /></g><g
       id="g58"
       transform="translate(217.7038,523.9293)"><path
         d="m 0,0 -22.039,38.169 -21.956,-0.002 0.038,-22.004 -18.834,-10.874 10.862,-19.016 -10.772,-18.928 18.904,-10.957 19.181,10.934 11.02,-18.875 21.755,-0.144 -0.017,21.869 -18.98,10.986 z"
         style="fill:none;stroke:#231f20;stroke-width:1;stroke-linecap:butt;stroke-linejoin:miter;stroke-miterlimit:10;stroke-dasharray:none;stroke-opacity:1"
         id="path60" /></g><g
       id="g62"
       transform="translate(121.8999,553.9553)"><path
         d="m 0,0 -38.128,-21.98 -0.054,-21.806 22.171,-0.078 10.848,-18.79 18.878,10.899 19.388,-10.926 10.772,18.928 -10.862,19.016 18.833,10.874 L 51.809,8.141 29.754,7.998 18.694,-10.885 Z"
         style="fill:none;stroke:#231f20;stroke-width:1;stroke-linecap:butt;stroke-linejoin:miter;stroke-miterlimit:10;stroke-dasharray:none;stroke-opacity:1"
         id="path64" /></g><g
       id="g66"
       transform="translate(457.4848,388.7413)"><path
         d="m 0,0 -0.077,44.002 -19.01,11.051 -11.096,-19.382 -21.631,0.079 -0.137,-21.883 -18.825,-11.079 11.25,-18.604 21.899,-0.102 v -21.747 l 18.828,-11.131 10.849,19.029 -10.823,19.02 z"
         style="fill:none;stroke:#231f20;stroke-width:1;stroke-linecap:butt;stroke-linejoin:miter;stroke-miterlimit:10;stroke-dasharray:none;stroke-opacity:1"
         id="path68" /></g><g
       id="g70"
       transform="translate(377.756,195.1155)"><path
         d="m 0,0 -0.063,43.979 -19.01,11.051 -11.152,-19.303 -21.631,0.079 -0.137,-21.883 -18.991,-10.982 11.082,-18.628 21.899,-0.102 v -21.747 l 19.188,-11.153 10.865,18.922 -10.823,19.02 z"
         style="fill:none;stroke:#231f20;stroke-width:1;stroke-linecap:butt;stroke-linejoin:miter;stroke-miterlimit:10;stroke-dasharray:none;stroke-opacity:1"
         id="path72" /></g><g
       id="g74"
       transform="translate(170.3457,211.0728)"><path
         d="m 0,0 -37.85,22.027 -19.069,-10.96 11.019,-19.24 -10.848,-18.79 18.877,-10.899 0.23,-21.907 21.617,-0.071 11.176,18.951 18.877,-10.899 18.823,11.109 -11.048,18.911 -21.883,0.136 z"
         style="fill:none;stroke:#231f20;stroke-width:1;stroke-linecap:butt;stroke-linejoin:miter;stroke-miterlimit:10;stroke-dasharray:none;stroke-opacity:1"
         id="path76" /></g><g
       id="g78"
       transform="translate(323.9661,396.7698)"><path
         d="m 0,0 22.052,-38.033 21.863,-0.121 0.14,22.086 L 62.743,-5.24 51.566,13.452 62.393,32.435 43.538,43.553 24.617,32.678 13.776,51.608 -8.028,51.535 -8.03,29.739 10.995,18.552 Z"
         style="fill:none;stroke:#231f20;stroke-width:1;stroke-linecap:butt;stroke-linejoin:miter;stroke-miterlimit:10;stroke-dasharray:none;stroke-opacity:1"
         id="path80" /></g><g
       id="g82"
       transform="translate(247.4829,575.8792)"><path
         d="m 0,0 21.987,-38.065 21.821,0.087 0.14,22.086 L 62.794,-5.117 51.924,13.66 62.534,32.776 43.796,43.635 24.599,32.714 13.673,51.587 -7.928,51.715 -8.046,29.821 10.987,18.778 Z"
         style="fill:none;stroke:#231f20;stroke-width:1;stroke-linecap:butt;stroke-linejoin:miter;stroke-miterlimit:10;stroke-dasharray:none;stroke-opacity:1"
         id="path84" /></g><g
       id="g86"
       transform="translate(243.8606,203.2671)"><path
         d="m 0,0 22.116,-38 21.802,-0.027 0.14,22.086 L 62.912,-5.21 51.902,13.506 62.729,32.489 43.895,43.667 24.819,32.844 14.036,51.804 -7.77,51.759 -7.917,29.853 10.935,18.728 Z"
         style="fill:none;stroke:#231f20;stroke-width:1;stroke-linecap:butt;stroke-linejoin:miter;stroke-miterlimit:10;stroke-dasharray:none;stroke-opacity:1"
         id="path88" /></g><g
       id="g90"
       transform="translate(451.5419,231.2863)"><path
         d="m 0,0 22.052,-38.194 21.806,-0.054 0.077,22.171 18.79,10.848 L 51.826,13.649 62.581,32.736 43.896,43.606 24.741,32.781 13.842,51.659 -7.964,51.713 -8.061,29.766 10.921,18.598 Z"
         style="fill:none;stroke:#231f20;stroke-width:1;stroke-linecap:butt;stroke-linejoin:miter;stroke-miterlimit:10;stroke-dasharray:none;stroke-opacity:1"
         id="path92" /></g><g
       id="g94"
       transform="translate(440.9449,552.1763)"><path
         d="m 0,0 21.908,-37.904 21.841,-0.034 0.042,22.151 18.79,10.848 L 51.682,13.939 62.427,32.927 43.689,43.786 24.492,32.865 13.617,51.724 -8.142,51.829 -8.151,29.794 10.781,18.874 Z"
         style="fill:none;stroke:#231f20;stroke-width:1;stroke-linecap:butt;stroke-linejoin:miter;stroke-miterlimit:10;stroke-dasharray:none;stroke-opacity:1"
         id="path96" /></g><g
       id="g98"
       transform="translate(168.3464,382.7338)"><path
         d="m 0,0 22.039,-38.075 21.813,0.008 0.198,21.768 L 62.884,-5.425 52.022,13.591 62.857,32.642 44.135,43.529 24.938,32.607 13.898,51.508 -7.837,51.626 -8.055,29.829 10.838,18.842 Z"
         style="fill:none;stroke:#231f20;stroke-width:1;stroke-linecap:butt;stroke-linejoin:miter;stroke-miterlimit:10;stroke-dasharray:none;stroke-opacity:1"
         id="path100" /></g><g
       id="g102"
       transform="translate(116.2361,369.2262)"><path
         d="m 0,0 22.052,-38.194 21.747,-0.029 0.136,22.146 L 62.94,-5.19 52.11,13.508 62.948,32.35 44.055,43.337 24.811,32.528 13.933,51.423 -7.964,51.713 -7.967,29.819 10.921,18.598 Z"
         style="fill:none;stroke:#231f20;stroke-width:1;stroke-linecap:butt;stroke-linejoin:miter;stroke-miterlimit:10;stroke-dasharray:none;stroke-opacity:1"
         id="path104" /></g><g
       id="g106"
       transform="translate(389.3758,538.0477)"><path
         d="m 0,0 21.946,-37.797 21.802,-0.095 0.074,22.086 L 62.563,-4.953 51.569,14.129 62.35,33.003 43.418,43.923 24.475,32.923 13.393,51.758 -8.363,51.734 -8.087,29.73 10.829,18.726 Z"
         style="fill:none;stroke:#231f20;stroke-width:1;stroke-linecap:butt;stroke-linejoin:miter;stroke-miterlimit:10;stroke-dasharray:none;stroke-opacity:1"
         id="path108" /></g><g
       id="g110"
       transform="translate(413.6458,269.0066)"><path
         d="m 0,0 -44.062,-0.111 -10.901,-18.75 19.01,-11.051 0.026,-21.914 22,-0.006 11.173,-19.035 18.773,10.798 0.14,22.086 21.718,0.061 10.95,18.858 -18.992,11.11 -19.129,-10.907 z"
         style="fill:none;stroke:#231f20;stroke-width:1;stroke-linecap:butt;stroke-linejoin:miter;stroke-miterlimit:10;stroke-dasharray:none;stroke-opacity:1"
         id="path112" /></g><g
       id="g114"
       transform="translate(206.1134,241.2609)"><path
         d="m 0,0 -43.97,-0.039 -10.925,-18.868 19.127,-11.281 -0.079,-21.632 21.883,-0.137 11.048,-18.91 18.668,11 0.203,22.001 21.792,-0.128 10.935,18.728 L 29.83,-8.141 10.899,-18.807 Z"
         style="fill:none;stroke:#231f20;stroke-width:1;stroke-linecap:butt;stroke-linejoin:miter;stroke-miterlimit:10;stroke-dasharray:none;stroke-opacity:1"
         id="path116" /></g><g
       id="g118"
       transform="translate(209.5085,613.7188)"><path
         d="m 0,0 -44.053,0.077 -10.871,-18.864 19.057,-11.164 0.067,-21.672 21.956,0.002 11.054,-19.081 18.773,10.798 0.14,22.085 21.851,-0.021 10.987,18.778 -19.032,11.043 -19.15,-10.85 z"
         style="fill:none;stroke:#231f20;stroke-width:1;stroke-linecap:butt;stroke-linejoin:miter;stroke-miterlimit:10;stroke-dasharray:none;stroke-opacity:1"
         id="path120" /></g><g
       id="g122"
       transform="translate(416.7506,641.6483)"><path
         d="m 0,0 -44.054,-0.049 -10.803,-18.892 19.057,-11.164 0.062,-21.761 21.756,0.023 11.082,-18.835 18.943,11 0.01,22.035 21.759,-0.105 10.956,18.924 -18.874,10.899 -19.201,-10.883 z"
         style="fill:none;stroke:#231f20;stroke-width:1;stroke-linecap:butt;stroke-linejoin:miter;stroke-miterlimit:10;stroke-dasharray:none;stroke-opacity:1"
         id="path124" /></g><g
       id="g126"
       transform="translate(220.1985,293.1374)"><path
         d="m 0,0 -44.055,-0.017 -10.851,-18.913 19.087,-11.201 -0.066,-21.62 21.8,-0.126 10.899,-18.807 18.931,10.667 0.147,21.906 21.806,0.044 11.025,19.004 -18.929,11.089 -18.993,-10.897 z"
         style="fill:none;stroke:#231f20;stroke-width:1;stroke-linecap:butt;stroke-linejoin:miter;stroke-miterlimit:10;stroke-dasharray:none;stroke-opacity:1"
         id="path128" /></g><g
       id="g130"
       transform="translate(493.0312,462.5507)"><path
         d="m 0,0 -44.112,-0.089 -10.521,-18.668 19.009,-11.051 -0.151,-21.915 21.802,-0.027 11.033,-18.815 18.756,10.747 0.203,22.001 H 37.817 L 48.767,-18.959 29.808,-8.01 10.646,-18.757 Z"
         style="fill:none;stroke:#231f20;stroke-width:1;stroke-linecap:butt;stroke-linejoin:miter;stroke-miterlimit:10;stroke-dasharray:none;stroke-opacity:1"
         id="path132" /></g><g
       id="g134"
       transform="translate(383.8265,320.9067)"><path
         d="M 0,0 43.939,0.165 54.86,19.039 36.031,30.169 V 51.917 L 14.132,52.018 2.883,70.623 -15.805,59.795 l -0.14,-22.086 -21.863,0.122 -10.93,-18.536 18.845,-11.188 18.994,10.7 z"
         style="fill:none;stroke:#231f20;stroke-width:1;stroke-linecap:butt;stroke-linejoin:miter;stroke-miterlimit:10;stroke-dasharray:none;stroke-opacity:1"
         id="path136" /></g><g
       id="g138"
       transform="translate(369.5833,268.8954)"><path
         d="M 0,0 44.062,0.111 54.957,19.031 35.9,30.196 35.935,51.853 14.243,52.011 3.344,70.818 -15.65,60.118 -15.866,38.115 -37.767,38.213 -48.836,18.847 -29.961,7.948 l 19.2,10.883 z"
         style="fill:none;stroke:#231f20;stroke-width:1;stroke-linecap:butt;stroke-linejoin:miter;stroke-miterlimit:10;stroke-dasharray:none;stroke-opacity:1"
         id="path140" /></g><g
       id="g142"
       transform="translate(303.8627,127.7719)"><path
         d="M 0,0 H 44.103 L 55.078,18.655 35.891,29.808 v 21.747 l -21.9,0.101 -11.082,18.629 -18.853,-10.731 -0.14,-22.086 -21.803,0.027 -10.88,-18.536 18.959,-10.949 19.162,10.746 z"
         style="fill:none;stroke:#231f20;stroke-width:1;stroke-linecap:butt;stroke-linejoin:miter;stroke-miterlimit:10;stroke-dasharray:none;stroke-opacity:1"
         id="path144" /></g><g
       id="g146"
       transform="translate(176.1431,293.1205)"><path
         d="M 0,0 44.055,0.017 54.944,18.945 35.887,30.109 36.055,51.546 14.242,51.538 3.033,70.916 -15.964,59.909 -16.108,37.883 -37.965,37.908 -48.914,19.051 -29.825,8.04 -10.763,18.886 Z"
         style="fill:none;stroke:#231f20;stroke-width:1;stroke-linecap:butt;stroke-linejoin:miter;stroke-miterlimit:10;stroke-dasharray:none;stroke-opacity:1"
         id="path148" /></g><g
       id="g150"
       transform="translate(372.6969,641.5994)"><path
         d="M 0,0 43.861,0.049 54.811,18.907 35.649,30.059 V 51.756 H 13.851 L 2.698,70.614 -16.058,59.867 -16.261,37.866 -38.03,37.864 -48.954,18.996 -29.841,7.912 -10.726,18.81 Z"
         style="fill:none;stroke:#231f20;stroke-width:1;stroke-linecap:butt;stroke-linejoin:miter;stroke-miterlimit:10;stroke-dasharray:none;stroke-opacity:1"
         id="path152" /></g><g
       id="g154"
       transform="translate(165.4558,613.7958)"><path
         d="M 0,0 44.053,-0.077 54.896,18.758 35.839,29.922 35.874,51.579 13.987,51.7 2.835,70.558 -15.922,59.811 -16.124,37.81 h -21.798 l -10.95,-18.858 18.959,-10.95 19.106,10.837 z"
         style="fill:none;stroke:#231f20;stroke-width:1;stroke-linecap:butt;stroke-linejoin:miter;stroke-miterlimit:10;stroke-dasharray:none;stroke-opacity:1"
         id="path156" /></g><g
       id="g158"
       transform="translate(293.8986,448.3985)"><path
         d="M 0,0 43.844,-0.021 54.739,18.933 35.704,30.06 V 51.756 L 13.585,51.851 2.686,70.658 -16.349,59.729 -16.355,37.67 -38.053,37.75 -48.85,18.994 -29.837,7.975 -10.899,18.807 Z"
         style="fill:none;stroke:#231f20;stroke-width:1;stroke-linecap:butt;stroke-linejoin:miter;stroke-miterlimit:10;stroke-dasharray:none;stroke-opacity:1"
         id="path160" /></g><g
       id="g162"
       transform="translate(279.9781,396.5451)"><path
         d="M 0,0 43.988,0.225 54.983,18.777 35.958,29.964 35.96,51.759 13.921,51.853 3.021,70.661 -15.916,59.828 -15.975,37.977 -37.803,37.914 -48.774,18.83 -29.767,7.95 l 19.02,10.823 z"
         style="fill:none;stroke:#231f20;stroke-width:1;stroke-linecap:butt;stroke-linejoin:miter;stroke-miterlimit:10;stroke-dasharray:none;stroke-opacity:1"
         id="path164" /></g><g
       id="g166"
       transform="translate(448.919,462.4621)"><path
         d="M 0,0 44.022,0.089 54.971,18.946 35.809,30.099 35.775,51.776 14.011,51.796 3.02,70.633 -15.721,59.779 -15.795,37.693 -37.597,37.788 -48.831,18.806 -29.956,7.907 l 19.2,10.883 z"
         style="fill:none;stroke:#231f20;stroke-width:1;stroke-linecap:butt;stroke-linejoin:miter;stroke-miterlimit:10;stroke-dasharray:none;stroke-opacity:1"
         id="path168" /></g><g
       id="g170"
       transform="translate(307.4838,500.249)"><path
         d="M 0,0 43.918,0.113 54.843,18.981 35.703,29.988 35.782,51.62 13.899,51.757 2.793,70.513 -16.052,59.738 -16.193,37.653 -38.014,37.565 -49.031,18.896 -29.934,7.879 -10.899,18.807 Z"
         style="fill:none;stroke:#231f20;stroke-width:1;stroke-linecap:butt;stroke-linejoin:miter;stroke-miterlimit:10;stroke-dasharray:none;stroke-opacity:1"
         id="path172" /></g><g
       id="g174"
       transform="translate(343.1866,530.2375)"><path
         d="M 0,0 38.184,-21.998 57.259,-11.06 46.189,7.81 57.018,26.536 38.102,37.54 37.826,59.545 16.11,59.48 5.169,40.644 -13.709,51.543 -32.909,40.524 -21.804,21.768 0.079,21.632 Z"
         style="fill:none;stroke:#231f20;stroke-width:1;stroke-linecap:butt;stroke-linejoin:miter;stroke-miterlimit:10;stroke-dasharray:none;stroke-opacity:1"
         id="path176" /></g><g
       id="g178"
       transform="translate(263.8639,352.8129)"><path
         d="M 0,0 38.158,21.971 38.223,43.96 16.114,43.732 5.367,62.505 -13.653,51.682 -32.66,62.563 -43.495,43.512 -32.633,24.496 -51.467,13.622 l -0.199,-21.768 21.912,0.148 11.06,18.883 z"
         style="fill:none;stroke:#231f20;stroke-width:1;stroke-linecap:butt;stroke-linejoin:miter;stroke-miterlimit:10;stroke-dasharray:none;stroke-opacity:1"
         id="path180" /></g><g
       id="g182"
       transform="translate(427.3021,424.412)"><path
         d="M 0,0 21.617,38.05 10.861,56.84 -8.34,45.957 -27.214,56.856 -38.063,37.823 -59.8,37.788 -59.798,15.911 -40.943,4.792 -51.77,-14.19 l 11.177,-18.692 18.825,11.078 0.136,21.883 z"
         style="fill:none;stroke:#231f20;stroke-width:1;stroke-linecap:butt;stroke-linejoin:miter;stroke-miterlimit:10;stroke-dasharray:none;stroke-opacity:1"
         id="path184" /></g><g
       id="g186"
       transform="translate(271.8586,307.0695)"><path
         d="M 0,0 22.146,38.179 11.373,56.893 -7.995,45.743 -26.688,56.628 -37.749,37.745 -59.66,37.597 -59.829,16.16 -40.772,4.996 -51.66,-13.932 l 10.801,-18.871 18.992,10.897 0.13,21.871 z"
         style="fill:none;stroke:#231f20;stroke-width:1;stroke-linecap:butt;stroke-linejoin:miter;stroke-miterlimit:10;stroke-dasharray:none;stroke-opacity:1"
         id="path188" /></g><g
       id="g190"
       transform="translate(182.2443,434.2421)"><path
         d="M 0,0 21.864,38.134 10.844,57.009 -8.37,46.101 -27.241,57.033 -38.059,38.071 -59.966,37.842 -60.037,16.225 -41.085,5.049 l -10.99,-18.642 10.877,-18.894 19.245,10.808 0.218,21.797 z"
         style="fill:none;stroke:#231f20;stroke-width:1;stroke-linecap:butt;stroke-linejoin:miter;stroke-miterlimit:10;stroke-dasharray:none;stroke-opacity:1"
         id="path192" /></g><g
       id="g194"
       transform="translate(309.6671,268.8568)"><path
         d="M 0,0 22.149,38.251 11.291,57.296 -7.906,46.375 -26.742,57.287 -37.809,38.213 -59.546,38.177 -59.675,16.307 -40.746,5.218 -51.77,-13.786 l 10.782,-18.959 19.076,10.823 0.175,21.887 z"
         style="fill:none;stroke:#231f20;stroke-width:1;stroke-linecap:butt;stroke-linejoin:miter;stroke-miterlimit:10;stroke-dasharray:none;stroke-opacity:1"
         id="path196" /></g><g
       id="g198"
       transform="translate(347.5314,230.8423)"><path
         d="M 0,0 22.052,38.053 11.291,56.884 -7.909,46.001 -26.784,56.9 -37.864,38.014 -59.601,37.979 -59.776,16.092 -40.942,4.913 l -10.827,-18.982 11.01,-18.716 18.991,10.981 0.136,21.883 z"
         style="fill:none;stroke:#231f20;stroke-width:1;stroke-linecap:butt;stroke-linejoin:miter;stroke-miterlimit:10;stroke-dasharray:none;stroke-opacity:1"
         id="path200" /></g><g
       id="g202"
       transform="translate(465.1944,282.9699)"><path
         d="M 0,0 22.052,38.194 11.245,56.959 -7.952,46.037 -26.508,56.976 -37.429,38.102 -59.676,37.778 -59.711,16.121 -40.654,4.957 l -10.895,-18.92 10.746,-18.791 19.089,10.837 0.148,22.076 z"
         style="fill:none;stroke:#231f20;stroke-width:1;stroke-linecap:butt;stroke-linejoin:miter;stroke-miterlimit:10;stroke-dasharray:none;stroke-opacity:1"
         id="path204" /></g><g
       id="g206"
       transform="translate(261.1562,627.4666)"><path
         d="M 0,0 21.918,38.153 11.098,57.064 -8.141,46.046 -26.931,56.894 -37.83,38.016 -59.826,37.908 -59.862,16.251 -40.805,5.087 l -10.843,-18.835 10.779,-18.869 19.15,10.851 0.118,21.893 z"
         style="fill:none;stroke:#231f20;stroke-width:1;stroke-linecap:butt;stroke-linejoin:miter;stroke-miterlimit:10;stroke-dasharray:none;stroke-opacity:1"
         id="path208" /></g><g
       id="g210"
       transform="translate(389.2389,462.2354)"><path
         d="M 0,0 22.083,38.015 11.207,56.942 -7.868,46.004 -26.913,56.994 -37.837,38.126 -59.608,37.915 -59.68,16.298 -40.601,5.096 l -10.896,-18.954 10.841,-18.929 18.921,10.874 -0.002,21.878 z"
         style="fill:none;stroke:#231f20;stroke-width:1;stroke-linecap:butt;stroke-linejoin:miter;stroke-miterlimit:10;stroke-dasharray:none;stroke-opacity:1"
         id="path212" /></g></g></svg>
